<?xml version="1.0" encoding="utf-8"?>
<!-- Generator: Adobe Illustrator 19.0.0, SVG Export Plug-In . SVG Version: 6.00 Build 0)  -->
<svg version="1.1" id="Layer_1" xmlns="http://www.w3.org/2000/svg" xmlns:xlink="http://www.w3.org/1999/xlink" x="0px" y="0px"
	 viewBox="-247 248.5 16 16" style="enable-background:new -247 248.5 16 16;" xml:space="preserve">
<style type="text/css">
	.st0{opacity:0;}
	.st1{fill:#111111;}
</style>
<g>
	<g class="st0">
		<path d="M-246,250v13c0,0.3-0.2,0.5-0.5,0.5h-0.5v-14h0.5C-246.2,249.5-246,249.7-246,250z"/>
		<path d="M-243,250v10c0,0.3-0.2,0.5-0.5,0.5s-0.5-0.2-0.5-0.5v-10c0-0.3,0.2-0.5,0.5-0.5S-243,249.7-243,250z"/>
		<path d="M-237.5,249.5h-3c-0.3,0-0.5,0.2-0.5,0.5v10c0,0.3,0.2,0.5,0.5,0.5h3c0.3,0,0.5-0.2,0.5-0.5v-10
			C-237,249.7-237.2,249.5-237.5,249.5z M-238,259.5h-2v-9h2V259.5z"/>
		<path d="M-234,250v10c0,0.3-0.2,0.5-0.5,0.5s-0.5-0.2-0.5-0.5v-10c0-0.3,0.2-0.5,0.5-0.5S-234,249.7-234,250z"/>
		<path d="M-231,250v13c0,0.3-0.2,0.5-0.5,0.5s-0.5-0.2-0.5-0.5v-13c0-0.3,0.2-0.5,0.5-0.5S-231,249.7-231,250z"/>
	</g>
	<g>
		<path class="st1" d="M-246,250v13c0,0.3-0.2,0.5-0.5,0.5s-0.5-0.2-0.5-0.5v-13c0-0.3,0.2-0.5,0.5-0.5S-246,249.7-246,250z"/>
	</g>
	<g>
		<path class="st1" d="M-243,250v10c0,0.3-0.2,0.5-0.5,0.5s-0.5-0.2-0.5-0.5v-10c0-0.3,0.2-0.5,0.5-0.5S-243,249.7-243,250z"/>
	</g>
	<g>
		<path class="st1" d="M-234,250v10c0,0.3-0.2,0.5-0.5,0.5s-0.5-0.2-0.5-0.5v-10c0-0.3,0.2-0.5,0.5-0.5S-234,249.7-234,250z"/>
	</g>
	<g>
		<path class="st1" d="M-231,250v13c0,0.3-0.2,0.5-0.5,0.5s-0.5-0.2-0.5-0.5v-13c0-0.3,0.2-0.5,0.5-0.5S-231,249.7-231,250z"/>
	</g>
	<g>
		<path class="st1" d="M-237.5,249.5h-3c-0.3,0-0.5,0.2-0.5,0.5v10c0,0.3,0.2,0.5,0.5,0.5h3c0.3,0,0.5-0.2,0.5-0.5v-10
			C-237,249.7-237.2,249.5-237.5,249.5z M-238,259.5h-2v-9h2V259.5z"/>
	</g>
</g>
</svg>
