<?xml version="1.0" encoding="utf-8"?>
<!-- Generator: Adobe Illustrator 19.0.0, SVG Export Plug-In . SVG Version: 6.00 Build 0)  -->
<svg version="1.1" id="Layer_1" xmlns="http://www.w3.org/2000/svg" xmlns:xlink="http://www.w3.org/1999/xlink" x="0px" y="0px"
	 viewBox="-247 249 16 16" style="enable-background:new -247 249 16 16;" xml:space="preserve">
<style type="text/css">
	.st0{opacity:0;}
	.st1{fill:#111111;}
</style>
<g>
	<g class="st0">
		<rect x="-246" y="249" width="14" height="16"/>
	</g>
	<g>
		<path class="st1" d="M-233.5,265h-11c-0.9,0-1.5-0.6-1.5-1.5v-13c0-0.9,0.6-1.5,1.5-1.5h11c0.9,0,1.5,0.6,1.5,1.5v13
			C-232,264.4-232.6,265-233.5,265z M-244.5,250c-0.3,0-0.5,0.2-0.5,0.5v13c0,0.3,0.2,0.5,0.5,0.5h11c0.3,0,0.5-0.2,0.5-0.5v-13
			c0-0.3-0.2-0.5-0.5-0.5H-244.5z"/>
	</g>
	<g>
		<path class="st1" d="M-243,254c0.6,0,1-0.4,1-1s-0.4-1-1-1s-1,0.4-1,1S-243.6,254-243,254z"/>
	</g>
	<g>
		<path class="st1" d="M-243,262c0.6,0,1-0.4,1-1s-0.4-1-1-1s-1,0.4-1,1S-243.6,262-243,262z"/>
	</g>
	<g>
		<path class="st1" d="M-243,258c0.6,0,1-0.4,1-1s-0.4-1-1-1s-1,0.4-1,1S-243.6,258-243,258z"/>
	</g>
	<g>
		<path class="st1" d="M-235.5,259h-4c-0.3,0-0.5-0.2-0.5-0.5v-3c0-0.3,0.2-0.5,0.5-0.5h4c0.3,0,0.5,0.2,0.5,0.5v3
			C-235,258.8-235.2,259-235.5,259z M-239,258h3v-2h-3V258z"/>
	</g>
</g>
</svg>
