<?xml version="1.0" encoding="utf-8"?>
<!-- Generator: Adobe Illustrator 19.0.0, SVG Export Plug-In . SVG Version: 6.00 Build 0)  -->
<svg version="1.1" id="Layer_1" xmlns="http://www.w3.org/2000/svg" xmlns:xlink="http://www.w3.org/1999/xlink" x="0px" y="0px"
	 viewBox="-247 249 16 16" style="enable-background:new -247 249 16 16;" xml:space="preserve">
<style type="text/css">
	.st0{opacity:0;}
	.st1{fill:#111111;}
</style>
<g>
	<g class="st0">
		<path class="st1" d="M-244.5,265h-1.5v-1.5C-246,264.4-245.4,265-244.5,265z"/>
		<path class="st1" d="M-244.5,249c-0.9,0-1.5,0.6-1.5,1.5V249H-244.5z"/>
		<path class="st1" d="M-232,249v1.5c0-0.9-0.6-1.5-1.5-1.5H-232z"/>
		<path class="st1" d="M-232,263.5v1.5h-1.5C-232.6,265-232,264.4-232,263.5z"/>
	</g>
	<g>
		<path class="st1" d="M-233.5,249h-11c-0.9,0-1.5,0.6-1.5,1.5v13c0,0.9,0.6,1.5,1.5,1.5h11c0.9,0,1.5-0.6,1.5-1.5v-13
			C-232,249.6-232.6,249-233.5,249z M-242,250h4v5.5l-1.7-1.4c-0.2-0.1-0.4-0.1-0.6,0l-1.7,1.4V250z M-233,263.5
			c0,0.3-0.2,0.5-0.5,0.5h-11c-0.3,0-0.5-0.2-0.5-0.5v-13c0-0.3,0.2-0.5,0.5-0.5h1.5v6.5c0,0.2,0.1,0.4,0.3,0.5
			c0.2,0.1,0.4,0.1,0.5-0.1l2.2-1.8l2.2,1.8c0.1,0.1,0.2,0.1,0.3,0.1c0.1,0,0.2,0,0.2,0c0.2-0.1,0.3-0.3,0.3-0.5V250h3.5
			c0.3,0,0.5,0.2,0.5,0.5V263.5z"/>
	</g>
</g>
</svg>
