<svg xmlns="http://www.w3.org/2000/svg" height="406pt" version="1.1" viewBox="-47 1 406 406.667" width="406pt">
<g id="surface1">
<path d="M 305.621094 386.648438 L 305.621094 20.351562 C 305.621094 12.855469 299.546875 6.78125 292.054688 6.78125 L 129.253906 6.78125 L 129.253906 74.617188 L 102.121094 47.484375 L 74.988281 74.617188 L 74.988281 6.785156 L 47.855469 6.785156 L 47.855469 400.214844 L 292.054688 400.214844 C 299.546875 400.214844 305.621094 394.140625 305.621094 386.648438 Z M 176.738281 298.464844 C 176.738281 298.464844 108.90625 207.046875 108.90625 169.582031 C 108.90625 132.117188 139.277344 101.75 176.738281 101.75 C 214.203125 101.75 244.574219 132.117188 244.574219 169.582031 C 244.570312 207.046875 176.738281 298.464844 176.738281 298.464844 Z M 176.738281 298.464844 " style=" stroke:none;fill-rule:nonzero;fill:rgb(80.392157%,80.392157%,81.568627%);fill-opacity:1;" />
<path d="M 244.574219 318.816406 C 244.574219 307.578125 214.203125 298.46875 176.738281 298.46875 C 139.277344 298.46875 108.90625 307.578125 108.90625 318.816406 C 108.90625 330.054688 139.277344 339.167969 176.738281 339.167969 C 214.203125 339.167969 244.574219 330.054688 244.574219 318.816406 Z M 244.574219 318.816406 " style=" stroke:none;fill-rule:nonzero;fill:rgb(87.843137%,20%,32.156863%);fill-opacity:1;" />
<path d="M 7.15625 6.785156 L 47.855469 6.785156 L 47.855469 400.214844 L 7.15625 400.214844 Z M 7.15625 6.785156 " style=" stroke:none;fill-rule:nonzero;fill:rgb(80.392157%,80.392157%,81.568627%);fill-opacity:1;" />
<path d="M 176.738281 101.75 C 139.277344 101.75 108.90625 132.121094 108.90625 169.582031 C 108.90625 207.046875 176.738281 298.46875 176.738281 298.46875 C 176.738281 298.46875 244.574219 207.046875 244.574219 169.582031 C 244.570312 132.121094 214.203125 101.75 176.738281 101.75 Z M 176.738281 203.5 C 158.007812 203.5 142.824219 188.3125 142.824219 169.582031 C 142.824219 150.851562 158.007812 135.664062 176.738281 135.664062 C 195.472656 135.664062 210.65625 150.851562 210.65625 169.582031 C 210.65625 188.3125 195.472656 203.5 176.738281 203.5 Z M 176.738281 203.5 " style=" stroke:none;fill-rule:nonzero;fill:rgb(20%,54.117647%,95.294118%);fill-opacity:1;" />
<path d="M 210.65625 169.582031 C 210.65625 188.316406 195.472656 203.5 176.738281 203.5 C 158.007812 203.5 142.824219 188.316406 142.824219 169.582031 C 142.824219 150.851562 158.007812 135.664062 176.738281 135.664062 C 195.472656 135.664062 210.65625 150.851562 210.65625 169.582031 Z M 210.65625 169.582031 " style=" stroke:none;fill-rule:nonzero;fill:rgb(87.843137%,20%,32.156863%);fill-opacity:1;" />
<path d="M 102.121094 47.484375 L 129.253906 74.617188 L 129.253906 6.785156 L 74.988281 6.785156 L 74.988281 74.617188 Z M 102.121094 47.484375 " style=" stroke:none;fill-rule:nonzero;fill:rgb(87.843137%,20%,32.156863%);fill-opacity:1;" />
<path d="M 163.171875 312.035156 L 190.304688 312.035156 L 190.304688 325.601562 L 163.171875 325.601562 Z M 163.171875 312.035156 " style=" stroke:none;fill-rule:nonzero;fill:rgb(13.72549%,12.156863%,12.54902%);fill-opacity:1;" />
<path d="M 197.089844 312.035156 L 210.65625 312.035156 L 210.65625 325.601562 L 197.089844 325.601562 Z M 197.089844 312.035156 " style=" stroke:none;fill-rule:nonzero;fill:rgb(13.72549%,12.156863%,12.54902%);fill-opacity:1;" />
<path d="M 142.824219 312.035156 L 156.390625 312.035156 L 156.390625 325.601562 L 142.824219 325.601562 Z M 142.824219 312.035156 " style=" stroke:none;fill-rule:nonzero;fill:rgb(13.72549%,12.156863%,12.54902%);fill-opacity:1;" />
<path d="M 176.738281 94.964844 C 135.550781 95.015625 102.171875 128.394531 102.121094 169.582031 C 102.121094 208.832031 168.46875 298.703125 171.3125 302.535156 C 173.546875 305.546875 177.792969 306.171875 180.800781 303.941406 C 181.335938 303.542969 181.808594 303.070312 182.207031 302.535156 C 185.007812 298.703125 251.355469 208.832031 251.355469 169.582031 C 251.308594 128.394531 217.929688 95.015625 176.738281 94.964844 Z M 176.738281 286.933594 C 155.710938 257.460938 115.691406 195.96875 115.691406 169.582031 C 115.691406 135.867188 143.023438 108.53125 176.738281 108.53125 C 210.457031 108.53125 237.789062 135.867188 237.789062 169.582031 C 237.789062 195.949219 197.769531 257.449219 176.738281 286.933594 Z M 176.738281 286.933594 " style=" stroke:none;fill-rule:nonzero;fill:rgb(13.72549%,12.156863%,12.54902%);fill-opacity:1;" />
<path d="M 176.738281 128.882812 C 154.261719 128.882812 136.039062 147.105469 136.039062 169.582031 C 136.039062 192.0625 154.261719 210.285156 176.738281 210.285156 C 199.21875 210.285156 217.441406 192.0625 217.441406 169.582031 C 217.417969 147.113281 199.207031 128.90625 176.738281 128.882812 Z M 176.738281 196.71875 C 161.753906 196.71875 149.605469 184.570312 149.605469 169.582031 C 149.605469 154.597656 161.753906 142.449219 176.738281 142.449219 C 191.726562 142.449219 203.871094 154.597656 203.871094 169.582031 C 203.871094 184.570312 191.726562 196.71875 176.738281 196.71875 Z M 176.738281 196.71875 " style=" stroke:none;fill-rule:nonzero;fill:rgb(13.72549%,12.156863%,12.54902%);fill-opacity:1;" />
<path d="M 292.054688 0 L 7.15625 0 C 3.410156 0 0.371094 3.039062 0.371094 6.785156 L 0.371094 400.214844 C 0.371094 403.960938 3.410156 407 7.15625 407 L 292.054688 407 C 303.296875 407 312.40625 397.886719 312.40625 386.648438 L 312.40625 20.351562 C 312.40625 9.113281 303.296875 0 292.054688 0 Z M 122.472656 13.566406 L 122.472656 58.242188 L 106.917969 42.6875 C 104.269531 40.039062 99.976562 40.039062 97.328125 42.6875 L 81.773438 58.242188 L 81.773438 13.566406 Z M 13.9375 13.566406 L 41.074219 13.566406 L 41.074219 393.433594 L 13.9375 393.433594 Z M 298.839844 386.648438 C 298.839844 390.394531 295.800781 393.433594 292.054688 393.433594 L 54.640625 393.433594 L 54.640625 13.566406 L 68.207031 13.566406 L 68.207031 74.617188 C 68.207031 78.363281 71.246094 81.398438 74.992188 81.398438 C 76.789062 81.398438 78.515625 80.683594 79.785156 79.414062 L 102.121094 57.074219 L 124.460938 79.414062 C 125.730469 80.683594 127.457031 81.402344 129.253906 81.402344 C 130.148438 81.402344 131.03125 81.226562 131.855469 80.886719 C 134.386719 79.835938 136.039062 77.359375 136.039062 74.617188 L 136.039062 13.566406 L 292.054688 13.566406 C 295.800781 13.566406 298.839844 16.605469 298.839844 20.351562 Z M 298.839844 386.648438 " style=" stroke:none;fill-rule:nonzero;fill:rgb(13.72549%,12.156863%,12.54902%);fill-opacity:1;" />
</g>
</svg>