<?xml version="1.0" encoding="iso-8859-1"?>
<!-- Generator: Adobe Illustrator 19.0.0, SVG Export Plug-In . SVG Version: 6.00 Build 0)  -->
<svg version="1.1" id="Capa_1" xmlns="http://www.w3.org/2000/svg" xmlns:xlink="http://www.w3.org/1999/xlink" x="0px" y="0px"
	 viewBox="0 0 512 512" style="enable-background:new 0 0 512 512;" xml:space="preserve">
<path style="fill:#FF5D5D;" d="M118.054,386.758h333.494V10.039H121.081c-33.485,0-60.629,27.144-60.629,60.629V444.36
	C60.453,412.679,86.373,386.758,118.054,386.758z"/>
<path style="fill:#FFFFFF;" d="M118.054,386.758c-31.681,0-57.601,25.92-57.601,57.601l0,0c0,0.803,0.028,1.599,0.061,2.394
	c1.267,30.581,26.662,55.208,57.54,55.208h333.494V386.758H118.054z"/>
<circle style="fill:#BBECFF;" cx="281.208" cy="196.839" r="109.799"/>
<path d="M281.211,316.683c0.105,0,0.21-0.004,0.315-0.004c0.046,0.001,0.092,0.006,0.139,0.006c0.001,0,0.003,0,0.004,0
	s0.003,0,0.004,0c0.073,0,0.148-0.009,0.221-0.011c65.768-0.369,119.16-53.981,119.16-119.835S347.661,77.374,281.893,77.005
	c-0.107-0.002-0.215-0.01-0.322-0.008c-0.043,0-0.086,0.002-0.129,0.003c-0.076,0-0.153-0.003-0.23-0.003
	c-66.082,0-119.843,53.761-119.843,119.843S215.129,316.683,281.211,316.683z M181.949,206.878h47.011
	c1.543,33.453,10.667,64.788,23.898,85.615C214.71,281.166,186.036,247.596,181.949,206.878z M281.499,295.111
	c-13.563-9.744-30.267-42.709-32.453-88.233h64.553c-1.05,20.582-5.284,40.829-12.199,57.909
	C294.836,281.001,287.372,290.625,281.499,295.111z M309.985,292.368c13.117-20.931,22.181-52.275,23.724-85.49h46.765
	C376.4,247.446,347.923,280.919,309.985,292.368z M380.473,186.8h-46.781c-0.261-5.827-0.723-11.64-1.434-17.372
	c-0.682-5.502-5.701-9.41-11.197-8.729c-5.502,0.682-9.411,5.695-8.728,11.198c0.609,4.917,1.016,9.904,1.262,14.903h-64.543
	c2.224-45.017,19.032-78.143,32.671-88.228c7.636,5.693,17.115,19.696,23.905,41.643c1.332,4.309,5.301,7.075,9.587,7.075
	c0.983,0,1.983-0.146,2.971-0.451c5.296-1.638,8.261-7.261,6.623-12.558c-3.949-12.765-8.877-23.86-14.482-32.867
	C348.095,112.958,376.412,146.355,380.473,186.8z M253.16,101.095c-13.377,20.933-22.625,52.377-24.196,85.705h-47.016
	C186.047,145.976,214.86,112.335,253.16,101.095z"/>
<path d="M451.547,0H121.082C82.115,0,50.414,31.702,50.414,70.668v376.077c0,0.49,0.047,0.968,0.114,1.44
	C52.519,483.707,82.041,512,118.054,512h333.493c5.544,0,10.039-4.495,10.039-10.039V10.039C461.586,4.495,457.092,0,451.547,0z
	 M121.082,20.078h320.427v356.64H120.471V105.412c0-5.545-4.495-10.039-10.039-10.039c-5.545,0-10.039,4.495-10.039,10.039v273.661
	c-11.45,3.101-21.705,9.132-29.901,17.246V70.668C70.492,42.772,93.187,20.078,121.082,20.078z M70.492,444.36
	c0-26.226,21.336-47.562,47.562-47.562h323.454v19.829H270.841c-5.544,0-10.039,4.495-10.039,10.039s4.496,10.039,10.039,10.039
	h170.667v20.078h-130.51c-5.544,0-10.039,4.495-10.039,10.039c0,5.545,4.496,10.039,10.039,10.039h130.51v15.059H118.054
	C91.828,491.922,70.492,470.585,70.492,444.36z"/>
<path d="M238.483,416.627h-0.201c-5.545,0-10.039,4.495-10.039,10.039s4.495,10.039,10.039,10.039h0.201
	c5.545,0,10.039-4.495,10.039-10.039S244.026,416.627,238.483,416.627z"/>
<g>
</g>
<g>
</g>
<g>
</g>
<g>
</g>
<g>
</g>
<g>
</g>
<g>
</g>
<g>
</g>
<g>
</g>
<g>
</g>
<g>
</g>
<g>
</g>
<g>
</g>
<g>
</g>
<g>
</g>
</svg>
