<?xml version="1.0" encoding="utf-8"?>
<!-- Generator: Adobe Illustrator 19.0.0, SVG Export Plug-In . SVG Version: 6.00 Build 0)  -->
<svg version="1.1" id="Layer_1" xmlns="http://www.w3.org/2000/svg" xmlns:xlink="http://www.w3.org/1999/xlink" x="0px" y="0px"
	 viewBox="-247 249 16 16" style="enable-background:new -247 249 16 16;" xml:space="preserve">
<style type="text/css">
	.st0{opacity:0;}
	.st1{fill:#111111;}
</style>
<g>
	<g class="st0">
		<path d="M-246.5,250c-0.3,0-0.5,0.2-0.5,0.5V250H-246.5z"/>
		<path d="M-246.5,264h-0.5v-0.5C-247,263.8-246.8,264-246.5,264z"/>
		<rect x="-246" y="251" width="4" height="9"/>
		<rect x="-246" y="261" width="4" height="2"/>
		<polygon points="-233,259.4 -236.8,260.5 -239.3,251.8 -235.5,250.7 		"/>
		<polygon points="-232.1,262.2 -236,263.3 -236.5,261.5 -232.7,260.3 		"/>
		<path d="M-231.8,259.7l-0.1-0.3c0,0.1,0,0.1,0.1,0.2C-231.8,259.6-231.8,259.7-231.8,259.7z"/>
	</g>
	<g>
		<path class="st1" d="M-231.8,259.7l-0.1-0.3c0,0.1,0,0.1,0.1,0.2C-231.8,259.6-231.8,259.7-231.8,259.7z"/>
	</g>
	<g>
		<path class="st1" d="M-241.5,250h-5c-0.3,0-0.5,0.2-0.5,0.5v13c0,0.3,0.2,0.5,0.5,0.5h5c0.3,0,0.5-0.2,0.5-0.5v-13
			C-241,250.2-241.2,250-241.5,250z M-246,251h4v9h-4V251z M-242,263h-4v-2h4V263z"/>
	</g>
	<g>
		<path class="st1" d="M-231,262.4l-0.8-2.7v0l-0.1-0.3l0,0l-2.7-9.4l0-0.1c-0.1-0.3-0.3-0.4-0.6-0.3l-1.5,0.4l-3.3,1
			c-0.1,0-0.2,0.1-0.3,0.2c-0.1,0.1-0.1,0.3,0,0.4l3.6,12.4l0,0.1c0,0.1,0.1,0.2,0.2,0.3c0.1,0,0.1,0.1,0.2,0.1c0,0,0.1,0,0.1,0
			l1.5-0.4l3.3-1C-231.1,263-231,262.7-231,262.4z M-239.3,251.8l3.8-1.1l2.5,8.7l-3.8,1.1L-239.3,251.8z M-236,263.3l-0.5-1.9
			l3.8-1.1l0.5,1.9L-236,263.3z"/>
	</g>
</g>
</svg>
