<?xml version="1.0" encoding="utf-8"?>
<!-- Generator: Adobe Illustrator 19.0.0, SVG Export Plug-In . SVG Version: 6.00 Build 0)  -->
<svg version="1.1" id="Layer_1" xmlns="http://www.w3.org/2000/svg" xmlns:xlink="http://www.w3.org/1999/xlink" x="0px" y="0px"
	viewBox="-243.5 245 24 24" style="enable-background:new -243.5 245 24 24;" xml:space="preserve">
	<style type="text/css">
		.st0{fill:#006557;}
	</style>
	<g>
		<path class="st0" d="M-225.5,247v-2h-2v2h-8v-2h-2v2h-6v22h11v-2h-9v-12h20v3h2v-11H-225.5z M-221.5,253h-20v-4h4v2h2v-2h8v2h2v-2
			h4V253z"/>
			<path class="st0" d="M-226.5,257c-3.4,0-6,2.6-6,6c0,2.1,1,3.9,2.6,5c1,0.6,2.1,1,3.4,1s2.4-0.4,3.4-1c1.6-1.1,2.6-2.9,2.6-5
				C-220.5,259.6-223.1,257-226.5,257z M-226.5,267c-2.2,0-4-1.8-4-4s1.8-4,4-4s4,1.8,4,4S-224.3,267-226.5,267z"/>
				<polygon class="st0" points="-223.5,262 -223.5,264 -227.5,264 -227.5,260 -225.5,260 -225.5,262 	"/>
			</g>
		</svg>
