<?xml version="1.0" encoding="utf-8"?>
<!-- Generator: Adobe Illustrator 19.0.0, SVG Export Plug-In . SVG Version: 6.00 Build 0)  -->
<svg version="1.1" id="Layer_1" xmlns="http://www.w3.org/2000/svg" xmlns:xlink="http://www.w3.org/1999/xlink" x="0px" y="0px"
	 viewBox="-247 249 16 16" style="enable-background:new -247 249 16 16;" xml:space="preserve">
<style type="text/css">
	.st0{fill:#111111;}
</style>
<path class="st0" d="M-233,251h-1.5v-1.5c0-0.3-0.2-0.5-0.5-0.5s-0.5,0.2-0.5,0.5v1.5h-3v-1.5c0-0.3-0.2-0.5-0.5-0.5
	s-0.5,0.2-0.5,0.5v1.5h-3v-1.5c0-0.3-0.2-0.5-0.5-0.5s-0.5,0.2-0.5,0.5v1.5h-1.5c-0.9,0-1.5,0.6-1.5,1.5v11c0,0.9,0.6,1.5,1.5,1.5
	h12c0.9,0,1.5-0.6,1.5-1.5v-11C-231.5,251.6-232.1,251-233,251z M-245.5,252.5c0-0.3,0.2-0.5,0.5-0.5h12c0.3,0,0.5,0.2,0.5,0.5v1.5
	h-13V252.5z M-232.5,263.5c0,0.3-0.2,0.5-0.5,0.5h-12c-0.3,0-0.5-0.2-0.5-0.5V255h13V263.5z"/>
</svg>
