<?xml version="1.0" encoding="utf-8"?>
<!-- Generator: Adobe Illustrator 19.0.0, SVG Export Plug-In . SVG Version: 6.00 Build 0)  -->
<svg version="1.1" id="Layer_1" xmlns="http://www.w3.org/2000/svg" xmlns:xlink="http://www.w3.org/1999/xlink" x="0px" y="0px"
	 viewBox="-248.9 250.1 12.8 12.8" style="enable-background:new -248.9 250.1 12.8 12.8;" xml:space="preserve">
<style type="text/css">
	.st0{fill-opacity:0;}
	.st1{fill:#111111;}
</style>
<g>
	<path class="st0" d="M-239.2,251.1l-5.4,5.4l5.4,5.4c0.2,0.2,0.2,0.6,0,0.8c-0.3,0.3-0.6,0.3-0.8,0l-5.8-5.8
		c-0.1-0.1-0.2-0.3-0.2-0.5c0-0.1,0-0.1,0-0.2c0,0.1,0.1,0,0.2-0.1l5.8-5.8c0.2-0.2,0.6-0.2,0.8,0
		C-238.9,250.6-238.9,250.9-239.2,251.1z"/>
	<path class="st1" d="M-239.2,251.1l-5.4,5.4l5.4,5.4c0.2,0.2,0.2,0.6,0,0.8c-0.3,0.3-0.6,0.3-0.8,0l-5.8-5.8
		c-0.1-0.1-0.2-0.3-0.2-0.5c0-0.1,0-0.1,0-0.2c0,0.1,0.1,0,0.2-0.1l5.8-5.8c0.2-0.2,0.6-0.2,0.8,0
		C-238.9,250.6-238.9,250.9-239.2,251.1z"/>
</g>
</svg>
