<?xml version="1.0" encoding="utf-8"?>
<!-- Generator: Adobe Illustrator 19.0.0, SVG Export Plug-In . SVG Version: 6.00 Build 0)  -->
<svg version="1.1" id="Layer_1" xmlns="http://www.w3.org/2000/svg" xmlns:xlink="http://www.w3.org/1999/xlink" x="0px" y="0px"
	viewBox="-243 244.4 24 24" style="enable-background:new -243 244.4 24 24;" xml:space="preserve">
	<style type="text/css">
		.st0{opacity:0;}
		.st1{fill:#006557;}
		.st2{fill:#ffffff;}
	</style>
	<g class="st0">
		<path d="M-239,256.4v3h4v-3H-239z M-239,261.4v3h4v-3H-239z M-233,256.4v3h4v-3H-233z M-233,261.4v3h4v-3H-233z M-227,256.4v3h4v-3
			H-227z M-227,256.4v3h4v-3H-227z M-233,261.4v3h4v-3H-233z M-233,256.4v3h4v-3H-233z M-239,261.4v3h4v-3H-239z M-239,256.4v3h4v-3
			H-239z M-227,256.4v3h4v-3H-227z M-233,261.4v3h4v-3H-233z M-233,256.4v3h4v-3H-233z M-239,261.4v3h4v-3H-239z M-239,256.4v3h4v-3
			H-239z"/>
		</g>
		<g>
			<path class="st1" d="M-224,246.4v-2h-2v2h-4v-2h-2v2h-4v-2h-2v2h-5v22h24v-22H-224z M-221,266.4h-20v-12h20V266.4z M-221,252.4h-20
				v-4h3v2h2v-2h4v2h2v-2h4v2h2v-2h3V252.4z"/>
			</g>
			<g>
				<rect x="-239" y="256.4" class="st1" width="4" height="3"/>
			</g>
			<g>
				<rect x="-233" y="256.4" class="st1" width="4" height="3"/>
			</g>
			<g>
				<rect x="-239" y="261.4" class="st1" width="4" height="3"/>
			</g>
			<g>
				<rect x="-233" y="261.4" class="st1" width="4" height="3"/>
			</g>
			<g>
				<rect x="-227" y="256.4" class="st1" width="4" height="3"/>
			</g>
			<g>
				<rect x="-238" y="257.4" class="st2" width="2" height="1"/>
			</g>
			<g>
				<rect x="-232" y="257.4" class="st2" width="2" height="1"/>
			</g>
			<g>
				<rect x="-238" y="262.4" class="st2" width="2" height="1"/>
			</g>
			<g>
				<rect x="-232" y="262.4" class="st2" width="2" height="1"/>
			</g>
			<g>
				<rect x="-226" y="257.4" class="st2" width="2" height="1"/>
			</g>
		</svg>
