<?xml version="1.0" encoding="utf-8"?>
<!-- Generator: Adobe Illustrator 19.0.0, SVG Export Plug-In . SVG Version: 6.00 Build 0)  -->
<svg version="1.1" id="Layer_1" xmlns="http://www.w3.org/2000/svg" xmlns:xlink="http://www.w3.org/1999/xlink" x="0px" y="0px"
	 viewBox="-293.7 386.3 21.4 21.4" style="enable-background:new -293.7 386.3 21.4 21.4;" xml:space="preserve">
<g>
	<path d="M-288,407.7c-1.5,0-2.7-1.2-2.7-2.7v-13.3h-1.3c-0.4,0-0.7-0.3-0.7-0.7s0.3-0.7,0.7-0.7h4.3V389c0-1.5,1.2-2.7,2.7-2.7h4
		c1.5,0,2.7,1.2,2.7,2.7v1.3h4.3c0.4,0,0.7,0.3,0.7,0.7s-0.3,0.7-0.7,0.7h-1.3V405c0,1.5-1.2,2.7-2.7,2.7H-288z M-289.3,405
		c0,0.8,0.5,1.3,1.3,1.3h10c0.8,0,1.3-0.5,1.3-1.3v-13.3h-12.6V405z M-285,387.7c-0.8,0-1.3,0.5-1.3,1.3v1.3h6.6V389
		c0-0.8-0.5-1.3-1.3-1.3H-285z"/>
	<path d="M-285,402.7c-0.4,0-0.7-0.3-0.7-0.7v-6c0-0.4,0.3-0.7,0.7-0.7s0.7,0.3,0.7,0.7v6C-284.3,402.4-284.6,402.7-285,402.7z"/>
	<path d="M-281,402.7c-0.4,0-0.7-0.3-0.7-0.7v-6c0-0.4,0.3-0.7,0.7-0.7s0.7,0.3,0.7,0.7v6C-280.3,402.4-280.6,402.7-281,402.7z"/>
</g>
</svg>
