<?xml version="1.0" encoding="utf-8"?>
<!-- Generator: Adobe Illustrator 19.0.0, SVG Export Plug-In . SVG Version: 6.00 Build 0)  -->
<svg version="1.1" id="Layer_1" xmlns="http://www.w3.org/2000/svg" xmlns:xlink="http://www.w3.org/1999/xlink" x="0px" y="0px"
	 viewBox="-248.5 249 16 16" style="enable-background:new -248.5 249 16 16;" xml:space="preserve">
<style type="text/css">
	.st0{opacity:0;}
	.st1{fill:#111111;}
</style>
<g>
	<g class="st0">
		<path d="M-233,249v0.5c0,0.3-0.2,0.5-0.5,0.5h-14c-0.3,0-0.5-0.2-0.5-0.5V249H-233z"/>
	</g>
	<g>
		<path class="st1" d="M-235.2,259.8l-4.9,4.9l-0.1,0.1c0,0.1-0.1,0.1-0.1,0.1h0c-0.1,0-0.1,0-0.2,0s-0.1,0-0.2,0h0
			c-0.1,0-0.1-0.1-0.1-0.1l-0.1-0.1l-4.9-4.9c-0.2-0.2-0.2-0.5,0-0.7c0.2-0.2,0.5-0.2,0.7,0l4.2,4.1v-9.8c0-0.3,0.2-0.5,0.5-0.5
			s0.5,0.2,0.5,0.5v9.8l4.2-4.1c0.2-0.2,0.5-0.2,0.7,0C-235,259.3-235,259.7-235.2,259.8z"/>
	</g>
	<g>
		<path class="st1" d="M-233,249.5c0,0.3-0.2,0.5-0.5,0.5h-14c-0.3,0-0.5-0.2-0.5-0.5s0.2-0.5,0.5-0.5h14
			C-233.2,249-233,249.2-233,249.5z"/>
	</g>
</g>
</svg>
