<?xml version="1.0" encoding="utf-8"?>
<!-- Generator: Adobe Illustrator 19.0.0, SVG Export Plug-In . SVG Version: 6.00 Build 0)  -->
<svg version="1.1" id="Layer_1" xmlns="http://www.w3.org/2000/svg" xmlns:xlink="http://www.w3.org/1999/xlink" x="0px" y="0px"
	 viewBox="-247 249 16 16" style="enable-background:new -247 249 16 16;" xml:space="preserve">
<g>
	<path d="M-232.5,251h-2.5v-1.5c0-0.3-0.2-0.5-0.5-0.5s-0.5,0.2-0.5,0.5v1.5h-6v-1.5c0-0.3-0.2-0.5-0.5-0.5s-0.5,0.2-0.5,0.5v1.5
		h-2.5c-0.8,0-1.5,0.7-1.5,1.5v11c0,0.8,0.7,1.5,1.5,1.5h5c0.3,0,0.5-0.2,0.5-0.5s-0.2-0.5-0.5-0.5h-5c-0.3,0-0.5-0.2-0.5-0.5V255
		h14.5c0.3,0,0.5-0.2,0.5-0.5v-2C-231,251.7-231.7,251-232.5,251z M-232,254h-14v-1.5c0-0.3,0.2-0.5,0.5-0.5h13
		c0.3,0,0.5,0.2,0.5,0.5V254z"/>
	<path d="M-235.5,256c-2.5,0-4.5,2-4.5,4.5s2,4.5,4.5,4.5s4.5-2,4.5-4.5S-233,256-235.5,256z M-235.5,264c-1.9,0-3.5-1.6-3.5-3.5
		s1.6-3.5,3.5-3.5s3.5,1.6,3.5,3.5S-233.6,264-235.5,264z"/>
	<path d="M-233,260.5c0,0.3-0.2,0.5-0.5,0.5h-1.5v1.5c0,0.3-0.2,0.5-0.5,0.5s-0.5-0.2-0.5-0.5V261h-1.5c-0.3,0-0.5-0.2-0.5-0.5
		s0.2-0.5,0.5-0.5h1.5v-1.5c0-0.3,0.2-0.5,0.5-0.5s0.5,0.2,0.5,0.5v1.5h1.5C-233.2,260-233,260.2-233,260.5z"/>
</g>
</svg>
