<?xml version="1.0" encoding="utf-8"?>
<!-- Generator: Adobe Illustrator 19.0.0, SVG Export Plug-In . SVG Version: 6.00 Build 0)  -->
<svg version="1.1" id="Layer_1" xmlns="http://www.w3.org/2000/svg" xmlns:xlink="http://www.w3.org/1999/xlink" x="0px" y="0px"
	 viewBox="-247 249 16 16" style="enable-background:new -247 249 16 16;" xml:space="preserve">
<style type="text/css">
	.st0{opacity:0;}
	.st1{fill:#111111;}
</style>
<g class="st0">
	<path class="st1" d="M-235,253.7l-7.3,7.3c1,0.6,2,1,3.3,1c3.6,0,6.3-4,6.9-5C-232.4,256.4-233.5,254.9-235,253.7z M-239,260.5
		c-0.3,0-0.5-0.2-0.5-0.5s0.2-0.5,0.5-0.5c1.4,0,2.5-1.1,2.5-2.5c0-0.3,0.2-0.5,0.5-0.5s0.5,0.2,0.5,0.5
		C-235.5,258.9-237.1,260.5-239,260.5z"/>
</g>
<g>
	<path class="st1" d="M-231.1,256.8c-0.1-0.1-1.2-2.2-3.2-3.8l2.6-2.6c0.1-0.1,0.2-0.2,0.2-0.3s0-0.3-0.2-0.3
		c-0.2-0.2-0.5-0.2-0.7,0l-0.4,0.3l-2.3,2.3c-1.1-0.8-2.5-1.3-4-1.3c-4.7,0-7.8,5.5-7.9,5.8c0,0.1-0.1,0.2-0.1,0.2s0,0.2,0.1,0.2
		c0.1,0.1,1.2,2.2,3.2,3.8l-2.6,2.6c-0.1,0.1-0.2,0.2-0.2,0.3s0,0.3,0.2,0.3c0.1,0.1,0.2,0.2,0.3,0.2s0.3,0,0.3-0.2l0.4-0.3l2.3-2.3
		c1.1,0.8,2.5,1.3,4,1.3c4.7,0,7.8-5.5,7.9-5.8c0-0.1,0.1-0.2,0.1-0.2S-231,256.8-231.1,256.8z M-243,260.3
		c-1.5-1.2-2.5-2.8-2.9-3.3c0.6-1,3.3-5,6.9-5c1.2,0,2.3,0.4,3.3,1L-243,260.3z M-239,262c-1.2,0-2.3-0.4-3.3-1l7.3-7.3
		c1.5,1.2,2.5,2.8,2.9,3.3C-232.7,258-235.4,262-239,262z"/>
</g>
<g>
	<path class="st1" d="M-238.5,254c0,0.3-0.2,0.5-0.5,0.5c-1.4,0-2.5,1.1-2.5,2.5c0,0.3-0.2,0.5-0.5,0.5s-0.5-0.2-0.5-0.5
		c0-1.9,1.6-3.5,3.5-3.5C-238.7,253.5-238.5,253.7-238.5,254z"/>
</g>
<g>
	<path class="st1" d="M-235.5,257c0,1.9-1.6,3.5-3.5,3.5c-0.3,0-0.5-0.2-0.5-0.5s0.2-0.5,0.5-0.5c1.4,0,2.5-1.1,2.5-2.5
		c0-0.3,0.2-0.5,0.5-0.5S-235.5,256.7-235.5,257z"/>
</g>
</svg>
