<?xml version="1.0" encoding="utf-8"?>
<!-- Generator: Adobe Illustrator 19.0.0, SVG Export Plug-In . SVG Version: 6.00 Build 0)  -->
<svg version="1.1" id="Layer_1" xmlns="http://www.w3.org/2000/svg" xmlns:xlink="http://www.w3.org/1999/xlink" x="0px" y="0px"
	 viewBox="0 0 16 16" style="enable-background:new 0 0 16 16;" xml:space="preserve">
<style type="text/css">
	.st0{fill:#386FFF;}
</style>
<g>
	<path class="st0" d="M15.9,7.7C15.5,7.1,12.5,2,8,2C3.2,2,0.1,7.7,0.1,7.8c0,0,0,0.1-0.1,0.1L0,8v0c0,0.2,0.1,0.3,0.1,0.3
		C0.5,8.9,3.4,14,8,14c4.8,0,7.9-5.8,7.9-5.8c0,0,0-0.1,0-0.1L16,8v0C16,7.8,15.9,7.7,15.9,7.7z M14.5,8c-0.4,0.7-3.1,4.7-6.5,4.7
		c-3.4,0-5.9-3.8-6.5-4.7C2.1,7.1,4.6,3.3,8,3.3C11.4,3.3,14.1,7.3,14.5,8z"/>
	<path class="st0" d="M4.9,8c0,1.8,1.3,3.1,3.1,3.1s3.1-1.3,3.1-3.1S9.8,4.9,8,4.9S4.9,6.2,4.9,8z M8,9.8C7,9.8,6.2,9,6.2,8
		S7,6.2,8,6.2S9.8,7,9.8,8S9,9.8,8,9.8z"/>
</g>
</svg>
