<?xml version="1.0" encoding="utf-8"?>
<!-- Generator: Adobe Illustrator 19.0.0, SVG Export Plug-In . SVG Version: 6.00 Build 0)  -->
<svg version="1.1" id="Layer_1" xmlns="http://www.w3.org/2000/svg" xmlns:xlink="http://www.w3.org/1999/xlink" x="0px" y="0px"
	 viewBox="-247 249 16 16" style="enable-background:new -247 249 16 16;" xml:space="preserve">
<style type="text/css">
	.st0{fill:#111111;}
</style>
<path class="st0" d="M-234.1,261.8C-234.1,261.8-234.1,261.8-234.1,261.8c-0.1,0.1-0.1,0.1-0.1,0.1
	C-234.2,261.9-234.1,261.8-234.1,261.8z"/>
<path class="st0" d="M-232.5,249h-13c-0.8,0-1.5,0.7-1.5,1.5v13c0,0.8,0.7,1.5,1.5,1.5h13c0.8,0,1.5-0.7,1.5-1.5v-13
	C-231,249.7-231.7,249-232.5,249z M-232,263.5c0,0.3-0.2,0.5-0.5,0.5h-13c-0.3,0-0.5-0.2-0.5-0.5v-13c0-0.3,0.2-0.5,0.5-0.5h13
	c0.3,0,0.5,0.2,0.5,0.5V263.5z"/>
<path class="st0" d="M-234,257.5v4c0,0.1,0,0.1,0,0.2v0c0,0,0,0.1-0.1,0.1c0,0,0,0-0.1,0.1c0,0,0,0.1-0.1,0.1c0,0-0.1,0-0.1,0.1h0
	c-0.1,0-0.1,0-0.2,0h-4c-0.3,0-0.5-0.2-0.5-0.5s0.2-0.5,0.5-0.5h2.8l-3.1-3.2c-0.2-0.2-0.2-0.5,0-0.7c0.2-0.2,0.5-0.2,0.7,0l3.2,3.1
	v-2.8c0-0.3,0.2-0.5,0.5-0.5S-234,257.2-234,257.5z"/>
<rect x="-244" y="252" class="st0" width="4" height="4"/>
</svg>
