<?xml version="1.0" encoding="utf-8"?>
<!-- Generator: Adobe Illustrator 19.0.0, SVG Export Plug-In . SVG Version: 6.00 Build 0)  -->
<svg version="1.1" id="Layer_1" xmlns="http://www.w3.org/2000/svg" xmlns:xlink="http://www.w3.org/1999/xlink" x="0px" y="0px"
	 viewBox="-105 262.8 402.4 273.7" style="enable-background:new -105 262.8 402.4 273.7;" xml:space="preserve">
<style type="text/css">
	.st0{fill:#C0C0C0;}
	.st1{fill:#C2D3DC;}
	.st2{fill:#FEFEFE;}
	.st3{fill:#D7E1E6;}
	.st4{fill:#FFFFFF;filter:url(#Adobe_OpacityMaskFilter);}
	.st5{mask:url(#mask0);}
	.st6{clip-path:url(#SVGID_2_);fill:#F1F1F2;}
	.st7{clip-path:url(#SVGID_2_);fill:#F0F0F1;}
	.st8{clip-path:url(#SVGID_2_);fill:#EFEFF0;}
	.st9{clip-path:url(#SVGID_2_);fill:#EEEEEF;}
	.st10{clip-path:url(#SVGID_2_);fill:#EDEDEE;}
	.st11{clip-path:url(#SVGID_2_);fill:#ECECED;}
	.st12{clip-path:url(#SVGID_2_);fill:#EBEBEC;}
	.st13{clip-path:url(#SVGID_2_);fill:#EAEAEB;}
	.st14{clip-path:url(#SVGID_2_);fill:#E9E9EA;}
	.st15{clip-path:url(#SVGID_2_);fill:#E8E8E9;}
	.st16{clip-path:url(#SVGID_2_);fill:#E7E7E8;}
	.st17{clip-path:url(#SVGID_2_);fill:#E6E6E8;}
	.st18{clip-path:url(#SVGID_2_);fill:#E5E5E7;}
	.st19{clip-path:url(#SVGID_2_);fill:#E4E4E6;}
	.st20{clip-path:url(#SVGID_2_);fill:#E3E3E5;}
	.st21{clip-path:url(#SVGID_2_);fill:#E2E2E4;}
	.st22{clip-path:url(#SVGID_2_);fill:#E1E1E3;}
	.st23{clip-path:url(#SVGID_2_);fill:#E0E0E2;}
	.st24{clip-path:url(#SVGID_2_);fill:#DFDFE1;}
	.st25{clip-path:url(#SVGID_2_);fill:#DEDEE0;}
	.st26{clip-path:url(#SVGID_2_);fill:#DDDDDF;}
	.st27{clip-path:url(#SVGID_2_);fill:#DCDDDE;}
	.st28{clip-path:url(#SVGID_2_);fill:#DADCDD;}
	.st29{clip-path:url(#SVGID_2_);fill:#D9DBDC;}
	.st30{clip-path:url(#SVGID_2_);fill:#D8DADB;}
	.st31{clip-path:url(#SVGID_2_);fill:#D7D9DA;}
	.st32{clip-path:url(#SVGID_2_);fill:#D6D8D9;}
	.st33{clip-path:url(#SVGID_2_);fill:#D5D7D8;}
	.st34{clip-path:url(#SVGID_2_);fill:#D4D6D7;}
	.st35{clip-path:url(#SVGID_2_);fill:#D3D5D6;}
	.st36{clip-path:url(#SVGID_2_);fill:#D2D4D5;}
	.st37{clip-path:url(#SVGID_2_);fill:#D1D3D4;}
	.st38{clip-path:url(#SVGID_2_);fill:#D0D2D4;}
	.st39{clip-path:url(#SVGID_2_);fill:#CFD1D3;}
	.st40{clip-path:url(#SVGID_2_);fill:#CED0D2;}
	.st41{clip-path:url(#SVGID_2_);fill:#CDCFD1;}
	.st42{clip-path:url(#SVGID_2_);fill:#CCCED0;}
	.st43{clip-path:url(#SVGID_2_);fill:#CBCDCF;}
	.st44{clip-path:url(#SVGID_2_);fill:#CACCCE;}
	.st45{clip-path:url(#SVGID_2_);fill:#C9CBCD;}
	.st46{clip-path:url(#SVGID_2_);fill:#C8CACC;}
	.st47{clip-path:url(#SVGID_2_);fill:#C7C9CB;}
	.st48{clip-path:url(#SVGID_2_);fill:#C6C8CA;}
	.st49{fill:#F89C1C;}
	.st50{fill:#C8C8C8;}
	.st51{fill:#FFFFFF;filter:url(#Adobe_OpacityMaskFilter_1_);}
	.st52{mask:url(#mask1);}
	.st53{clip-path:url(#SVGID_4_);fill:#F1F1F2;}
	.st54{clip-path:url(#SVGID_4_);fill:#F0F0F1;}
	.st55{clip-path:url(#SVGID_4_);fill:#EFEFF0;}
	.st56{clip-path:url(#SVGID_4_);fill:#EEEEEF;}
	.st57{clip-path:url(#SVGID_4_);fill:#EDEDEE;}
	.st58{clip-path:url(#SVGID_4_);fill:#ECECED;}
	.st59{clip-path:url(#SVGID_4_);fill:#EBEBEC;}
	.st60{clip-path:url(#SVGID_4_);fill:#EAEAEB;}
	.st61{clip-path:url(#SVGID_4_);fill:#E9E9EA;}
	.st62{clip-path:url(#SVGID_4_);fill:#E8E8E9;}
	.st63{clip-path:url(#SVGID_4_);fill:#E7E7E8;}
	.st64{clip-path:url(#SVGID_4_);fill:#E6E6E8;}
	.st65{clip-path:url(#SVGID_4_);fill:#E5E5E7;}
	.st66{clip-path:url(#SVGID_4_);fill:#E4E4E6;}
	.st67{clip-path:url(#SVGID_4_);fill:#E3E3E5;}
	.st68{clip-path:url(#SVGID_4_);fill:#E2E2E4;}
	.st69{clip-path:url(#SVGID_4_);fill:#E1E1E3;}
	.st70{clip-path:url(#SVGID_4_);fill:#E0E0E2;}
	.st71{clip-path:url(#SVGID_4_);fill:#DFDFE1;}
	.st72{clip-path:url(#SVGID_4_);fill:#DEDEE0;}
	.st73{clip-path:url(#SVGID_4_);fill:#DDDDDF;}
	.st74{clip-path:url(#SVGID_4_);fill:#DCDDDE;}
	.st75{clip-path:url(#SVGID_4_);fill:#DADCDD;}
	.st76{clip-path:url(#SVGID_4_);fill:#D9DBDC;}
	.st77{clip-path:url(#SVGID_4_);fill:#D8DADB;}
	.st78{clip-path:url(#SVGID_4_);fill:#D7D9DA;}
	.st79{clip-path:url(#SVGID_4_);fill:#D6D8D9;}
	.st80{clip-path:url(#SVGID_4_);fill:#D5D7D8;}
	.st81{clip-path:url(#SVGID_4_);fill:#D4D6D7;}
	.st82{clip-path:url(#SVGID_4_);fill:#D3D5D6;}
	.st83{clip-path:url(#SVGID_4_);fill:#D2D4D5;}
	.st84{clip-path:url(#SVGID_4_);fill:#D1D3D4;}
	.st85{clip-path:url(#SVGID_4_);fill:#D0D2D4;}
	.st86{clip-path:url(#SVGID_4_);fill:#CFD1D3;}
	.st87{clip-path:url(#SVGID_4_);fill:#CED0D2;}
	.st88{clip-path:url(#SVGID_4_);fill:#CDCFD1;}
	.st89{clip-path:url(#SVGID_4_);fill:#CCCED0;}
	.st90{clip-path:url(#SVGID_4_);fill:#CBCDCF;}
	.st91{clip-path:url(#SVGID_4_);fill:#CACCCE;}
	.st92{clip-path:url(#SVGID_4_);fill:#C9CBCD;}
	.st93{clip-path:url(#SVGID_4_);fill:#C8CACC;}
	.st94{clip-path:url(#SVGID_4_);fill:#C7C9CB;}
	.st95{clip-path:url(#SVGID_4_);fill:#C6C8CA;}
	.st96{fill:#FFFFFF;filter:url(#Adobe_OpacityMaskFilter_2_);}
	.st97{mask:url(#mask2);}
	.st98{fill:#F26F21;}
	.st99{fill:#FFFFFF;filter:url(#Adobe_OpacityMaskFilter_3_);}
	.st100{mask:url(#mask3);}
	.st101{fill:#C85C19;}
	.st102{fill:#FFFFFF;filter:url(#Adobe_OpacityMaskFilter_4_);}
	.st103{mask:url(#mask4);}
	.st104{fill:#FFFFFF;filter:url(#Adobe_OpacityMaskFilter_5_);}
	.st105{mask:url(#mask5);}
	.st106{fill:#FFFFFF;filter:url(#Adobe_OpacityMaskFilter_6_);}
	.st107{mask:url(#mask6);}
	.st108{fill:#003E5A;}
	.st109{fill:#FFFFFF;filter:url(#Adobe_OpacityMaskFilter_7_);}
	.st110{mask:url(#mask7);}
	.st111{fill:#FFFFFF;filter:url(#Adobe_OpacityMaskFilter_8_);}
	.st112{mask:url(#mask8);}
	.st113{fill:#FFFFFF;filter:url(#Adobe_OpacityMaskFilter_9_);}
	.st114{mask:url(#mask9);}
	.st115{fill:#FFFFFF;filter:url(#Adobe_OpacityMaskFilter_10_);}
	.st116{mask:url(#mask10);}
	.st117{fill:#FFFFFF;filter:url(#Adobe_OpacityMaskFilter_11_);}
	.st118{mask:url(#mask11);}
	.st119{fill:#FFFFFF;filter:url(#Adobe_OpacityMaskFilter_12_);}
	.st120{mask:url(#mask12);}
	.st121{fill:#FFFFFF;filter:url(#Adobe_OpacityMaskFilter_13_);}
	.st122{mask:url(#mask13);}
	.st123{fill:#FFFFFF;filter:url(#Adobe_OpacityMaskFilter_14_);}
	.st124{mask:url(#mask14);}
	.st125{fill:#FFFFFF;filter:url(#Adobe_OpacityMaskFilter_15_);}
	.st126{mask:url(#mask15);}
	.st127{fill:#FFFFFF;filter:url(#Adobe_OpacityMaskFilter_16_);}
	.st128{mask:url(#mask16);}
	.st129{fill:#223128;}
	.st130{fill:#FFFFFF;filter:url(#Adobe_OpacityMaskFilter_17_);}
	.st131{mask:url(#mask17);}
	.st132{fill:#FFFFFF;filter:url(#Adobe_OpacityMaskFilter_18_);}
	.st133{mask:url(#mask18);}
	.st134{fill:#FFFFFF;filter:url(#Adobe_OpacityMaskFilter_19_);}
	.st135{mask:url(#mask19);}
	.st136{fill:#FFFFFF;filter:url(#Adobe_OpacityMaskFilter_20_);}
	.st137{mask:url(#mask20);}
	.st138{fill:#FFFFFF;filter:url(#Adobe_OpacityMaskFilter_21_);}
	.st139{mask:url(#mask21);}
	.st140{fill:#FFFFFF;filter:url(#Adobe_OpacityMaskFilter_22_);}
	.st141{mask:url(#mask22);}
	.st142{fill:#FFFFFF;filter:url(#Adobe_OpacityMaskFilter_23_);}
	.st143{mask:url(#mask23);}
	.st144{fill:#FFFFFF;filter:url(#Adobe_OpacityMaskFilter_24_);}
	.st145{mask:url(#mask24);}
	.st146{fill:#FFFFFF;filter:url(#Adobe_OpacityMaskFilter_25_);}
	.st147{mask:url(#mask25);}
	.st148{fill:#FFFFFF;filter:url(#Adobe_OpacityMaskFilter_26_);}
	.st149{mask:url(#mask26);}
	.st150{fill:#FFFFFF;filter:url(#Adobe_OpacityMaskFilter_27_);}
	.st151{mask:url(#mask27);}
	.st152{fill:#EBEBEB;}
	.st153{fill:#D4D4D4;}
	.st154{fill:#FDFDFD;}
</style>
<g>
	<g>
		<g>
			<path class="st0" d="M294.6,530.6l-88.3-19.4c0,0-32.9,4.7-31.8,4.5c0,0,54.2,17,63.6,20.1c2.7,0.9,4.6,0.8,6,0.7L294.6,530.6z"
				/>
		</g>
	</g>
	<g>
		<path class="st1" d="M175.6,512l25.3-5c1-0.2,2.2-0.2,3.8,0.2l68.5,15c0.7,0.2,1,0.5,1,1.3l0.4,3.8c0.1,0.7-0.1,0.8-0.8,1l-31,5.9
			c-2.4,0.4-4,0.2-6.1-0.3l-62.4-18.2C172.4,515,173.8,512.4,175.6,512z"/>
	</g>
	<g>
		<path class="st2" d="M273.2,522.2l-68.5-15c-1.5-0.3-2.8-0.4-3.8-0.2l-25.3,5c-0.4,0.1-0.8,0.3-1.1,0.5c0.4,0.2,1,0.4,1.8,0.6
			l61.9,16.4c2.3,0.5,3.3,0.4,4.8,0.1l30.9-7C273.8,522.4,273.5,522.3,273.2,522.2z"/>
	</g>
	<g>
		<path class="st1" d="M230,395.6c20,19.1,34,80.4,12.7,123l-5.5,0.5l-1.5-5.8c10.3-23.7,22-77.6-8.2-116.5L230,395.6z"/>
	</g>
	<g>
		<path class="st3" d="M227.5,396.6c20,19.1,33.4,80.6,9.7,122.5l-26-6.1c23.6-41.8,10.2-98.8-9.8-117.9L227.5,396.6z"/>
	</g>
	<defs>
		<filter id="Adobe_OpacityMaskFilter" filterUnits="userSpaceOnUse" x="218.3" y="465.2" width="30.2" height="31.3">
			<feColorMatrix  type="matrix" values="1 0 0 0 0  0 1 0 0 0  0 0 1 0 0  0 0 0 1 0"/>
		</filter>
	</defs>
	<mask maskUnits="userSpaceOnUse" x="218.3" y="465.2" width="30.2" height="31.3" id="mask0">
		<path class="st4" d="M218.3,491.9l26.3,4.5c2.6-9.5,3.8-19.5,3.9-29.3l-26.1-2C222.1,474.1,220.8,483.1,218.3,491.9z"/>
	</mask>
	<g class="st5">
		<g>
			<g>
				<defs>
					<path id="SVGID_1_" d="M218.3,491.9l26.3,4.5c2.6-9.5,3.8-19.5,3.9-29.3l-26.1-2C222.1,474.1,220.8,483.1,218.3,491.9z"/>
				</defs>
				<clipPath id="SVGID_2_">
					<use xlink:href="#SVGID_1_"  style="overflow:visible;"/>
				</clipPath>
				<polygon class="st6" points="218.3,496.5 244.6,496.5 218.3,496.5 				"/>
				<polygon class="st6" points="218.3,495.8 248.5,495.8 248.5,496.5 244.7,496.5 218.3,496.5 				"/>
				<rect x="218.3" y="495" class="st7" width="30.2" height="0.7"/>
				<rect x="218.3" y="494.3" class="st8" width="30.2" height="0.7"/>
				<rect x="218.3" y="493.6" class="st9" width="30.2" height="0.7"/>
				<rect x="218.3" y="492.8" class="st10" width="30.2" height="0.7"/>
				<rect x="218.3" y="492.1" class="st11" width="30.2" height="0.7"/>
				<rect x="218.3" y="491.4" class="st12" width="30.2" height="0.7"/>
				<rect x="218.3" y="490.7" class="st13" width="30.2" height="0.7"/>
				<rect x="218.3" y="489.9" class="st14" width="30.2" height="0.7"/>
				<rect x="218.3" y="489.2" class="st15" width="30.2" height="0.7"/>
				<rect x="218.3" y="488.5" class="st16" width="30.2" height="0.7"/>
				<rect x="218.3" y="487.7" class="st17" width="30.2" height="0.7"/>
				<rect x="218.3" y="487" class="st18" width="30.2" height="0.7"/>
				<rect x="218.3" y="486.3" class="st19" width="30.2" height="0.7"/>
				<rect x="218.3" y="485.6" class="st20" width="30.2" height="0.7"/>
				<rect x="218.3" y="484.8" class="st21" width="30.2" height="0.7"/>
				<rect x="218.3" y="484.1" class="st22" width="30.2" height="0.7"/>
				<rect x="218.3" y="483.4" class="st23" width="30.2" height="0.7"/>
				<rect x="218.3" y="482.6" class="st24" width="30.2" height="0.7"/>
				<rect x="218.3" y="481.9" class="st25" width="30.2" height="0.7"/>
				<rect x="218.3" y="481.2" class="st26" width="30.2" height="0.7"/>
				<rect x="218.3" y="480.5" class="st27" width="30.2" height="0.7"/>
				<rect x="218.3" y="479.7" class="st28" width="30.2" height="0.7"/>
				<rect x="218.3" y="479" class="st29" width="30.2" height="0.7"/>
				<rect x="218.3" y="478.3" class="st30" width="30.2" height="0.7"/>
				<rect x="218.3" y="477.5" class="st31" width="30.2" height="0.7"/>
				<rect x="218.3" y="476.8" class="st32" width="30.2" height="0.7"/>
				<rect x="218.3" y="476.1" class="st33" width="30.2" height="0.7"/>
				<rect x="218.3" y="475.4" class="st34" width="30.2" height="0.7"/>
				<rect x="218.3" y="474.6" class="st35" width="30.2" height="0.7"/>
				<rect x="218.3" y="473.9" class="st36" width="30.2" height="0.7"/>
				<rect x="218.3" y="473.2" class="st37" width="30.2" height="0.7"/>
				<rect x="218.3" y="472.4" class="st38" width="30.2" height="0.7"/>
				<rect x="218.3" y="471.7" class="st39" width="30.2" height="0.7"/>
				<rect x="218.3" y="471" class="st40" width="30.2" height="0.7"/>
				<rect x="218.3" y="470.3" class="st41" width="30.2" height="0.7"/>
				<rect x="218.3" y="469.5" class="st42" width="30.2" height="0.7"/>
				<rect x="218.3" y="468.8" class="st43" width="30.2" height="0.7"/>
				<rect x="218.3" y="468.1" class="st44" width="30.2" height="0.7"/>
				<rect x="218.3" y="467.4" class="st45" width="30.2" height="0.7"/>
				<rect x="218.3" y="466.6" class="st46" width="30.2" height="0.7"/>
				<rect x="218.3" y="465.9" class="st47" width="30.2" height="0.7"/>
				<polygon class="st48" points="222.5,465.2 248.5,465.2 248.5,465.9 218.3,465.9 218.3,465.2 				"/>
				<polygon class="st48" points="248.5,465.2 222.5,465.2 248.5,465.2 				"/>
			</g>
		</g>
	</g>
	<g>
		<path class="st1" d="M255.7,484.4c6,0.1,9.5-2.2,9.7-7.3l7.4-188c0.1-2.2-0.8-4.2-2.7-5.1c-0.6-0.3-4.7-1.3-5.1-1.4l-0.2,1.8
			c1.4,0.2,2,1.7,1.9,4.5l-9.2,189.5c0,0-0.1,2.4-2.5,3.1C253.6,483,253.7,484.3,255.7,484.4z"/>
	</g>
	<g>
		<path class="st2" d="M261.1,476.2l7.3-188.3c0.2-3.8-2.7-7.1-8.4-4.6l-79.4,34c-2.4,1-3.2,1.3-3.4,4.7l-10.6,145.4
			c-0.2,3,1.6,4.1,3.9,4.4l83.4,12.5C259.7,484.9,260.9,481.5,261.1,476.2z"/>
	</g>
	<g>
		<path class="st49" d="M179.8,323l-8.5,128.9c-0.1,1.7,0.4,2.6,1.7,2.7l80.3,8.3c2.3,0.1,3-1,3.2-4l7.3-168.4
			c0.2-2.8-1.1-4-3.5-2.8l-78.9,33C180.3,321.1,179.9,321.7,179.8,323z"/>
	</g>
	<g>
		<path class="st1" d="M251.5,478.9c0.7,0.1,1.4-0.4,1.5-1.1c0.1-0.7-0.4-1.4-1.1-1.5l-4.1-0.6c-0.7-0.1-1.4,0.4-1.5,1.1
			c-0.1,0.7,0.4,1.4,1.1,1.5L251.5,478.9z"/>
	</g>
	<g>
		<path class="st1" d="M243.6,477.7c0.7,0.1,1.4-0.4,1.5-1.1c0.1-0.7-0.4-1.4-1.1-1.5l-4.1-0.6c-0.7-0.1-1.4,0.4-1.5,1.1
			c-0.1,0.7,0.4,1.4,1.1,1.5L243.6,477.7z"/>
	</g>
	<g>
		<path class="st50" d="M-105,530.6l89.2-19.4c0,0,33.2,4.7,32.1,4.5c0,0-54.7,17-64.2,20.1c-2.8,0.9-4.7,0.8-6,0.7L-105,530.6z"/>
	</g>
	<g>
		<path class="st1" d="M15.2,512l-25.6-5c-1-0.2-2.3-0.2-3.8,0.2l-69.2,15c-0.7,0.2-1,0.5-1.1,1.3l-0.4,3.8c-0.1,0.7,0.1,0.8,0.8,1
			l31.3,5.9c2.4,0.4,4,0.2,6.1-0.3l63-18.2C18.4,515,16.9,512.4,15.2,512z"/>
	</g>
	<g>
		<path class="st2" d="M-83.4,522.2l69.2-15c1.5-0.3,2.8-0.4,3.8-0.2l25.6,5c0.4,0.1,0.8,0.3,1.1,0.5c-0.4,0.2-1,0.4-1.9,0.6
			l-62.5,16.4c-2.3,0.5-3.3,0.4-4.8,0.1l-31.2-7C-84,522.4-83.7,522.3-83.4,522.2z"/>
	</g>
	<g>
		<path class="st1" d="M-39.8,395.6c-20.2,19.1-34.3,80.4-12.8,123l5.5,0.5l1.5-5.8c-10.4-23.7-22.2-77.7,8.3-116.5L-39.8,395.6z"/>
	</g>
	<g>
		<path class="st3" d="M-37.3,396.6c-20.2,19.1-33.7,80.6-9.8,122.5l26.2-6.1c-23.9-41.8-10.3-98.8,9.9-117.9L-37.3,396.6z"/>
	</g>
	<defs>
		<filter id="Adobe_OpacityMaskFilter_1_" filterUnits="userSpaceOnUse" x="-60.9" y="465.2" width="30.7" height="31.3">
			<feColorMatrix  type="matrix" values="1 0 0 0 0  0 1 0 0 0  0 0 1 0 0  0 0 0 1 0"/>
		</filter>
	</defs>
	<mask maskUnits="userSpaceOnUse" x="-60.9" y="465.2" width="30.7" height="31.3" id="mask1">
		<path class="st51" d="M-60.9,467.2c0.1,9.8,1.3,19.7,3.9,29.3l26.8-4.5c-2.6-8.8-3.9-17.8-4.2-26.8L-60.9,467.2z"/>
	</mask>
	<g class="st52">
		<g>
			<g>
				<defs>
					<path id="SVGID_3_" d="M-60.9,467.2c0.1,9.8,1.3,19.7,3.9,29.3l26.8-4.5c-2.6-8.8-3.9-17.8-4.2-26.8L-60.9,467.2z"/>
				</defs>
				<clipPath id="SVGID_4_">
					<use xlink:href="#SVGID_3_"  style="overflow:visible;"/>
				</clipPath>
				<polygon class="st53" points="-60.9,496.5 -56.9,496.5 -60.9,496.5 				"/>
				<polygon class="st53" points="-60.9,495.8 -30.2,495.8 -30.2,496.5 -56.9,496.5 -60.9,496.5 				"/>
				<rect x="-60.9" y="495" class="st54" width="30.7" height="0.7"/>
				<rect x="-60.9" y="494.3" class="st55" width="30.7" height="0.7"/>
				<rect x="-60.9" y="493.6" class="st56" width="30.7" height="0.7"/>
				<rect x="-60.9" y="492.8" class="st57" width="30.7" height="0.7"/>
				<rect x="-60.9" y="492.1" class="st58" width="30.7" height="0.7"/>
				<rect x="-60.9" y="491.4" class="st59" width="30.7" height="0.7"/>
				<rect x="-60.9" y="490.7" class="st60" width="30.7" height="0.7"/>
				<rect x="-60.9" y="489.9" class="st61" width="30.7" height="0.7"/>
				<rect x="-60.9" y="489.2" class="st62" width="30.7" height="0.7"/>
				<rect x="-60.9" y="488.5" class="st63" width="30.7" height="0.7"/>
				<rect x="-60.9" y="487.7" class="st64" width="30.7" height="0.7"/>
				<rect x="-60.9" y="487" class="st65" width="30.7" height="0.7"/>
				<rect x="-60.9" y="486.3" class="st66" width="30.7" height="0.7"/>
				<rect x="-60.9" y="485.6" class="st67" width="30.7" height="0.7"/>
				<rect x="-60.9" y="484.8" class="st68" width="30.7" height="0.7"/>
				<rect x="-60.9" y="484.1" class="st69" width="30.7" height="0.7"/>
				<rect x="-60.9" y="483.4" class="st70" width="30.7" height="0.7"/>
				<rect x="-60.9" y="482.6" class="st71" width="30.7" height="0.7"/>
				<rect x="-60.9" y="481.9" class="st72" width="30.7" height="0.7"/>
				<rect x="-60.9" y="481.2" class="st73" width="30.7" height="0.7"/>
				<rect x="-60.9" y="480.5" class="st74" width="30.7" height="0.7"/>
				<rect x="-60.9" y="479.7" class="st75" width="30.7" height="0.7"/>
				<rect x="-60.9" y="479" class="st76" width="30.7" height="0.7"/>
				<rect x="-60.9" y="478.3" class="st77" width="30.7" height="0.7"/>
				<rect x="-60.9" y="477.5" class="st78" width="30.7" height="0.7"/>
				<rect x="-60.9" y="476.8" class="st79" width="30.7" height="0.7"/>
				<rect x="-60.9" y="476.1" class="st80" width="30.7" height="0.7"/>
				<rect x="-60.9" y="475.4" class="st81" width="30.7" height="0.7"/>
				<rect x="-60.9" y="474.6" class="st82" width="30.7" height="0.7"/>
				<rect x="-60.9" y="473.9" class="st83" width="30.7" height="0.7"/>
				<rect x="-60.9" y="473.2" class="st84" width="30.7" height="0.7"/>
				<rect x="-60.9" y="472.4" class="st85" width="30.7" height="0.7"/>
				<rect x="-60.9" y="471.7" class="st86" width="30.7" height="0.7"/>
				<rect x="-60.9" y="471" class="st87" width="30.7" height="0.7"/>
				<rect x="-60.9" y="470.3" class="st88" width="30.7" height="0.7"/>
				<rect x="-60.9" y="469.5" class="st89" width="30.7" height="0.7"/>
				<rect x="-60.9" y="468.8" class="st90" width="30.7" height="0.7"/>
				<rect x="-60.9" y="468.1" class="st91" width="30.7" height="0.7"/>
				<rect x="-60.9" y="467.4" class="st92" width="30.7" height="0.7"/>
				<rect x="-60.9" y="466.6" class="st93" width="30.7" height="0.7"/>
				<rect x="-60.9" y="465.9" class="st94" width="30.7" height="0.7"/>
				<polygon class="st95" points="-34.4,465.2 -30.2,465.2 -30.2,465.9 -60.9,465.9 -60.9,465.2 				"/>
				<polygon class="st95" points="-30.2,465.2 -34.4,465.2 -30.2,465.2 				"/>
			</g>
		</g>
	</g>
	<g>
		<path class="st1" d="M-66.5,483.6c-6,0.1-9.5-2.2-9.7-7.3L-83.6,289c-0.1-2.2,0.8-4.2,2.7-5c0.6-0.3,4.8-1.3,5.1-1.4l0.2,1.8
			c-1.4,0.2-2,1.7-1.9,4.5l9.2,188.9c0,0,0.1,2.4,2.5,3.1C-64.4,482.2-64.5,483.6-66.5,483.6z"/>
	</g>
	<g>
		<path class="st2" d="M-71.9,475.5l-7.3-187.7c-0.2-3.8,2.7-7.1,8.4-4.6l79.6,33.8c2.4,1,3.2,1.3,3.4,4.7l10.7,144.9
			c0.2,3-1.6,4.1-3.9,4.4l-83.7,12.5C-70.6,484.1-71.8,480.7-71.9,475.5z"/>
	</g>
	<g>
		<path class="st49" d="M9.5,322.9L18,451.3c0.1,1.7-0.4,2.6-1.7,2.7l-80.5,8.2c-2.3,0.1-3-1-3.3-4l-7.3-167.8
			c-0.2-2.8,1.1-4,3.5-2.8l79.1,32.8C9,321,9.5,321.6,9.5,322.9z"/>
	</g>
	<g>
		<path class="st1" d="M6,469.5c-0.7,0.1-1.4-0.4-1.5-1.1c-0.1-0.7,0.4-1.4,1.1-1.5l4.1-0.6c0.7-0.1,1.4,0.4,1.5,1.1
			c0.1,0.7-0.4,1.4-1.1,1.5L6,469.5z"/>
	</g>
	<g>
		<path class="st1" d="M14,468.3c-0.7,0.1-1.4-0.4-1.5-1.1s0.4-1.4,1.1-1.5l4.1-0.6c0.7-0.1,1.4,0.4,1.5,1.1
			c0.1,0.7-0.4,1.4-1.1,1.5L14,468.3z"/>
	</g>
	<defs>
		<filter id="Adobe_OpacityMaskFilter_2_" filterUnits="userSpaceOnUse" x="81.2" y="378.8" width="17.5" height="11.3">
			<feColorMatrix  type="matrix" values="1 0 0 0 0  0 1 0 0 0  0 0 1 0 0  0 0 0 1 0"/>
		</filter>
	</defs>
	<mask maskUnits="userSpaceOnUse" x="81.2" y="378.8" width="17.5" height="11.3" id="mask2">
		<path class="st96" d="M214,257l-237.1,5l-2.8,43.4l-42.5-17.9c-2.3-1.2-3.7-0.1-3.5,2.8l7.3,168.5c0.3,3.1,0.9,4.2,3.2,4l79.8-8.3
			c1.3-0.1,1.8-1,1.7-2.7l-3.5-53.6l31.8,11.5l110.7-4.5l16.4-7.4l-3.5,54c-0.1,1.7,0.4,2.6,1.7,2.7l79.8,8.3c2.3,0.1,3-1,3.2-4
			l7.3-168.5c0.2-2.8-1.1-4-3.5-2.8l-38.2,16.1L214,257z"/>
	</mask>
	<g class="st97">
		<g>
			<path class="st98" d="M96.5,386.7c-2,0.9-2.2,5.2-12.6,2.3c-1-1.7-3.6-5.6-2.4-8.2c1.2-2.5,10.1-2.4,13.5-1.7l3.8,0.6v5.3
				L96.5,386.7z"/>
		</g>
	</g>
	<defs>
		<filter id="Adobe_OpacityMaskFilter_3_" filterUnits="userSpaceOnUse" x="82.1" y="378.8" width="6.5" height="3.1">
			<feColorMatrix  type="matrix" values="1 0 0 0 0  0 1 0 0 0  0 0 1 0 0  0 0 0 1 0"/>
		</filter>
	</defs>
	<mask maskUnits="userSpaceOnUse" x="82.1" y="378.8" width="6.5" height="3.1" id="mask3">
		<path class="st99" d="M214,257l-237.1,5l-2.8,43.4l-42.5-17.9c-2.3-1.2-3.7-0.1-3.5,2.8l7.3,168.5c0.3,3.1,0.9,4.2,3.2,4l79.8-8.3
			c1.3-0.1,1.8-1,1.7-2.7l-3.5-53.6l31.8,11.5l110.7-4.5l16.4-7.4l-3.5,54c-0.1,1.7,0.4,2.6,1.7,2.7l79.8,8.3c2.3,0.1,3-1,3.2-4
			l7.3-168.5c0.2-2.8-1.1-4-3.5-2.8l-38.2,16.1"/>
	</mask>
	<g class="st100">
		<g>
			<path class="st101" d="M84.4,381.3c1.6-0.9,3.9-1.8,4.2-2.5c-0.7,0.1-2.1,0.2-2.1,0.2s-4,1.6-4.3,2.5
				C81.8,382.3,83.1,381.7,84.4,381.3z"/>
		</g>
	</g>
	<defs>
		<filter id="Adobe_OpacityMaskFilter_4_" filterUnits="userSpaceOnUse" x="82.2" y="382.3" width="10.1" height="7.7">
			<feColorMatrix  type="matrix" values="1 0 0 0 0  0 1 0 0 0  0 0 1 0 0  0 0 0 1 0"/>
		</filter>
	</defs>
	<mask maskUnits="userSpaceOnUse" x="82.2" y="382.3" width="10.1" height="7.7" id="mask4">
		<path class="st102" d="M214,257l-237.1,5l-2.8,43.4l-42.5-17.9c-2.3-1.2-3.7-0.1-3.5,2.8l7.3,168.5c0.3,3.1,0.9,4.2,3.2,4
			l79.8-8.3c1.3-0.1,1.8-1,1.7-2.7l-3.5-53.6l31.8,11.5l110.7-4.5l16.4-7.4l-3.5,54c-0.1,1.7,0.4,2.6,1.7,2.7l79.8,8.3
			c2.3,0.1,3-1,3.2-4l7.3-168.5c0.2-2.8-1.1-4-3.5-2.8l-38.2,16.1"/>
	</mask>
	<g class="st103">
		<g>
			<path class="st101" d="M83,382.5c0.9-0.1,1.6-0.5,2.9,0.4c1.3,0.9,4.7,1.1,5.4,1.3c0.6,0.2,2.1,3.4-0.4,5.7
				c-1.1,0.2-4.3,0.2-6.5-0.6c-1.1-1.9-2.2-6.1-2.2-6.6C82.3,382.3,83,382.5,83,382.5z"/>
		</g>
	</g>
	<defs>
		<filter id="Adobe_OpacityMaskFilter_5_" filterUnits="userSpaceOnUse" x="72.2" y="375.9" width="19.9" height="14.8">
			<feColorMatrix  type="matrix" values="1 0 0 0 0  0 1 0 0 0  0 0 1 0 0  0 0 0 1 0"/>
		</filter>
	</defs>
	<mask maskUnits="userSpaceOnUse" x="72.2" y="375.9" width="19.9" height="14.8" id="mask5">
		<path class="st104" d="M214,257l-237.1,5l-2.8,43.4l-42.5-17.9c-2.3-1.2-3.7-0.1-3.5,2.8l7.3,168.5c0.3,3.1,0.9,4.2,3.2,4
			l79.8-8.3c1.3-0.1,1.8-1,1.7-2.7l-3.5-53.6l31.8,11.5l110.7-4.5l16.4-7.4l-3.5,54c-0.1,1.7,0.4,2.6,1.7,2.7l79.8,8.3
			c2.3,0.1,3-1,3.2-4l7.3-168.5c0.2-2.8-1.1-4-3.5-2.8l-38.2,16.1L214,257z"/>
	</mask>
	<g class="st105">
		<g>
			<path class="st98" d="M75.6,379.9c2.8-0.5,11.4-6.2,12.5-3.1c0.4,1.5-4.1,2.6-5.6,4.7c0.1,1.4,5.6,3.6,8.6,3.2
				c1.3,0.6,1.6,3.8-0.5,5.4c-2.1,1.5-11.7,0.6-15.7-3.7l-2.7-0.7l0.4-5.5L75.6,379.9z"/>
		</g>
	</g>
	<defs>
		<filter id="Adobe_OpacityMaskFilter_6_" filterUnits="userSpaceOnUse" x="95" y="329.7" width="85.4" height="57">
			<feColorMatrix  type="matrix" values="1 0 0 0 0  0 1 0 0 0  0 0 1 0 0  0 0 0 1 0"/>
		</filter>
	</defs>
	<mask maskUnits="userSpaceOnUse" x="95" y="329.7" width="85.4" height="57" id="mask6">
		<path class="st106" d="M214,257l-237.1,5l-2.8,43.4l-42.5-17.9c-2.3-1.2-3.7-0.1-3.5,2.8l7.3,168.5c0.3,3.1,0.9,4.2,3.2,4
			l79.8-8.3c1.3-0.1,1.8-1,1.7-2.7l-3.5-53.6l31.8,11.5l110.7-4.5l16.4-7.4l-3.5,54c-0.1,1.7,0.4,2.6,1.7,2.7l79.8,8.3
			c2.3,0.1,3-1,3.2-4l7.3-168.5c0.2-2.8-1.1-4-3.5-2.8l-38.2,16.1L214,257z"/>
	</mask>
	<g class="st107">
		<g>
			<path class="st108" d="M180.4,340.4c-3.2,23.5-35.7,42.7-84,46.3l-1.5-7.5c21.9-3,60.8-15,73.9-49.5L180.4,340.4z"/>
		</g>
	</g>
	<defs>
		<filter id="Adobe_OpacityMaskFilter_7_" filterUnits="userSpaceOnUse" x="158.1" y="273.4" width="53.1" height="56.9">
			<feColorMatrix  type="matrix" values="1 0 0 0 0  0 1 0 0 0  0 0 1 0 0  0 0 0 1 0"/>
		</filter>
	</defs>
	<mask maskUnits="userSpaceOnUse" x="158.1" y="273.4" width="53.1" height="56.9" id="mask7">
		<path class="st109" d="M214,257l-237.1,5l-2.8,43.4l-42.5-17.9c-2.3-1.2-3.7-0.1-3.5,2.8l7.3,168.5c0.3,3.1,0.9,4.2,3.2,4
			l79.8-8.3c1.3-0.1,1.8-1,1.7-2.7l-3.5-53.6l31.8,11.5l110.7-4.5l16.4-7.4l-3.5,54c-0.1,1.7,0.4,2.6,1.7,2.7l79.8,8.3
			c2.3,0.1,3-1,3.2-4l7.3-168.5c0.2-2.8-1.1-4-3.5-2.8l-38.2,16.1L214,257z"/>
	</mask>
	<g class="st110">
		<g>
			<path class="st98" d="M175.5,284.1l-17.4,16.3l13-0.4l-3,30.3l43.1-1.5l-10.9-55.4l-22.9,0.8L175.5,284.1z"/>
		</g>
	</g>
	<defs>
		<filter id="Adobe_OpacityMaskFilter_8_" filterUnits="userSpaceOnUse" x="166" y="322.6" width="66.4" height="115.3">
			<feColorMatrix  type="matrix" values="1 0 0 0 0  0 1 0 0 0  0 0 1 0 0  0 0 0 1 0"/>
		</filter>
	</defs>
	<mask maskUnits="userSpaceOnUse" x="166" y="322.6" width="66.4" height="115.3" id="mask8">
		<path class="st111" d="M214,257l-237.1,5l-2.8,43.4l-42.5-17.9c-2.3-1.2-3.7-0.1-3.5,2.8l7.3,168.5c0.3,3.1,0.9,4.2,3.2,4
			l79.8-8.3c1.3-0.1,1.8-1,1.7-2.7l-3.5-53.6l31.8,11.5l110.7-4.5l16.4-7.4l-3.5,54c-0.1,1.7,0.4,2.6,1.7,2.7l79.8,8.3
			c2.3,0.1,3-1,3.2-4l7.3-168.5c0.2-2.8-1.1-4-3.5-2.8l-38.2,16.1L214,257z"/>
	</mask>
	<g class="st112">
		<g>
			<path class="st108" d="M168.2,330.3c-7.6,21.3,5.7,72.6,24.5,107.7l39.8-7.2C224,392,216.7,349.4,210,322.6L168.2,330.3z"/>
		</g>
	</g>
	<defs>
		<filter id="Adobe_OpacityMaskFilter_9_" filterUnits="userSpaceOnUse" x="209" y="422.1" width="23.3" height="101.6">
			<feColorMatrix  type="matrix" values="1 0 0 0 0  0 1 0 0 0  0 0 1 0 0  0 0 0 1 0"/>
		</filter>
	</defs>
	<mask maskUnits="userSpaceOnUse" x="209" y="422.1" width="23.3" height="101.6" id="mask9">
		<path class="st113" d="M214,257l-237.1,5l-2.8,43.4l-42.5-17.9c-2.3-1.2-3.7-0.1-3.5,2.8l7.3,168.5c0.3,3.1,0.9,4.2,3.2,4
			l79.8-8.3c1.3-0.1,1.8-1,1.7-2.7l-3.5-53.6l31.8,11.5l110.7-4.5l16.4-7.4l-3.5,54c-0.1,1.7,0.4,2.6,1.7,2.7l79.8,8.3
			c2.3,0.1,3-1,3.2-4l7.3-168.5c0.2-2.8-1.1-4-3.5-2.8l-38.2,16.1L214,257z"/>
	</mask>
	<g class="st114">
		<g>
			<path class="st108" d="M232.3,430.5l-3.5,93.1H209l11.2-10.4l-9.9-78.9l12.1-12.3L232.3,430.5z"/>
		</g>
	</g>
	<defs>
		<filter id="Adobe_OpacityMaskFilter_10_" filterUnits="userSpaceOnUse" x="189.7" y="422.1" width="22.9" height="101.6">
			<feColorMatrix  type="matrix" values="1 0 0 0 0  0 1 0 0 0  0 0 1 0 0  0 0 0 1 0"/>
		</filter>
	</defs>
	<mask maskUnits="userSpaceOnUse" x="189.7" y="422.1" width="22.9" height="101.6" id="mask10">
		<path class="st115" d="M214,257l-237.1,5l-2.8,43.4l-42.5-17.9c-2.3-1.2-3.7-0.1-3.5,2.8l7.3,168.5c0.3,3.1,0.9,4.2,3.2,4
			l79.8-8.3c1.3-0.1,1.8-1,1.7-2.7l-3.5-53.6l31.8,11.5l110.7-4.5l16.4-7.4l-3.5,54c-0.1,1.7,0.4,2.6,1.7,2.7l79.8,8.3
			c2.3,0.1,3-1,3.2-4l7.3-168.5c0.2-2.8-1.1-4-3.5-2.8l-38.2,16.1L214,257z"/>
	</mask>
	<g class="st116">
		<g>
			<path class="st108" d="M212.6,434.9l-3.1,88.8h-19.8l11.2-10.4l-9.9-78.9l12.1-12.3L212.6,434.9z"/>
		</g>
	</g>
	<defs>
		<filter id="Adobe_OpacityMaskFilter_11_" filterUnits="userSpaceOnUse" x="171.8" y="330" width="25.8" height="82.2">
			<feColorMatrix  type="matrix" values="1 0 0 0 0  0 1 0 0 0  0 0 1 0 0  0 0 0 1 0"/>
		</filter>
	</defs>
	<mask maskUnits="userSpaceOnUse" x="171.8" y="330" width="25.8" height="82.2" id="mask11">
		<path class="st117" d="M214,257l-237.1,5l-2.8,43.4l-42.5-17.9c-2.3-1.2-3.7-0.1-3.5,2.8l7.3,168.5c0.3,3.1,0.9,4.2,3.2,4
			l79.8-8.3c1.3-0.1,1.8-1,1.7-2.7l-3.5-53.6l31.8,11.5l110.7-4.5l16.4-7.4l-3.5,54c-0.1,1.7,0.4,2.6,1.7,2.7l79.8,8.3
			c2.3,0.1,3-1,3.2-4l7.3-168.5c0.2-2.8-1.1-4-3.5-2.8l-38.2,16.1L214,257z"/>
	</mask>
	<g class="st118">
		<g>
			<path class="st2" d="M171.8,332.4L185,330l-4.6,10l17.1,59.1l-7.2,13.2l-8.8-8l-5.8-62.5L171.8,332.4z"/>
		</g>
	</g>
	<defs>
		<filter id="Adobe_OpacityMaskFilter_12_" filterUnits="userSpaceOnUse" x="206.4" y="323.1" width="48.5" height="87.6">
			<feColorMatrix  type="matrix" values="1 0 0 0 0  0 1 0 0 0  0 0 1 0 0  0 0 0 1 0"/>
		</filter>
	</defs>
	<mask maskUnits="userSpaceOnUse" x="206.4" y="323.1" width="48.5" height="87.6" id="mask12">
		<path class="st119" d="M214,257l-237.1,5l-2.8,43.4l-42.5-17.9c-2.3-1.2-3.7-0.1-3.5,2.8l7.3,168.5c0.3,3.1,0.9,4.2,3.2,4
			l79.8-8.3c1.3-0.1,1.8-1,1.7-2.7l-3.5-53.6l31.8,11.5l110.7-4.5l16.4-7.4l-3.5,54c-0.1,1.7,0.4,2.6,1.7,2.7l79.8,8.3
			c2.3,0.1,3-1,3.2-4l7.3-168.5c0.2-2.8-1.1-4-3.5-2.8l-38.2,16.1L214,257z"/>
	</mask>
	<g class="st120">
		<g>
			<path class="st108" d="M210.2,323.1c18.1,2.5,41.8,37.9,44.7,86.3l-7.5,1.3c-2.4-21.9-11.3-59.7-40.9-67.7L210.2,323.1z"/>
		</g>
	</g>
	<defs>
		<filter id="Adobe_OpacityMaskFilter_13_" filterUnits="userSpaceOnUse" x="242.9" y="412" width="23.1" height="12.5">
			<feColorMatrix  type="matrix" values="1 0 0 0 0  0 1 0 0 0  0 0 1 0 0  0 0 0 1 0"/>
		</filter>
	</defs>
	<mask maskUnits="userSpaceOnUse" x="242.9" y="412" width="23.1" height="12.5" id="mask13">
		<path class="st121" d="M214,257l-237.1,5l-2.8,43.4l-42.5-17.9c-2.3-1.2-3.7-0.1-3.5,2.8l7.3,168.5c0.3,3.1,0.9,4.2,3.2,4
			l79.8-8.3c1.3-0.1,1.8-1,1.7-2.7l-3.5-53.6l31.8,11.5l110.7-4.5l16.4-7.4l-3.5,54c-0.1,1.7,0.4,2.6,1.7,2.7l79.8,8.3
			c2.3,0.1,3-1,3.2-4l7.3-168.5c0.2-2.8-1.1-4-3.5-2.8l-38.2,16.1L214,257z"/>
	</mask>
	<g class="st122">
		<g>
			<path class="st2" d="M266,420.6l-3.2,0.6l-0.9-5.1c-0.1-0.3-0.9-1-1.4-0.9l-13.3,2.3c-0.5,0.1-1.1,1-1,1.3l0.9,5.1l-3.2,0.6
				l-0.9-5.1c-0.4-2.1,1.4-4.6,3.7-5L260,412c2.2-0.4,4.8,1.3,5.1,3.5L266,420.6z"/>
		</g>
	</g>
	<defs>
		<filter id="Adobe_OpacityMaskFilter_14_" filterUnits="userSpaceOnUse" x="220.6" y="416.1" width="76.8" height="66.1">
			<feColorMatrix  type="matrix" values="1 0 0 0 0  0 1 0 0 0  0 0 1 0 0  0 0 0 1 0"/>
		</filter>
	</defs>
	<mask maskUnits="userSpaceOnUse" x="220.6" y="416.1" width="76.8" height="66.1" id="mask14">
		<path class="st123" d="M214,257l-237.1,5l-2.8,43.4l-42.5-17.9c-2.3-1.2-3.7-0.1-3.5,2.8l7.3,168.5c0.3,3.1,0.9,4.2,3.2,4
			l79.8-8.3c1.3-0.1,1.8-1,1.7-2.7l-3.5-53.6l31.8,11.5l110.7-4.5l16.4-7.4l-3.5,54c-0.1,1.7,0.4,2.6,1.7,2.7l79.8,8.3
			c2.3,0.1,3-1,3.2-4l7.3-168.5c0.2-2.8-1.1-4-3.5-2.8l-38.2,16.1L214,257z"/>
	</mask>
	<g class="st124">
		<g>
			<path class="st2" d="M297.4,470.4l-67.4,11.7l-9.4-54.4l67.4-11.7L297.4,470.4z"/>
		</g>
	</g>
	<defs>
		<filter id="Adobe_OpacityMaskFilter_15_" filterUnits="userSpaceOnUse" x="244.1" y="408.7" width="15.4" height="12.3">
			<feColorMatrix  type="matrix" values="1 0 0 0 0  0 1 0 0 0  0 0 1 0 0  0 0 0 1 0"/>
		</filter>
	</defs>
	<mask maskUnits="userSpaceOnUse" x="244.1" y="408.7" width="15.4" height="12.3" id="mask15">
		<path class="st125" d="M214,257l-237.1,5l-2.8,43.4l-42.5-17.9c-2.3-1.2-3.7-0.1-3.5,2.8l7.3,168.5c0.3,3.1,0.9,4.2,3.2,4
			l79.8-8.3c1.3-0.1,1.8-1,1.7-2.7l-3.5-53.6l31.8,11.5l110.7-4.5l16.4-7.4l-3.5,54c-0.1,1.7,0.4,2.6,1.7,2.7l79.8,8.3
			c2.3,0.1,3-1,3.2-4l7.3-168.5c0.2-2.8-1.1-4-3.5-2.8l-38.2,16.1L214,257z"/>
	</mask>
	<g class="st126">
		<g>
			<path class="st98" d="M248.7,409.7c-1.7,1.2-5.6,3.2-4.5,5.3s2.1,0.7,4.9-0.9c0.5,2.5-0.8,7.5,3.6,6.8c4.4-0.8,5.6-1,5.6-1
				c2.6-2,0-8.7-3.6-11.3L248.7,409.7z"/>
		</g>
	</g>
	<defs>
		<filter id="Adobe_OpacityMaskFilter_16_" filterUnits="userSpaceOnUse" x="177.9" y="290.8" width="9.9" height="6.2">
			<feColorMatrix  type="matrix" values="1 0 0 0 0  0 1 0 0 0  0 0 1 0 0  0 0 0 1 0"/>
		</filter>
	</defs>
	<mask maskUnits="userSpaceOnUse" x="177.9" y="290.8" width="9.9" height="6.2" id="mask16">
		<path class="st127" d="M214,257l-237.1,5l-2.8,43.4l-42.5-17.9c-2.3-1.2-3.7-0.1-3.5,2.8l7.3,168.5c0.3,3.1,0.9,4.2,3.2,4
			l79.8-8.3c1.3-0.1,1.8-1,1.7-2.7l-3.5-53.6l31.8,11.5l110.7-4.5l16.4-7.4l-3.5,54c-0.1,1.7,0.4,2.6,1.7,2.7l79.8,8.3
			c2.3,0.1,3-1,3.2-4l7.3-168.5c0.2-2.8-1.1-4-3.5-2.8l-38.2,16.1"/>
	</mask>
	<g class="st128">
		<g>
			<path class="st129" d="M183,297c-0.3,0-0.5,0-0.7,0c-2.4-0.3-4.6-2.7-4.3-6.1l1.1,0.1c-0.3,2.8,1.5,4.7,3.4,5
				c1.6,0.2,3.6-0.8,4.3-4.3l1.1,0.2C187,295.5,184.8,296.9,183,297z"/>
		</g>
	</g>
	<defs>
		<filter id="Adobe_OpacityMaskFilter_17_" filterUnits="userSpaceOnUse" x="175.8" y="312.1" width="14.8" height="9.6">
			<feColorMatrix  type="matrix" values="1 0 0 0 0  0 1 0 0 0  0 0 1 0 0  0 0 0 1 0"/>
		</filter>
	</defs>
	<mask maskUnits="userSpaceOnUse" x="175.8" y="312.1" width="14.8" height="9.6" id="mask17">
		<path class="st130" d="M214,257l-237.1,5l-2.8,43.4l-42.5-17.9c-2.3-1.2-3.7-0.1-3.5,2.8l7.3,168.5c0.3,3.1,0.9,4.2,3.2,4
			l79.8-8.3c1.3-0.1,1.8-1,1.7-2.7l-3.5-53.6l31.8,11.5l110.7-4.5l16.4-7.4l-3.5,54c-0.1,1.7,0.4,2.6,1.7,2.7l79.8,8.3
			c2.3,0.1,3-1,3.2-4l7.3-168.5c0.2-2.8-1.1-4-3.5-2.8l-38.2,16.1"/>
	</mask>
	<g class="st131">
		<g>
			<path class="st129" d="M175.9,321.8l0-1.1c5-0.2,11.3-3.2,13.8-8.6l1,0.4C188,318.4,181.2,321.6,175.9,321.8z"/>
		</g>
	</g>
	<defs>
		<filter id="Adobe_OpacityMaskFilter_18_" filterUnits="userSpaceOnUse" x="167.5" y="271.5" width="38.9" height="34.1">
			<feColorMatrix  type="matrix" values="1 0 0 0 0  0 1 0 0 0  0 0 1 0 0  0 0 0 1 0"/>
		</filter>
	</defs>
	<mask maskUnits="userSpaceOnUse" x="167.5" y="271.5" width="38.9" height="34.1" id="mask18">
		<path class="st132" d="M214,257l-237.1,5l-2.8,43.4l-42.5-17.9c-2.3-1.2-3.7-0.1-3.5,2.8l7.3,168.5c0.3,3.1,0.9,4.2,3.2,4
			l79.8-8.3c1.3-0.1,1.8-1,1.7-2.7l-3.5-53.6l31.8,11.5l110.7-4.5l16.4-7.4l-3.5,54c-0.1,1.7,0.4,2.6,1.7,2.7l79.8,8.3
			c2.3,0.1,3-1,3.2-4l7.3-168.5c0.2-2.8-1.1-4-3.5-2.8l-38.2,16.1"/>
	</mask>
	<g class="st133">
		<g>
			<path class="st108" d="M198.6,289.9c2.3-0.1,4.2,1.7,4.3,4c0,1.2-0.4,2.3-1.2,3l4.7,8.6l-4.3-34.1l-34.6,1.2l8,11.4l17.9-2
				l4.4,7.9C198.1,290,198.3,289.9,198.6,289.9z"/>
		</g>
	</g>
	<defs>
		<filter id="Adobe_OpacityMaskFilter_19_" filterUnits="userSpaceOnUse" x="78.3" y="385.6" width="11.4" height="5.2">
			<feColorMatrix  type="matrix" values="1 0 0 0 0  0 1 0 0 0  0 0 1 0 0  0 0 0 1 0"/>
		</filter>
	</defs>
	<mask maskUnits="userSpaceOnUse" x="78.3" y="385.6" width="11.4" height="5.2" id="mask19">
		<path class="st134" d="M214,257l-237.1,5l-2.8,43.4l-42.5-17.9c-2.3-1.2-3.7-0.1-3.5,2.8l7.3,168.5c0.3,3.1,0.9,4.2,3.2,4
			l79.8-8.3c1.3-0.1,1.8-1,1.7-2.7l-3.5-53.6l31.8,11.5l110.7-4.5l16.4-7.4l-3.5,54c-0.1,1.7,0.4,2.6,1.7,2.7l79.8,8.3
			c2.3,0.1,3-1,3.2-4l7.3-168.5c0.2-2.8-1.1-4-3.5-2.8l-38.2,16.1"/>
	</mask>
	<g class="st135">
		<g>
			<path class="st101" d="M89.4,390.5c0.1-0.1,0.1-0.1,0.2-0.2c-0.8-5-3.2-3.8-3.9-2c-0.5-2.5-2.4-2.5-3.2-0.4
				c-0.4-4.1-3.7-1.7-4.3,0.8C82.5,390.6,87.9,391.5,89.4,390.5z"/>
		</g>
	</g>
	<defs>
		<filter id="Adobe_OpacityMaskFilter_20_" filterUnits="userSpaceOnUse" x="78" y="386.5" width="3.8" height="4.5">
			<feColorMatrix  type="matrix" values="1 0 0 0 0  0 1 0 0 0  0 0 1 0 0  0 0 0 1 0"/>
		</filter>
	</defs>
	<mask maskUnits="userSpaceOnUse" x="78" y="386.5" width="3.8" height="4.5" id="mask20">
		<path class="st136" d="M214,257l-237.1,5l-2.8,43.4l-42.5-17.9c-2.3-1.2-3.7-0.1-3.5,2.8l7.3,168.5c0.3,3.1,0.9,4.2,3.2,4
			l79.8-8.3c1.3-0.1,1.8-1,1.7-2.7l-3.5-53.6l31.8,11.5l110.7-4.5l16.4-7.4l-3.5,54c-0.1,1.7,0.4,2.6,1.7,2.7l79.8,8.3
			c2.3,0.1,3-1,3.2-4l7.3-168.5c0.2-2.8-1.1-4-3.5-2.8l-38.2,16.1"/>
	</mask>
	<g class="st137">
		<g>
			<path class="st98" d="M78.1,388.9c0.9-2.1,2-2.7,2.9-2.4c0.9,0.3,1.1,2,0.6,3.7C81,391.8,77.4,390.8,78.1,388.9z"/>
		</g>
	</g>
	<defs>
		<filter id="Adobe_OpacityMaskFilter_21_" filterUnits="userSpaceOnUse" x="81.6" y="387.4" width="3.8" height="4.4">
			<feColorMatrix  type="matrix" values="1 0 0 0 0  0 1 0 0 0  0 0 1 0 0  0 0 0 1 0"/>
		</filter>
	</defs>
	<mask maskUnits="userSpaceOnUse" x="81.6" y="387.4" width="3.8" height="4.4" id="mask21">
		<path class="st138" d="M214,257l-237.1,5l-2.8,43.4l-42.5-17.9c-2.3-1.2-3.7-0.1-3.5,2.8l7.3,168.5c0.3,3.1,0.9,4.2,3.2,4
			l79.8-8.3c1.3-0.1,1.8-1,1.7-2.7l-3.5-53.6l31.8,11.5l110.7-4.5l16.4-7.4l-3.5,54c-0.1,1.7,0.4,2.6,1.7,2.7l79.8,8.3
			c2.3,0.1,3-1,3.2-4l7.3-168.5c0.2-2.8-1.1-4-3.5-2.8l-38.2,16.1"/>
	</mask>
	<g class="st139">
		<g>
			<path class="st98" d="M81.6,390.1c0.7-2.2,1.7-2.9,2.6-2.7c0.9,0.2,1.3,1.8,1.1,3.5C85,392.3,81.2,392,81.6,390.1z"/>
		</g>
	</g>
	<defs>
		<filter id="Adobe_OpacityMaskFilter_22_" filterUnits="userSpaceOnUse" x="85.3" y="387.5" width="3.7" height="4.6">
			<feColorMatrix  type="matrix" values="1 0 0 0 0  0 1 0 0 0  0 0 1 0 0  0 0 0 1 0"/>
		</filter>
	</defs>
	<mask maskUnits="userSpaceOnUse" x="85.3" y="387.5" width="3.7" height="4.6" id="mask22">
		<path class="st140" d="M214,257l-237.1,5l-2.8,43.4l-42.5-17.9c-2.3-1.2-3.7-0.1-3.5,2.8l7.3,168.5c0.3,3.1,0.9,4.2,3.2,4
			l79.8-8.3c1.3-0.1,1.8-1,1.7-2.7l-3.5-53.6l31.8,11.5l110.7-4.5l16.4-7.4l-3.5,54c-0.1,1.7,0.4,2.6,1.7,2.7l79.8,8.3
			c2.3,0.1,3-1,3.2-4l7.3-168.5c0.2-2.8-1.1-4-3.5-2.8l-38.2,16.1"/>
	</mask>
	<g class="st141">
		<g>
			<path class="st98" d="M85.3,390.9c0.2-2.3,1-3.4,1.9-3.3c0.9,0,1.7,1.4,1.8,3.1C89.1,392.3,85.3,392.8,85.3,390.9z"/>
		</g>
	</g>
	<defs>
		<filter id="Adobe_OpacityMaskFilter_23_" filterUnits="userSpaceOnUse" x="78.5" y="381.5" width="9.6" height="3.2">
			<feColorMatrix  type="matrix" values="1 0 0 0 0  0 1 0 0 0  0 0 1 0 0  0 0 0 1 0"/>
		</filter>
	</defs>
	<mask maskUnits="userSpaceOnUse" x="78.5" y="381.5" width="9.6" height="3.2" id="mask23">
		<path class="st142" d="M214,257l-237.1,5l-2.8,43.4l-42.5-17.9c-2.3-1.2-3.7-0.1-3.5,2.8l7.3,168.5c0.3,3.1,0.9,4.2,3.2,4
			l79.8-8.3c1.3-0.1,1.8-1,1.7-2.7l-3.5-53.6l31.8,11.5l110.7-4.5l16.4-7.4l-3.5,54c-0.1,1.7,0.4,2.6,1.7,2.7l79.8,8.3
			c2.3,0.1,3-1,3.2-4l7.3-168.5c0.2-2.8-1.1-4-3.5-2.8l-38.2,16.1"/>
	</mask>
	<g class="st143">
		<g>
			<path class="st101" d="M78.6,382c-0.1,0.1-0.6,3,2.3,2.7c1.2-0.1,6.2-0.8,7.2-0.9c-1.3-0.6-4-1.7-4.4-2.2
				C82.6,381.7,79.1,381,78.6,382z"/>
		</g>
	</g>
	<defs>
		<filter id="Adobe_OpacityMaskFilter_24_" filterUnits="userSpaceOnUse" x="78.6" y="377.9" width="14.3" height="5.9">
			<feColorMatrix  type="matrix" values="1 0 0 0 0  0 1 0 0 0  0 0 1 0 0  0 0 0 1 0"/>
		</filter>
	</defs>
	<mask maskUnits="userSpaceOnUse" x="78.6" y="377.9" width="14.3" height="5.9" id="mask24">
		<path class="st144" d="M214,257l-237.1,5l-2.8,43.4l-42.5-17.9c-2.3-1.2-3.7-0.1-3.5,2.8l7.3,168.5c0.3,3.1,0.9,4.2,3.2,4
			l79.8-8.3c1.3-0.1,1.8-1,1.7-2.7l-3.5-53.6l31.8,11.5l110.7-4.5l16.4-7.4l-3.5,54c-0.1,1.7,0.4,2.6,1.7,2.7l79.8,8.3
			c2.3,0.1,3-1,3.2-4l7.3-168.5c0.2-2.8-1.1-4-3.5-2.8l-38.2,16.1"/>
	</mask>
	<g class="st145">
		<g>
			<path class="st98" d="M85.3,378.6c-3.5,1-8.3,3-6.2,4.9c1.2,1.1,5.7-1.4,8.3-1c2.1,0.5,5.5-1.9,5.5-3.4
				C91.5,378.3,89.5,377.2,85.3,378.6z"/>
		</g>
	</g>
	<defs>
		<filter id="Adobe_OpacityMaskFilter_25_" filterUnits="userSpaceOnUse" x="-9.7" y="416.3" width="14.4" height="11.9">
			<feColorMatrix  type="matrix" values="1 0 0 0 0  0 1 0 0 0  0 0 1 0 0  0 0 0 1 0"/>
		</filter>
	</defs>
	<mask maskUnits="userSpaceOnUse" x="-9.7" y="416.3" width="14.4" height="11.9" id="mask25">
		<path class="st146" d="M214,257l-237.1,5l-2.8,43.4l-42.5-17.9c-2.3-1.2-3.7-0.1-3.5,2.8l7.3,168.5c0.3,3.1,0.9,4.2,3.2,4
			l79.8-8.3c1.3-0.1,1.8-1,1.7-2.7l-3.5-53.6l31.8,11.5l110.7-4.5l16.4-7.4l-3.5,54c-0.1,1.7,0.4,2.6,1.7,2.7l79.8,8.3
			c2.3,0.1,3-1,3.2-4l7.3-168.5c0.2-2.8-1.1-4-3.5-2.8l-38.2,16.1L214,257z"/>
	</mask>
	<g class="st147">
		<g>
			<path class="st98" d="M-0.9,416.3c1.8,0.9,6.1,4.1,5.5,5.1c-1.3,2-1.7,0.8-4.8-0.3c1.5,2,2.8,7.1-1.7,7.1h-6.6
				c-1.7-0.2-2-8,1.1-11.1L-0.9,416.3z"/>
		</g>
	</g>
	<defs>
		<filter id="Adobe_OpacityMaskFilter_26_" filterUnits="userSpaceOnUse" x="-15.1" y="422" width="22.5" height="9.5">
			<feColorMatrix  type="matrix" values="1 0 0 0 0  0 1 0 0 0  0 0 1 0 0  0 0 0 1 0"/>
		</filter>
	</defs>
	<mask maskUnits="userSpaceOnUse" x="-15.1" y="422" width="22.5" height="9.5" id="mask26">
		<path class="st148" d="M214,257l-237.1,5l-2.8,43.4l-42.5-17.9c-2.3-1.2-3.7-0.1-3.5,2.8l7.3,168.5c0.3,3.1,0.9,4.2,3.2,4
			l79.8-8.3c1.3-0.1,1.8-1,1.7-2.7l-3.5-53.6l31.8,11.5l110.7-4.5l16.4-7.4l-3.5,54c-0.1,1.7,0.4,2.6,1.7,2.7l79.8,8.3
			c2.3,0.1,3-1,3.2-4l7.3-168.5c0.2-2.8-1.1-4-3.5-2.8l-38.2,16.1L214,257z"/>
	</mask>
	<g class="st149">
		<g>
			<path class="st2" d="M7.3,431.5H4.1v-5.2c0-0.3-0.7-1.1-1.3-1.1h-13.5c-0.5,0-1.2,0.8-1.3,1.1v5.2h-3.2v-5.2
				c0-2.2,2.2-4.3,4.5-4.3H2.8c2.3,0,4.5,2.1,4.5,4.3V431.5z"/>
		</g>
	</g>
	<defs>
		<filter id="Adobe_OpacityMaskFilter_27_" filterUnits="userSpaceOnUse" x="-55.4" y="262.8" width="130.4" height="217.1">
			<feColorMatrix  type="matrix" values="1 0 0 0 0  0 1 0 0 0  0 0 1 0 0  0 0 0 1 0"/>
		</filter>
	</defs>
	<mask maskUnits="userSpaceOnUse" x="-55.4" y="262.8" width="130.4" height="217.1" id="mask27">
		<path class="st150" d="M214,257l-237.1,5l-2.8,43.4l-42.5-17.9c-2.3-1.2-3.7-0.1-3.5,2.8l7.3,168.5c0.3,3.1,0.9,4.2,3.2,4
			l79.8-8.3c1.3-0.1,1.8-1,1.7-2.7l-3.5-53.6l31.8,11.5l110.7-4.5l16.4-7.4l-3.5,54c-0.1,1.7,0.4,2.6,1.7,2.7l79.8,8.3
			c2.3,0.1,3-1,3.2-4l7.3-168.5c0.2-2.8-1.1-4-3.5-2.8l-38.2,16.1L214,257z"/>
	</mask>
	<g class="st151">
		<g>
			<path class="st2" d="M-52.6,480h68.4v-55.2h-68.4V480z"/>
		</g>
		<g>
			<path class="st98" d="M-8.6,428.1c-1.5,0-1.7-2.9-1.6-4c0-0.8,0.4-1.1,0.9-1.1h7.7c0.7,0,1.1,0.5,1.3,1.4
				c0.1,0.9,0.4,3.7-0.8,3.7L-8.6,428.1z"/>
		</g>
		<g>
			<path class="st108" d="M-0.6,416.4C-2.3,396,2.9,351.9,15,335.2c2.6-3.5-8.1-10.3-10.4-8.3c-12.1,11.6-16.1,64.5-12.4,90.5
				L-0.6,416.4z"/>
		</g>
		<g>
			<path class="st98" d="M15.5,328.6l6.4-25l9.5-0.8L18,270.9l-32.3-0.4l0.4,57.8L15.5,328.6z"/>
		</g>
		<g>
			<path class="st129" d="M6.8,293.8c-1.9,0-4.1-1.3-4.9-5.1l1-0.2c0.8,3.5,2.8,4.5,4.4,4.2c1.8-0.3,3.6-2.3,3.3-5l1.1-0.1
				c0.4,3.4-1.8,5.8-4.2,6.2C7.3,293.8,7,293.9,6.8,293.8z"/>
		</g>
		<g>
			<path class="st129" d="M14.4,318.5c-5.3-0.1-12.2-3.1-15-8.9l1-0.5c2.6,5.3,9,8.2,14,8.3L14.4,318.5z"/>
		</g>
		<g>
			<path class="st108" d="M-14.1,270.8v35.6l4.7,0.1l2.6-7.5c-2.3-0.7-4-2.9-3.9-5.5c0-3.1,2.6-5.6,5.7-5.6c0.7,0,1.3,0.1,1.9,0.4
				l2.4-7c7.6,2,21.6,3,22.1-8.8L-14.1,270.8z"/>
		</g>
		<g>
			<path class="st152" d="M15.6,328.6c0,0,5.2,57-14.2,127.7l-56.7,5.5c13.5-47.1,30.7-115.1,41.4-139.7L15.6,328.6z"/>
		</g>
		<g>
			<path class="st153" d="M-4.5,337.3c-7.1-12.3-19.4-1.9-12.2,10.2c6.5,11.4,17.2,20.2,32.1,26.8c0.5-5.3,0.8-10.3,0.9-14.8
				C8.3,353.6,1,346.3-4.5,337.3z"/>
		</g>
		<g>
			<path class="st152" d="M75,379.6l-1.1,18.2c-44-5.7-74.9-34.6-87.5-56.6c-7.3-12.1,5.1-22.5,12.2-10.2
				C15.7,358.7,50.6,374.5,75,379.6z"/>
		</g>
		<g>
			<path class="st154" d="M24.1,271.4c0,0-3.2,12-18.9,12c-15.6,0-3.9,38.4-3.9,38.4s4.2,12.9-9.7,26.5C-22.3,362-38,384.9-38,384.9
				l22.1-116L24.1,271.4z"/>
		</g>
		<g>
			<path class="st108" d="M-11.8,265.9l33,2.3c1.1,0.1,1.9,1,1.8,2.1l0,0c-0.1,1.1-1,1.9-2.1,1.8l-33-2.3c-1.1-0.1-1.9-1-1.8-2.1
				l0,0C-13.8,266.6-12.9,265.8-11.8,265.9z"/>
		</g>
		<g>
			<path class="st108" d="M-11.8,265.9l33,2.3c1.1,0.1,1.9,1,1.8,2.1l0,0c-0.1,1.1-1,1.9-2.1,1.8l-33-2.3c-1.1-0.1-1.9-1-1.8-2.1
				l0,0C-13.8,266.6-12.9,265.8-11.8,265.9z"/>
		</g>
		<g>
			<path class="st108" d="M-12.8,262.9l33,2.3c1.1,0.1,1.9,1,1.8,2.1l0,0c-0.1,1.1-1,1.9-2.1,1.8l-33-2.3c-1.1-0.1-1.9-1-1.8-2.1
				l0,0C-14.8,263.6-13.9,262.8-12.8,262.9z"/>
		</g>
	</g>
</g>
</svg>
