<?xml version="1.0" encoding="UTF-8" standalone="no"?>
<!DOCTYPE svg PUBLIC "-//W3C//DTD SVG 1.1//EN" "http://www.w3.org/Graphics/SVG/1.1/DTD/svg11.dtd">
<svg width="100%" height="100%" viewBox="0 0 140 140" version="1.1" xmlns="http://www.w3.org/2000/svg" xmlns:xlink="http://www.w3.org/1999/xlink" xml:space="preserve" xmlns:serif="http://www.serif.com/" style="fill-rule:evenodd;clip-rule:evenodd;stroke-linejoin:round;stroke-miterlimit:1.41421;">
    <path d="M70,140C108.66,140 140,108.66 140,70C140,31.34 108.66,0 70,0C31.34,0 0,31.34 0,70C0,108.66 31.34,140 70,140Z" style="fill:rgb(249,203,129);"/>
    <g>
        <path d="M92.506,10.026L26.143,10.026L26.143,140.025L105.774,140.025L105.774,23.302C105.774,15.976 99.826,10.026 92.506,10.026Z" style="fill:white;"/>
        <rect x="33.984" y="83.459" width="15.157" height="8.684" style="fill:rgb(204,203,202);"/>
        <rect x="52.828" y="83.459" width="45.103" height="8.684" style="fill:rgb(204,203,202);"/>
        <path d="M84.747,121.096L84.747,112.781L93.065,112.781L84.747,121.096Z" style="fill:rgb(71,79,89);"/>
        <path d="M93.065,121.096L93.065,112.781L84.747,112.781L93.065,121.096Z" style="fill:rgb(53,63,73);"/>
        <path d="M87.906,97.26C88.453,96.613 89.356,96.613 89.903,97.26L90.177,97.578C90.727,98.229 91.85,98.596 92.682,98.393L93.083,98.295C93.915,98.09 94.642,98.623 94.704,99.471L94.733,99.889C94.797,100.736 95.498,101.695 96.282,102.02L96.669,102.176C97.456,102.498 97.735,103.355 97.289,104.078L97.068,104.436C96.623,105.16 96.623,106.344 97.068,107.068L97.289,107.424C97.735,108.146 97.456,109.002 96.669,109.328L96.282,109.484C95.498,109.805 94.797,110.762 94.733,111.617L94.704,112.029C94.642,112.881 93.915,113.408 93.083,113.207L92.682,113.107C91.85,112.904 90.727,113.273 90.177,113.922L89.903,114.24C89.356,114.889 88.453,114.889 87.906,114.24L87.634,113.922C87.085,113.273 85.955,112.904 85.129,113.107L84.726,113.207C83.896,113.408 83.168,112.881 83.107,112.029L83.073,111.617C83.012,110.762 82.313,109.805 81.526,109.484L81.142,109.328C80.353,109.002 80.077,108.146 80.52,107.424L80.74,107.068C81.187,106.344 81.187,105.16 80.74,104.436L80.52,104.078C80.077,103.355 80.353,102.498 81.139,102.176L81.526,102.02C82.313,101.695 83.012,100.736 83.073,99.889L83.107,99.471C83.168,98.623 83.896,98.09 84.726,98.295L85.129,98.393C85.955,98.596 87.085,98.229 87.634,97.578L87.906,97.26Z" style="fill:rgb(255,145,110);"/>
        <path d="M94.701,105.746C94.701,108.949 92.108,111.547 88.907,111.547C85.7,111.547 83.107,108.949 83.107,105.746C83.107,102.543 85.7,99.953 88.907,99.953C92.108,99.953 94.701,102.543 94.701,105.746Z" style="fill:rgb(238,100,60);"/>
        <rect x="52.828" y="98.459" width="16.542" height="1.836" style="fill:rgb(71,79,89);"/>
        <path d="M26.143,10.027C18.807,10.027 12.874,15.976 12.874,23.3L79.228,23.3C79.228,15.976 85.164,10.027 92.501,10.027L26.143,10.027Z" style="fill:rgb(204,203,202);"/>
        <rect x="33.984" y="47.006" width="63.947" height="3.243" style="fill:rgb(255,145,110);"/>
        <rect x="33.984" y="53.002" width="63.947" height="1.836" style="fill:rgb(204,203,202);"/>
        <rect x="33.984" y="57.588" width="63.947" height="1.835" style="fill:rgb(204,203,202);"/>
        <rect x="33.984" y="62.176" width="63.947" height="1.832" style="fill:rgb(204,203,202);"/>
        <rect x="33.984" y="66.762" width="63.947" height="1.834" style="fill:rgb(204,203,202);"/>
        <rect x="33.984" y="71.35" width="63.947" height="1.836" style="fill:rgb(204,203,202);"/>
        <rect x="33.984" y="75.933" width="31.974" height="1.838" style="fill:rgb(204,203,202);"/>
        <rect x="33.984" y="32.466" width="18.844" height="11.79" style="fill:rgb(71,79,89);"/>
        <rect x="55.578" y="32.466" width="42.353" height="1.835" style="fill:rgb(204,203,202);"/>
        <rect x="55.578" y="37.052" width="21.161" height="1.835" style="fill:rgb(204,203,202);"/>
    </g>
    <path d="M21.564,129.777C16.148,129.777 11.76,125.387 11.76,119.973C11.76,114.557 16.148,110.168 21.564,110.168C26.977,110.168 31.37,114.557 31.37,119.973C31.37,125.387 26.977,129.777 21.564,129.777ZM21.564,107.07C14.439,107.07 8.663,112.844 8.663,119.973C8.663,127.094 14.439,132.869 21.564,132.869C28.69,132.869 34.468,127.094 34.468,119.973C34.468,112.844 28.69,107.07 21.564,107.07Z" style="fill:rgb(53,63,73);"/>
    <path d="M52.561,129.777C47.149,129.777 42.755,125.387 42.755,119.973C42.755,114.557 47.149,110.168 52.561,110.168C57.973,110.168 62.361,114.557 62.361,119.973C62.361,125.387 57.973,129.777 52.561,129.777ZM52.561,107.07C45.433,107.07 39.66,112.844 39.66,119.973C39.66,127.094 45.433,132.869 52.561,132.869C59.689,132.869 65.46,127.094 65.46,119.973C65.46,112.844 59.689,107.07 52.561,107.07Z" style="fill:rgb(53,63,73);"/>
    <path d="M56.903,126.5C56.054,126.5 55.355,125.809 55.355,124.947C55.355,122.955 54.576,121.072 53.168,119.656C51.751,118.25 49.873,117.467 47.874,117.467L26.251,117.467C24.252,117.467 22.37,118.25 20.96,119.656C19.547,121.072 18.771,122.955 18.771,124.947C18.771,125.809 18.073,126.5 17.225,126.5C16.366,126.5 15.67,125.809 15.67,124.947C15.67,122.127 16.773,119.471 18.771,117.467C20.773,115.471 23.427,114.373 26.251,114.373L47.874,114.373C50.698,114.373 53.356,115.471 55.352,117.467C57.352,119.471 58.454,122.127 58.454,124.947C58.454,125.809 57.761,126.5 56.903,126.5Z" style="fill:rgb(53,63,73);"/>
    <path d="M66.58,114.373L7.548,114.373C6.69,114.373 6,115.066 6,115.92C6,116.772 6.69,117.467 7.548,117.467L66.58,117.467C67.437,117.467 68.125,116.772 68.125,115.92C68.125,115.066 67.437,114.373 66.58,114.373Z" style="fill:rgb(53,63,73);"/>
    <rect x="21.564" y="107.07" width="30.997" height="3.098" style="fill:rgb(53,63,73);"/>
    <path d="M29.807,125.284C28.545,124.249 27.323,123.168 26.143,122.042L26.143,117.467L31.046,117.467C31.257,118.267 31.37,119.107 31.37,119.973C31.37,121.93 30.796,123.753 29.807,125.284ZM29.614,114.373L26.143,114.373L26.143,111.301C27.53,112.035 28.721,113.093 29.614,114.373Z" style="fill:white;"/>
    <path d="M21.564,129.777C16.148,129.777 11.76,125.387 11.76,119.973C11.76,125.387 16.148,129.777 21.564,129.777C25.02,129.777 28.06,127.987 29.807,125.284C30.796,123.753 31.37,121.93 31.37,119.973C31.37,125.387 26.977,129.777 21.564,129.777Z" style="fill:rgb(95,110,125);"/>
    <path d="M17.225,126.5C16.366,126.5 15.67,125.809 15.67,124.947C15.67,122.127 16.773,119.471 18.771,117.467L26.251,117.467C26.215,117.467 26.179,117.467 26.143,117.467C24.889,117.485 23.684,117.811 22.615,118.406C22.015,118.74 21.458,119.159 20.96,119.656C19.547,121.072 18.771,122.955 18.771,124.947C18.771,125.809 18.073,126.5 17.225,126.5Z" style="fill:rgb(95,110,125);"/>
    <path d="M31.046,117.467L12.083,117.467C12.379,116.344 12.869,115.3 13.515,114.373L29.614,114.373C30.26,115.3 30.75,116.344 31.046,117.467Z" style="fill:rgb(95,110,125);"/>
    <path d="M52.561,129.777C47.149,129.777 42.755,125.387 42.755,119.973C42.755,119.107 42.868,118.267 43.079,117.467L47.874,117.467C49.873,117.467 51.751,118.25 53.168,119.656C54.576,121.072 55.355,122.955 55.355,124.947C55.355,125.809 56.054,126.5 56.903,126.5C57.761,126.5 58.454,125.809 58.454,124.947C58.454,122.127 57.352,119.471 55.352,117.467L62.038,117.467C62.249,118.267 62.361,119.107 62.361,119.973C62.361,125.387 57.973,129.777 52.561,129.777ZM60.607,114.373L44.511,114.373C46.284,111.831 49.229,110.168 52.561,110.168C55.893,110.168 58.836,111.831 60.607,114.373Z" style="fill:white;"/>
    <path d="M56.903,126.5C56.054,126.5 55.355,125.809 55.355,124.947C55.355,122.955 54.576,121.072 53.168,119.656C51.751,118.25 49.873,117.467 47.874,117.467L55.352,117.467C57.352,119.471 58.454,122.127 58.454,124.947C58.454,125.809 57.761,126.5 56.903,126.5Z" style="fill:rgb(95,110,125);"/>
    <path d="M62.038,117.467L43.079,117.467C43.375,116.344 43.865,115.3 44.511,114.373L60.607,114.373C61.253,115.3 61.743,116.344 62.038,117.467Z" style="fill:rgb(95,110,125);"/>
    <path d="M122.61,72.481L119.878,63.5L117.143,72.481L122.61,72.481Z" style="fill:white;"/>
    <path d="M119.878,63.5L122.61,72.481L120.892,72.481L119.878,63.5Z" style="fill:rgb(204,203,202);"/>
    <rect x="117.143" y="72.481" width="5.467" height="59.894" style="fill:rgb(71,79,89);"/>
    <rect x="120.892" y="72.481" width="1.718" height="59.894" style="fill:rgb(35,46,56);"/>
    <path d="M120.946,67.014L119.878,63.5L118.802,67.014L120.946,67.014Z" style="fill:rgb(53,63,73);"/>
    <path d="M120.946,67.014L119.878,63.5L120.274,67.014L120.946,67.014Z" style="fill:rgb(35,46,56);"/>
    <rect x="117.143" y="132.375" width="5.467" height="3.172" style="fill:white;"/>
    <rect x="120.892" y="132.375" width="1.718" height="3.172" style="fill:rgb(204,203,202);"/>
    <path d="M122.61,137.266C122.61,137.965 122.343,138.666 121.809,139.199C121.275,139.732 120.576,140 119.876,140C119.178,140 118.476,139.732 117.943,139.199C117.41,138.666 117.143,137.965 117.143,137.266L117.143,135.547L122.61,135.547L122.61,137.266Z" style="fill:rgb(255,145,110);"/>
    <path d="M120.892,135.547C120.892,136.246 120.623,136.947 120.091,137.48C119.556,138.014 118.857,138.281 118.158,138.281C117.864,138.281 117.576,138.223 117.293,138.131C117.424,138.52 117.634,138.889 117.943,139.199C118.476,139.732 119.178,140 119.876,140C120.576,140 121.275,139.732 121.809,139.199C122.343,138.666 122.61,137.965 122.61,137.266L122.61,135.547L120.892,135.547Z" style="fill:rgb(238,100,60);"/>
</svg>
