<?xml version="1.0" encoding="utf-8"?>
<!-- Generator: Adobe Illustrator 19.0.0, SVG Export Plug-In . SVG Version: 6.00 Build 0)  -->
<svg version="1.1" id="Layer_1" xmlns="http://www.w3.org/2000/svg" xmlns:xlink="http://www.w3.org/1999/xlink" x="0px" y="0px"
	 viewBox="-283 380 45 34" style="enable-background:new -283 380 45 34;" xml:space="preserve">
<style type="text/css">
	.st0{opacity:0.2;fill:#005146;enable-background:new    ;}
	.st1{fill:#005146;}
</style>
<path class="st0" d="M-255,380c-9.4,0-17,7.6-17,17c0,9.4,7.6,17,17,17s17-7.6,17-17C-238,387.6-245.6,380-255,380z"/>
<path class="st1" d="M-254.3,390.2c-0.3-0.3-0.7-0.3-1.1-0.1c-0.4,0.2-0.6,0.5-0.6,0.9v4h-26c-0.6,0-1,0.4-1,1v2c0,0.6,0.4,1,1,1h26
	v4c0,0.4,0.2,0.7,0.6,0.9c0.1,0.1,0.3,0.1,0.4,0.1c0.2,0,0.5-0.1,0.7-0.2l7-6c0.2-0.2,0.3-0.5,0.3-0.8s-0.1-0.6-0.3-0.8
	L-254.3,390.2z"/>
</svg>
