<?xml version="1.0" encoding="utf-8"?>
<!-- Generator: Adobe Illustrator 16.0.0, SVG Export Plug-In . SVG Version: 6.00 Build 0)  -->
<!DOCTYPE svg PUBLIC "-//W3C//DTD SVG 1.1//EN" "http://www.w3.org/Graphics/SVG/1.1/DTD/svg11.dtd">
<svg version="1.1" id="Layer_1" xmlns="http://www.w3.org/2000/svg" xmlns:xlink="http://www.w3.org/1999/xlink" x="0px" y="0px"
	 width="46px" height="38px" viewBox="0 0 46 38" enable-background="new 0 0 46 38" xml:space="preserve">
<g>
	<g>
		<defs>
			<path id="SVGID_1_" d="M33,4c-1.656,0-3-1.343-3-3c0-0.552-0.447-1-1-1H17c-0.552,0-1,0.448-1,1c0,1.657-1.343,3-3,3
				s-3-1.343-3-3c0-0.552-0.448-1-1-1H1.998C0.895,0,0,0.902,0,2.003v33.994C0,37.104,0.898,38,2.006,38h41.988
				C45.102,38,46,37.098,46,35.997V2.003C46,0.896,45.104,0,44.002,0H37c-0.553,0-1,0.448-1,1C36,2.657,34.656,4,33,4z"/>
		</defs>
		<clipPath id="SVGID_2_">
			<use xlink:href="#SVGID_1_"  overflow="visible"/>
		</clipPath>
		<g clip-path="url(#SVGID_2_)">
			<defs>
				<rect id="SVGID_3_" x="-303" y="-327" width="1440" height="1024"/>
			</defs>
			<clipPath id="SVGID_4_">
				<use xlink:href="#SVGID_3_"  overflow="visible"/>
			</clipPath>
			<rect x="-5" y="-5" opacity="0.4" clip-path="url(#SVGID_4_)" fill="#E6DEFD" width="56" height="48"/>
		</g>
	</g>
	<g>
		<defs>
			<path id="SVGID_5_" d="M26,14c0-0.552,0.449-1,1.007-1h11.986C39.549,13,40,13.444,40,14c0,0.552-0.449,1-1.007,1H27.007
				C26.451,15,26,14.556,26,14z"/>
		</defs>
		<clipPath id="SVGID_6_">
			<use xlink:href="#SVGID_5_"  overflow="visible"/>
		</clipPath>
		<g clip-path="url(#SVGID_6_)">
			<defs>
				<rect id="SVGID_7_" x="-303" y="-327" width="1440" height="1024"/>
			</defs>
			<clipPath id="SVGID_8_">
				<use xlink:href="#SVGID_7_"  overflow="visible"/>
			</clipPath>
			<rect x="21" y="8" clip-path="url(#SVGID_8_)" fill="#794CF6" width="24" height="12"/>
		</g>
	</g>
	<g>
		<defs>
			<path id="SVGID_9_" d="M26,20c0-0.552,0.449-1,1.007-1h11.986C39.549,19,40,19.444,40,20c0,0.553-0.449,1-1.007,1H27.007
				C26.451,21,26,20.557,26,20z"/>
		</defs>
		<clipPath id="SVGID_10_">
			<use xlink:href="#SVGID_9_"  overflow="visible"/>
		</clipPath>
		<g clip-path="url(#SVGID_10_)">
			<defs>
				<rect id="SVGID_11_" x="-303" y="-327" width="1440" height="1024"/>
			</defs>
			<clipPath id="SVGID_12_">
				<use xlink:href="#SVGID_11_"  overflow="visible"/>
			</clipPath>
			<rect x="21" y="14" clip-path="url(#SVGID_12_)" fill="#794CF6" width="24" height="12"/>
		</g>
	</g>
	<g>
		<defs>
			<path id="SVGID_13_" d="M26,26c0-0.553,0.453-1,0.997-1h6.006C33.554,25,34,25.443,34,26c0,0.553-0.453,1-0.997,1h-6.006
				C26.446,27,26,26.557,26,26z"/>
		</defs>
		<clipPath id="SVGID_14_">
			<use xlink:href="#SVGID_13_"  overflow="visible"/>
		</clipPath>
		<g clip-path="url(#SVGID_14_)">
			<defs>
				<rect id="SVGID_15_" x="-303" y="-327" width="1440" height="1024"/>
			</defs>
			<clipPath id="SVGID_16_">
				<use xlink:href="#SVGID_15_"  overflow="visible"/>
			</clipPath>
			<rect x="21" y="20" clip-path="url(#SVGID_16_)" fill="#794CF6" width="18" height="12"/>
		</g>
	</g>
	<g>
		<defs>
			<path id="SVGID_17_" d="M6.001,12C5.448,12,5,12.444,5,13.001v13.998C5,27.552,5.445,28,6.001,28h13.998
				C20.552,28,21,27.556,21,26.999V13.001C21,12.448,20.555,12,19.999,12H6.001z"/>
		</defs>
		<clipPath id="SVGID_18_">
			<use xlink:href="#SVGID_17_"  overflow="visible"/>
		</clipPath>
		<g clip-path="url(#SVGID_18_)">
			<defs>
				<rect id="SVGID_19_" x="-303" y="-327" width="1440" height="1024"/>
			</defs>
			<clipPath id="SVGID_20_">
				<use xlink:href="#SVGID_19_"  overflow="visible"/>
			</clipPath>
			<rect y="7" clip-path="url(#SVGID_20_)" fill="#794CF6" width="26" height="26"/>
		</g>
	</g>
</g>
</svg>
