<?xml version="1.0" encoding="utf-8"?>
<!-- Generator: Adobe Illustrator 19.0.0, SVG Export Plug-In . SVG Version: 6.00 Build 0)  -->
<svg version="1.1" id="Layer_1" xmlns="http://www.w3.org/2000/svg" xmlns:xlink="http://www.w3.org/1999/xlink" x="0px" y="0px"
	 viewBox="-216 218 78 78" style="enable-background:new -216 218 78 78;" xml:space="preserve">
<style type="text/css">
	.st0{fill-opacity:0;}
	.st1{fill:#335262;}
	.st2{fill:#5A7A84;}
	.st3{fill:#72C472;}
	.st4{fill:#FFFFFF;}
</style>
<rect x="-216" y="219" class="st0" width="78" height="76"/>
<path class="st1" d="M-144.8,281l-22.9-9.9V254h-20.7v17.1l-0.2,0.1l-22.7,9.8c-2.6,1.1-4.8,4.4-4.8,7.2v5.1c0,0.9,0.8,1.7,1.7,1.7
	h72.5c1,0,1.7-0.7,1.7-1.7v-5.1C-140,285.3-142.1,282.1-144.8,281z"/>
<path class="st2" d="M-178,264c-10.5,0-19-8.5-19-19V238c0-10.5,8.5-19,19-19s19,8.5,19,19v6.9C-159,255.5-167.5,264-178,264z"/>
<path class="st3" d="M-152,290c7.7,0,14-6.3,14-14s-6.3-14-14-14s-14,6.3-14,14S-159.7,290-152,290z"/>
<path class="st4" d="M-146.8,274.3h-3.5v-3.5c0-1-0.8-1.8-1.8-1.8s-1.8,0.8-1.8,1.8v3.5h-3.5c-1,0-1.8,0.8-1.8,1.8
	c0,1,0.8,1.8,1.8,1.8h3.5v3.5c0,1,0.8,1.8,1.8,1.8s1.8-0.8,1.8-1.8v-3.5h3.5c1,0,1.8-0.8,1.8-1.8C-145,275-145.8,274.3-146.8,274.3z
	"/>
</svg>
