<?xml version="1.0" encoding="utf-8"?>
<!-- Generator: Adobe Illustrator 19.0.0, SVG Export Plug-In . SVG Version: 6.00 Build 0)  -->
<svg version="1.1" id="Layer_1" xmlns="http://www.w3.org/2000/svg" xmlns:xlink="http://www.w3.org/1999/xlink" x="0px" y="0px"
	 viewBox="-247 248.5 16 16" style="enable-background:new -247 248.5 16 16;" xml:space="preserve">
<style type="text/css">
	.st0{fill:#111111;}
</style>
<g>
	<path class="st0" d="M-231.5,264h-15c-0.3,0-0.5-0.2-0.5-0.5s0.2-0.5,0.5-0.5h15c0.3,0,0.5,0.2,0.5,0.5S-231.2,264-231.5,264z"/>
	<path class="st0" d="M-243.5,261h-3c-0.3,0-0.5-0.2-0.5-0.5v-11c0-0.3,0.2-0.5,0.5-0.5h3c0.3,0,0.5,0.2,0.5,0.5v11
		C-243,260.8-243.2,261-243.5,261z M-246,260h2v-10h-2V260z"/>
	<path class="st0" d="M-231.1,259.5l-4.1-10.2c-0.1-0.3-0.4-0.4-0.7-0.3l-2.1,0.9v-0.4c0-0.3-0.2-0.5-0.5-0.5h-3
		c-0.3,0-0.5,0.2-0.5,0.5v11c0,0.3,0.2,0.5,0.5,0.5h3c0.3,0,0.5-0.2,0.5-0.5v-7.4l3.2,7.9c0.1,0.1,0.2,0.2,0.3,0.3
		c0.1,0,0.1,0,0.2,0c0.1,0,0.1,0,0.2,0l2.8-1.1C-231.1,260-231,259.8-231.1,259.5z M-239,260h-2v-10h2V260z M-234,260.2l-3.8-9.3
		l1.8-0.8l3.8,9.3L-234,260.2z"/>
</g>
</svg>
