<?xml version="1.0" encoding="utf-8"?>
<!-- Generator: Adobe Illustrator 22.1.0, SVG Export Plug-In . SVG Version: 6.00 Build 0)  -->
<svg version="1.1" id="Layer_1" xmlns="http://www.w3.org/2000/svg" xmlns:xlink="http://www.w3.org/1999/xlink" x="0px" y="0px"
	 viewBox="0 0 512 512" style="enable-background:new 0 0 512 512;" xml:space="preserve">
<style type="text/css">
	.st0{fill:#E6BE94;}
	.st1{fill:#78B9EB;}
	.st2{fill:#2D2D30;}
	.st3{fill:#FF4F19;}
	.st4{fill:#009BCA;}
</style>
<path class="st0" d="M170.6,223.7h170.8v119.6H170.6V223.7z"/>
<g>
	<path class="st1" d="M34,360.3c0,4.7,3.8,8.5,8.5,8.5c4.7,0,8.5-3.8,8.5-8.5s-3.8-8.5-8.5-8.5C37.8,351.8,34,355.6,34,360.3z"/>
	<path class="st1" d="M102.3,360.3c0,4.7,3.8,8.5,8.5,8.5c4.7,0,8.5-3.8,8.5-8.5s-3.8-8.5-8.5-8.5
		C106.1,351.8,102.3,355.6,102.3,360.3z"/>
	<path class="st1" d="M460.9,360.3c0,4.7,3.8,8.5,8.5,8.5c4.7,0,8.5-3.8,8.5-8.5s-3.8-8.5-8.5-8.5
		C464.8,351.8,460.9,355.6,460.9,360.3z"/>
	<path class="st1" d="M392.6,360.3c0,4.7,3.8,8.5,8.5,8.5c4.7,0,8.5-3.8,8.5-8.5s-3.8-8.5-8.5-8.5
		C396.5,351.8,392.6,355.6,392.6,360.3z"/>
</g>
<path class="st2" d="M88.4,225.2c-3.2-11-13.2-18.5-24.6-18.6H28.1l-11.4-53L0,157.1l24.2,112.8c1.7,7.9,8.7,13.5,16.7,13.5h27.2
	v51.2H42.5c-4.7,0-8.5,3.8-8.5,8.5v2.4c-8.2,4.7-11.1,15.2-6.4,23.4c4.7,8.2,15.2,11.1,23.4,6.4S62,360.2,57.3,352
	c0-0.1-0.1-0.1-0.1-0.2h38.9c-1.5,2.6-2.4,5.5-2.4,8.5c0,9.4,7.6,17.1,17,17.2c9.4,0,17.1-7.6,17.2-17c0-6.1-3.2-11.8-8.5-14.9v-2.4
	c0-4.7-3.8-8.5-8.5-8.5H85.2v-51.2h42.7v-17.1h-27.7L88.4,225.2z M31.7,223.7h32.1c3.8,0,7.2,2.5,8.2,6.2l10.4,36.5H40.9L31.7,223.7
	z"/>
<path class="st2" d="M471.1,283.4c8,0,15-5.6,16.7-13.5L512,157.1l-16.7-3.6l-11.4,53h-35.7c-11.4,0-21.5,7.6-24.6,18.6l-11.8,41.2
	h-27.7v17.1h42.7v51.2h-25.6c-4.7,0-8.5,3.8-8.5,8.5v2.4c-8.2,4.7-11.1,15.2-6.4,23.4c4.7,8.2,15.2,11.1,23.4,6.4
	c8.2-4.7,11.1-15.2,6.4-23.4c0-0.1-0.1-0.1-0.1-0.2h38.9c-1.5,2.6-2.4,5.5-2.4,8.5c0,9.4,7.6,17.1,17,17.2c9.4,0,17.1-7.6,17.2-17
	c0-6.1-3.2-11.8-8.5-14.9v-2.4c0-4.7-3.8-8.5-8.5-8.5h-25.6v-51.2H471.1z M440,229.9c1-3.7,4.4-6.2,8.2-6.2h32.1l-9.2,42.7h-41.5
	L440,229.9z"/>
<path class="st3" d="M401.2,232.2v-17.1H110.8v17.1h51.2v145.2h17.1v-25.6h153.7v25.6h17.1V232.2H401.2z M332.9,334.7H179.1V232.2
	h153.7V334.7z"/>
<path class="st4" d="M195.1,202.3l34.2-59.8l-14.8-8.5l-31.7,55.5h-63.4v17.1h68.3C190.7,206.6,193.6,205,195.1,202.3z"/>
</svg>
