<?xml version="1.0" encoding="utf-8"?>
<!-- Generator: Adobe Illustrator 19.0.0, SVG Export Plug-In . SVG Version: 6.00 Build 0)  -->
<svg version="1.1" id="Layer_1" xmlns="http://www.w3.org/2000/svg" xmlns:xlink="http://www.w3.org/1999/xlink" x="0px" y="0px"
	 viewBox="-243 244.6 24 24" style="enable-background:new -243 244.6 24 24;" xml:space="preserve">
<style type="text/css">
	.st0{fill:#172343;}
</style>
<g>
	<g>
		<path class="st0" d="M-232,263.6h-11v-2.2c0-0.9,0.4-1.8,1.1-2.3c0.9-0.7,2.3-1.5,4.4-1.5s3.5,0.8,4.4,1.5
			c0.7,0.6,1.1,1.4,1.1,2.3V263.6z M-241,261.6h7v-0.2c0-0.3-0.1-0.6-0.4-0.8c-0.6-0.5-1.7-1.1-3.1-1.1s-2.5,0.6-3.1,1.1
			c-0.2,0.2-0.4,0.5-0.4,0.8V261.6z"/>
	</g>
	<g>
		<path class="st0" d="M-237.5,256.6c-1.9,0-3.5-1.6-3.5-3.5s1.6-3.5,3.5-3.5s3.5,1.6,3.5,3.5S-235.6,256.6-237.5,256.6z
			 M-237.5,251.6c-0.8,0-1.5,0.7-1.5,1.5s0.7,1.5,1.5,1.5s1.5-0.7,1.5-1.5S-236.7,251.6-237.5,251.6z"/>
	</g>
	<g>
		<path class="st0" d="M-219,263.6h-11v-2.2c0-0.9,0.4-1.8,1.1-2.3c0.9-0.7,2.3-1.5,4.4-1.5s3.5,0.8,4.4,1.5
			c0.7,0.6,1.1,1.4,1.1,2.3V263.6z M-228,261.6h7v-0.2c0-0.3-0.1-0.6-0.4-0.8c-0.6-0.5-1.7-1.1-3.1-1.1s-2.5,0.6-3.1,1.1
			c-0.2,0.2-0.4,0.5-0.4,0.8V261.6z"/>
	</g>
	<g>
		<path class="st0" d="M-224.5,256.6c-1.9,0-3.5-1.6-3.5-3.5s1.6-3.5,3.5-3.5s3.5,1.6,3.5,3.5S-222.6,256.6-224.5,256.6z
			 M-224.5,251.6c-0.8,0-1.5,0.7-1.5,1.5s0.7,1.5,1.5,1.5s1.5-0.7,1.5-1.5S-223.7,251.6-224.5,251.6z"/>
	</g>
</g>
</svg>
