<?xml version="1.0" encoding="utf-8"?>
<!-- Generator: Adobe Illustrator 19.0.0, SVG Export Plug-In . SVG Version: 6.00 Build 0)  -->
<svg version="1.1" id="Layer_1" xmlns="http://www.w3.org/2000/svg" xmlns:xlink="http://www.w3.org/1999/xlink" x="0px" y="0px"
	 viewBox="-259 249 16 16" style="enable-background:new -259 249 16 16;" xml:space="preserve">
<style type="text/css">
	.st0{fill:#111111;}
</style>
<g>
	<path class="st0" d="M-251,259c-1.1,0-2-0.9-2-2c0-1.1,0.9-2,2-2c1.1,0,2,0.9,2,2C-249,258.1-249.9,259-251,259z M-251,256
		c-0.6,0-1,0.4-1,1s0.4,1,1,1s1-0.4,1-1S-250.4,256-251,256z"/>
	<g>
		<path class="st0" d="M-251,265c-1.1,0-2-0.9-2-2s0.9-2,2-2c1.1,0,2,0.9,2,2S-249.9,265-251,265z M-251,262c-0.6,0-1,0.4-1,1
			s0.4,1,1,1s1-0.4,1-1S-250.4,262-251,262z"/>
	</g>
	<path class="st0" d="M-251,253c-1.1,0-2-0.9-2-2s0.9-2,2-2c1.1,0,2,0.9,2,2S-249.9,253-251,253z M-251,250c-0.6,0-1,0.4-1,1
		s0.4,1,1,1s1-0.4,1-1S-250.4,250-251,250z"/>
</g>
</svg>
