<?xml version="1.0" encoding="utf-8"?>
<!-- Generator: Adobe Illustrator 19.0.0, SVG Export Plug-In . SVG Version: 6.00 Build 0)  -->
<svg version="1.1" id="Layer_1" xmlns="http://www.w3.org/2000/svg" xmlns:xlink="http://www.w3.org/1999/xlink" x="0px" y="0px"
	 viewBox="-249 249 16 16" style="enable-background:new -249 249 16 16;" xml:space="preserve">
<style type="text/css">
	.st0{fill:#111111;}
</style>
<g>
	<path class="st0" d="M-235.5,249h-11c-0.8,0-1.5,0.7-1.5,1.5v13c0,0.8,0.7,1.5,1.5,1.5h11c0.8,0,1.5-0.7,1.5-1.5v-13
		C-234,249.7-234.7,249-235.5,249z M-235,263.5c0,0.3-0.2,0.5-0.5,0.5h-11c-0.3,0-0.5-0.2-0.5-0.5v-13c0-0.3,0.2-0.5,0.5-0.5h11
		c0.3,0,0.5,0.2,0.5,0.5V263.5z"/>
	<path class="st0" d="M-236.5,251h-9c-0.3,0-0.5,0.2-0.5,0.5v11c0,0.3,0.2,0.5,0.5,0.5h5c0.1,0,0.1,0,0.2,0c0,0,0,0,0,0
		c0.1,0,0.1-0.1,0.1-0.1l0.1-0.1l3.9-3.9l0.1-0.1c0,0,0,0,0.1,0c0,0,0-0.1,0.1-0.1c0,0,0,0,0,0c0-0.1,0-0.1,0-0.2v-7
		C-236,251.2-236.2,251-236.5,251z M-240,261.3V259h2.3L-240,261.3z M-237,258h-3.5c-0.3,0-0.5,0.2-0.5,0.5v3.5h-4v-10h8V258z"/>
</g>
</svg>
