<?xml version="1.0" encoding="utf-8"?>
<!-- Generator: Adobe Illustrator 19.0.0, SVG Export Plug-In . SVG Version: 6.00 Build 0)  -->
<svg version="1.1" id="Layer_1" xmlns="http://www.w3.org/2000/svg" xmlns:xlink="http://www.w3.org/1999/xlink" x="0px" y="0px"
	 viewBox="-245 245 24 24" style="enable-background:new -245 245 24 24;" xml:space="preserve">
<style type="text/css">
	.st0{fill:#006557;}
</style>
<path class="st0" d="M-223.5,259.2c-0.8-0.9-1.5-1.7-1.5-3.2v-3c0-4.5-3.5-8-8-8s-8,3.5-8,8v3c0,1.5-0.8,2.3-1.5,3.2
	c-0.7,0.8-1.5,1.6-1.5,2.8c0,2,2.6,3.3,7.1,3.8c0.4,1.8,2,3.2,3.9,3.2c1.9,0,3.5-1.3,3.9-3.2c4.5-0.5,7.1-1.8,7.1-3.8
	C-222,260.8-222.7,260-223.5,259.2z M-233,267c-0.8,0-1.4-0.4-1.8-1c0.6,0,1.2,0,1.8,0s1.2,0,1.8,0C-231.6,266.6-232.2,267-233,267z
	 M-233,264c-6.3,0-9-1.4-9-2c0-0.4,0.3-0.8,0.9-1.5c0.9-1,2.1-2.3,2.1-4.5v-3c0-3.4,2.6-6,6-6s6,2.6,6,6v3c0,2.3,1.2,3.6,2.1,4.5
	c0.6,0.6,0.9,1.1,0.9,1.5C-224,262.6-226.7,264-233,264z"/>
</svg>
