<svg height="512pt" viewBox="0 -13 512.00003 512" width="512pt" xmlns="http://www.w3.org/2000/svg"><path d="m59.734375 34.132812c-14.140625 0-25.601563 11.460938-25.601563 25.601563 0 14.136719 11.460938 25.597656 25.601563 25.597656 14.136719 0 25.597656-11.460937 25.597656-25.597656 0-14.140625-11.460937-25.601563-25.597656-25.601563zm0 34.132813c-4.714844 0-8.535156-3.820313-8.535156-8.53125 0-4.714844 3.820312-8.535156 8.535156-8.535156 4.710937 0 8.53125 3.820312 8.53125 8.535156 0 4.710937-3.820313 8.53125-8.53125 8.53125zm0 0"/><path d="m128 34.132812c-14.136719 0-25.601562 11.460938-25.601562 25.601563 0 14.136719 11.464843 25.597656 25.601562 25.597656s25.601562-11.460937 25.601562-25.597656c0-14.140625-11.464843-25.601563-25.601562-25.601563zm0 34.132813c-4.710938 0-8.535156-3.820313-8.535156-8.53125 0-4.714844 3.824218-8.535156 8.535156-8.535156s8.535156 3.820312 8.535156 8.535156c0 4.710937-3.824218 8.53125-8.535156 8.53125zm0 0"/><path d="m196.265625 34.132812c-14.136719 0-25.597656 11.460938-25.597656 25.601563 0 14.136719 11.460937 25.597656 25.597656 25.597656 14.140625 0 25.601563-11.460937 25.601563-25.597656 0-14.140625-11.460938-25.601563-25.601563-25.601563zm0 34.132813c-4.710937 0-8.53125-3.820313-8.53125-8.53125 0-4.714844 3.820313-8.535156 8.53125-8.535156 4.714844 0 8.535156 3.820312 8.535156 8.535156 0 4.710937-3.820312 8.53125-8.535156 8.53125zm0 0"/><path d="m366.933594 51.199219h-85.332032c-4.714843 0-8.535156 3.820312-8.535156 8.535156 0 4.710937 3.820313 8.53125 8.535156 8.53125h85.332032c4.710937 0 8.53125-3.820313 8.53125-8.53125 0-4.714844-3.820313-8.535156-8.53125-8.535156zm0 0"/><path d="m460.800781 51.199219h-59.734375c-4.710937 0-8.53125 3.820312-8.53125 8.535156 0 4.710937 3.820313 8.53125 8.53125 8.53125h59.734375c4.710938 0 8.53125-3.820313 8.53125-8.53125 0-4.714844-3.820312-8.535156-8.53125-8.535156zm0 0"/><path d="m469.332031 0h-426.664062c-23.554688.0273438-42.6406252 19.113281-42.667969 42.667969v375.464843c.0273438 23.554688 19.113281 42.640626 42.667969 42.667969h204.796875c4.714844 0 8.535156-3.820312 8.535156-8.535156 0-4.710937-3.820312-8.53125-8.535156-8.53125h-204.796875c-14.140625 0-25.601563-11.460937-25.601563-25.601563v-298.667968h477.867188v51.203125c0 4.710937 3.820312 8.53125 8.53125 8.53125 4.714844 0 8.535156-3.820313 8.535156-8.53125v-128c-.027344-23.554688-19.113281-42.6406252-42.667969-42.667969zm-452.265625 102.398438v-59.730469c0-14.140625 11.460938-25.601563 25.601563-25.601563h426.664062c14.140625 0 25.601563 11.460938 25.601563 25.601563v59.730469zm0 0"/><path d="m82.832031 139.035156c-3.332031-3.332031-8.734375-3.332031-12.066406 0l-25.597656 25.597656c-3.332031 3.332032-3.332031 8.734376 0 12.066407l25.597656 25.601562c3.347656 3.234375 8.671875 3.1875 11.964844-.105469 3.289062-3.292968 3.335937-8.613281.101562-11.960937l-19.566406-19.566406 19.566406-19.566407c3.332031-3.335937 3.332031-8.734374 0-12.066406zm0 0"/><path d="m147.566406 202.300781c3.332032 3.332031 8.734375 3.332031 12.066406 0l25.601563-25.601562c3.328125-3.332031 3.328125-8.734375 0-12.066407l-25.601563-25.597656c-3.347656-3.234375-8.671874-3.1875-11.960937.101563-3.292969 3.292969-3.339844 8.613281-.105469 11.964843l19.566406 19.566407-19.566406 19.566406c-3.332031 3.332031-3.332031 8.734375 0 12.066406zm0 0"/><path d="m131.8125 137.429688c-2.023438-1.011719-4.367188-1.179688-6.515625-.460938-2.148437.714844-3.921875 2.257812-4.933594 4.285156l-25.601562 51.199219c-2.105469 4.21875-.394531 9.34375 3.824219 11.449219 4.21875 2.109375 9.34375.398437 11.453124-3.820313l25.597657-51.199219c1.011719-2.027343 1.179687-4.371093.460937-6.519531-.714844-2.148437-2.257812-3.921875-4.285156-4.933593zm0 0"/><path d="m213.332031 170.667969h42.667969c4.710938 0 8.535156-3.820313 8.535156-8.535157 0-4.710937-3.824218-8.53125-8.535156-8.53125h-42.667969c-4.710937 0-8.53125 3.820313-8.53125 8.53125 0 4.714844 3.820313 8.535157 8.53125 8.535157zm0 0"/><path d="m298.667969 170.667969c4.710937 0 8.53125-3.820313 8.53125-8.535157 0-4.710937-3.820313-8.53125-8.53125-8.53125h-8.535157c-4.710937 0-8.53125 3.820313-8.53125 8.53125 0 4.714844 3.820313 8.535157 8.53125 8.535157zm0 0"/><path d="m213.332031 213.332031h17.066407c4.714843 0 8.535156-3.820312 8.535156-8.53125 0-4.714843-3.820313-8.535156-8.535156-8.535156h-17.066407c-4.710937 0-8.53125 3.820313-8.53125 8.535156 0 4.710938 3.820313 8.53125 8.53125 8.53125zm0 0"/><path d="m51.199219 256h25.601562c4.710938 0 8.53125-3.820312 8.53125-8.535156 0-4.710938-3.820312-8.53125-8.53125-8.53125h-25.601562c-4.710938 0-8.53125 3.820312-8.53125 8.53125 0 4.714844 3.820312 8.535156 8.53125 8.535156zm0 0"/><path d="m102.398438 247.464844c0 4.714844 3.820312 8.535156 8.535156 8.535156h68.265625c4.714843 0 8.535156-3.820312 8.535156-8.535156 0-4.710938-3.820313-8.53125-8.535156-8.53125h-68.265625c-4.714844 0-8.535156 3.820312-8.535156 8.53125zm0 0"/><path d="m213.332031 256h34.132813c4.714844 0 8.535156-3.820312 8.535156-8.535156 0-4.710938-3.820312-8.53125-8.535156-8.53125h-34.132813c-4.710937 0-8.53125 3.820312-8.53125 8.53125 0 4.714844 3.820313 8.535156 8.53125 8.535156zm0 0"/><path d="m51.199219 324.265625c-4.710938 0-8.53125 3.820313-8.53125 8.535156 0 4.710938 3.820312 8.53125 8.53125 8.53125h25.601562c4.710938 0 8.53125-3.820312 8.53125-8.53125 0-4.714843-3.820312-8.535156-8.53125-8.535156zm0 0"/><path d="m110.933594 341.332031h68.265625c4.714843 0 8.535156-3.820312 8.535156-8.53125 0-4.714843-3.820313-8.535156-8.535156-8.535156h-68.265625c-4.714844 0-8.535156 3.820313-8.535156 8.535156 0 4.710938 3.820312 8.53125 8.535156 8.53125zm0 0"/><path d="m213.332031 341.332031h34.132813c4.714844 0 8.535156-3.820312 8.535156-8.53125 0-4.714843-3.820312-8.535156-8.535156-8.535156h-34.132813c-4.710937 0-8.53125 3.820313-8.53125 8.535156 0 4.710938 3.820313 8.53125 8.53125 8.53125zm0 0"/><path d="m256 290.132812c0-4.710937-3.820312-8.53125-8.535156-8.53125h-68.265625c-4.710938 0-8.53125 3.820313-8.53125 8.53125 0 4.714844 3.820312 8.535157 8.53125 8.535157h68.265625c4.714844 0 8.535156-3.820313 8.535156-8.535157zm0 0"/><path d="m153.601562 290.132812c0-4.710937-3.820312-8.53125-8.535156-8.53125h-93.867187c-4.710938 0-8.53125 3.820313-8.53125 8.53125 0 4.714844 3.820312 8.535157 8.53125 8.535157h93.867187c4.714844 0 8.535156-3.820313 8.535156-8.535157zm0 0"/><path d="m486.398438 196.265625h-187.730469c-14.140625 0-25.601563 11.460937-25.601563 25.601563v34.132812c.046875 10.808594 6.875 20.425781 17.066406 24.03125v20.207031c-10.191406 3.601563-17.019531 13.21875-17.066406 24.027344v34.132813c.046875 10.8125 6.875 20.429687 17.066406 24.03125v20.207031c-10.191406 3.601562-17.019531 13.21875-17.066406 24.03125v34.132812c0 14.136719 11.460938 25.597657 25.601563 25.597657h187.730469c14.140624 0 25.601562-11.460938 25.601562-25.597657v-34.132812c-.042969-10.8125-6.875-20.429688-17.066406-24.03125v-20.207031c10.191406-3.601563 17.023437-13.21875 17.066406-24.03125v-34.132813c-.042969-10.808594-6.875-20.425781-17.066406-24.027344v-20.207031c10.191406-3.605469 17.023437-13.222656 17.066406-24.03125v-34.132812c0-14.140626-11.460938-25.601563-25.601562-25.601563zm-8.53125 102.402344h-170.667969v-17.066407h170.667969zm0 102.398437h-170.667969v-17.066406h170.667969zm17.066406 59.734375c0 4.710938-3.820313 8.53125-8.535156 8.53125h-187.730469c-4.714844 0-8.535157-3.820312-8.535157-8.53125v-34.132812c0-4.714844 3.820313-8.535157 8.535157-8.535157h187.730469c4.714843 0 8.535156 3.820313 8.535156 8.535157zm-8.535156-93.867187h-187.730469c-4.714844 0-8.535157-3.820313-8.535157-8.535156v-34.132813c0-4.710937 3.820313-8.53125 8.535157-8.53125h187.730469c4.714843 0 8.535156 3.820313 8.535156 8.53125v34.132813c0 4.714843-3.820313 8.535156-8.535156 8.535156zm8.535156-110.933594c0 4.710938-3.820313 8.535156-8.535156 8.535156h-187.730469c-4.714844 0-8.535157-3.824218-8.535157-8.535156v-34.132812c0-4.714844 3.820313-8.535157 8.535157-8.535157h187.730469c4.714843 0 8.535156 3.820313 8.535156 8.535157zm0 0"/><path d="m324.265625 230.398438h-8.53125c-4.714844 0-8.535156 3.820312-8.535156 8.535156 0 4.710937 3.820312 8.53125 8.535156 8.53125h8.53125c4.714844 0 8.535156-3.820313 8.535156-8.53125 0-4.714844-3.820312-8.535156-8.535156-8.535156zm0 0"/><path d="m352.339844 232.875c-3.3125 3.339844-3.296875 8.730469.035156 12.050781 3.328125 3.320313 8.71875 3.320313 12.050781 0 3.332031-3.320312 3.34375-8.710937.03125-12.050781-3.429687-3.136719-8.6875-3.136719-12.117187 0zm0 0"/><path d="m469.332031 230.398438h-76.796875c-4.714844 0-8.535156 3.820312-8.535156 8.535156 0 4.710937 3.820312 8.53125 8.535156 8.53125h76.796875c4.714844 0 8.535157-3.820313 8.535157-8.53125 0-4.714844-3.820313-8.535156-8.535157-8.535156zm0 0"/><path d="m324.265625 332.800781h-8.53125c-4.714844 0-8.535156 3.820313-8.535156 8.53125 0 4.714844 3.820312 8.535157 8.535156 8.535157h8.53125c4.714844 0 8.535156-3.820313 8.535156-8.535157 0-4.710937-3.820312-8.53125-8.535156-8.53125zm0 0"/><path d="m355.15625 333.484375c-1.03125.429687-1.984375 1.039063-2.816406 1.789063-3.3125 3.339843-3.296875 8.730468.035156 12.050781 3.328125 3.324219 8.71875 3.324219 12.050781 0 3.332031-3.320313 3.34375-8.710938.03125-12.050781-2.492187-2.34375-6.113281-3.042969-9.300781-1.789063zm0 0"/><path d="m469.332031 332.800781h-76.796875c-4.714844 0-8.535156 3.820313-8.535156 8.53125 0 4.714844 3.820312 8.535157 8.535156 8.535157h76.796875c4.714844 0 8.535157-3.820313 8.535157-8.535157 0-4.710937-3.820313-8.53125-8.535157-8.53125zm0 0"/><path d="m324.265625 435.199219h-8.53125c-4.714844 0-8.535156 3.820312-8.535156 8.535156 0 4.710937 3.820312 8.53125 8.535156 8.53125h8.53125c4.714844 0 8.535156-3.820313 8.535156-8.53125 0-4.714844-3.820312-8.535156-8.535156-8.535156zm0 0"/><path d="m352.339844 437.675781c-3.3125 3.339844-3.296875 8.730469.035156 12.050781 3.328125 3.320313 8.71875 3.320313 12.050781 0 3.332031-3.320312 3.34375-8.710937.03125-12.050781-3.429687-3.136719-8.6875-3.136719-12.117187 0zm0 0"/><path d="m469.332031 435.199219h-76.796875c-4.714844 0-8.535156 3.820312-8.535156 8.535156 0 4.710937 3.820312 8.53125 8.535156 8.53125h76.796875c4.714844 0 8.535157-3.820313 8.535157-8.53125 0-4.714844-3.820313-8.535156-8.535157-8.535156zm0 0"/></svg>