<?xml version="1.0" encoding="utf-8"?>
<!-- Generator: Adobe Illustrator 19.0.0, SVG Export Plug-In . SVG Version: 6.00 Build 0)  -->
<svg version="1.1" id="Layer_1" xmlns="http://www.w3.org/2000/svg" xmlns:xlink="http://www.w3.org/1999/xlink" x="0px" y="0px"
	 viewBox="0 0 16 16" style="enable-background:new 0 0 16 16;" xml:space="preserve">
<path id="XMLID_9_" d="M14,15.2h-0.6v-1.3h-1.3v-2.4c0-0.7-0.4-1.4-1-1.8L8.7,8l2.5-1.7c0.6-0.4,1-1.1,1-1.8V2.1h1.3V0.8H14
	c0.2,0,0.4-0.2,0.4-0.4C14.4,0.2,14.3,0,14,0H2C1.7,0,1.6,0.2,1.6,0.4c0,0.2,0.2,0.4,0.4,0.4h0.6v1.3h1.3v2.4c0,0.7,0.4,1.4,1,1.8
	L7.3,8L4.8,9.7c-0.6,0.4-1,1.1-1,1.8v2.4H2.6v1.3H2c-0.2,0-0.4,0.2-0.4,0.4C1.6,15.8,1.7,16,2,16H14c0.2,0,0.4-0.2,0.4-0.4
	C14.4,15.4,14.3,15.2,14,15.2z M4.6,2.1h6.7v2.4c0,0.5-0.2,0.9-0.6,1.1L8,7.5L5.2,5.7C4.9,5.4,4.6,5,4.6,4.5V2.1z M8,8.5l2.8,1.8
	c0.4,0.3,0.6,0.7,0.6,1.1v2.4H4.6v-2.4c0-0.5,0.2-0.9,0.6-1.1L8,8.5z M12.6,1.3H3.4V0.8h9.2V1.3z M3.4,14.7h9.2v0.5H3.4V14.7z"/>
</svg>
