<?xml version="1.0" encoding="utf-8"?>
<!-- Generator: Adobe Illustrator 19.0.0, SVG Export Plug-In . SVG Version: 6.00 Build 0)  -->
<svg version="1.1" id="Layer_1" xmlns="http://www.w3.org/2000/svg" xmlns:xlink="http://www.w3.org/1999/xlink" x="0px" y="0px"
	 viewBox="-247 249 16 16" style="enable-background:new -247 249 16 16;" xml:space="preserve">
<style type="text/css">
	.st0{fill:#111111;}
</style>
<g>
	<path class="st0" d="M-231.5,265c-0.1,0-0.3,0-0.4-0.1l-3-3c-0.2-0.2-0.2-0.5,0-0.7s0.5-0.2,0.7,0l3,3c0.2,0.2,0.2,0.5,0,0.7
		C-231.2,265-231.4,265-231.5,265z"/>
	<path class="st0" d="M-240.5,262c-3.6,0-6.5-2.9-6.5-6.5s2.9-6.5,6.5-6.5s6.5,2.9,6.5,6.5S-236.9,262-240.5,262z M-240.5,250
		c-3,0-5.5,2.5-5.5,5.5c0,3,2.5,5.5,5.5,5.5c3,0,5.5-2.5,5.5-5.5C-235,252.5-237.5,250-240.5,250z"/>
</g>
</svg>
