<?xml version="1.0" encoding="utf-8"?>
<!-- Generator: Adobe Illustrator 19.0.0, SVG Export Plug-In . SVG Version: 6.00 Build 0)  -->
<svg version="1.1" id="Layer_1" xmlns="http://www.w3.org/2000/svg" xmlns:xlink="http://www.w3.org/1999/xlink" x="0px" y="0px"
	 viewBox="-298.1 389.3 16 16" style="enable-background:new -298.1 389.3 16 16;" xml:space="preserve">
<style type="text/css">
	.st0{fill:#111111;}
	.st1{fill:none;stroke:#000000;stroke-width:0.3;}
</style>
<g>
	<path class="st0" d="M-285.5,405c-0.1,0-0.2,0-0.2-0.1l-4.4-2.3l-4.4,2.3c-0.2,0.1-0.4,0.1-0.5,0c-0.2-0.1-0.2-0.3-0.2-0.5l0.8-4.9
		l-3.6-3.5c-0.1-0.1-0.2-0.3-0.1-0.5c0.1-0.2,0.2-0.3,0.4-0.3l4.9-0.7l2.2-4.5c0.2-0.3,0.7-0.3,0.9,0l2.2,4.5l4.9,0.7
		c0.2,0,0.3,0.2,0.4,0.3c0.1,0.2,0,0.4-0.1,0.5l-3.6,3.5l0.8,4.9c0,0.2,0,0.4-0.2,0.5C-285.3,404.9-285.4,405-285.5,405z
		 M-290.1,401.5c0.1,0,0.2,0,0.2,0.1l3.7,2l-0.7-4.2c0-0.2,0-0.3,0.1-0.4l3-2.9l-4.2-0.6c-0.2,0-0.3-0.1-0.4-0.3l-1.9-3.8l-1.9,3.8
		c-0.1,0.1-0.2,0.3-0.4,0.3l-4.2,0.6l3,2.9c0.1,0.1,0.2,0.3,0.1,0.4l-0.7,4.2l3.7-2C-290.3,401.5-290.2,401.5-290.1,401.5z"/>
</g>
<g>
	<line class="st1" x1="-296.5" y1="335.5" x2="-296.5" y2="371.5"/>
	<line class="st1" x1="-350.5" y1="389.5" x2="-314.5" y2="389.5"/>
	<line class="st1" x1="-350.5" y1="404.8" x2="-314.5" y2="404.8"/>
	<line class="st1" x1="-296.5" y1="458.8" x2="-296.5" y2="422.8"/>
	<line class="st1" x1="-280.5" y1="335.5" x2="-280.5" y2="371.5"/>
	<line class="st1" x1="-226.5" y1="389.5" x2="-262.5" y2="389.5"/>
	<line class="st1" x1="-226.5" y1="404.8" x2="-262.5" y2="404.8"/>
	<line class="st1" x1="-280.5" y1="458.8" x2="-280.5" y2="422.8"/>
</g>
</svg>
