<svg width="29" height="19" viewBox="0 0 29 19" fill="none" xmlns="http://www.w3.org/2000/svg">
<path fill-rule="evenodd" clip-rule="evenodd" d="M19.7646 8.21533C21.9494 8.21533 23.6999 6.4939 23.6999 4.36138C23.6999 2.22885 21.9494 0.507416 19.7646 0.507416C17.5798 0.507416 15.8162 2.22885 15.8162 4.36138C15.8162 6.4939 17.5798 8.21533 19.7646 8.21533V8.21533ZM9.23547 8.21533C11.4203 8.21533 13.1707 6.4939 13.1707 4.36138C13.1707 2.22885 11.4203 0.507416 9.23547 0.507416C7.05067 0.507416 5.28704 2.22885 5.28704 4.36138C5.28704 6.4939 7.05067 8.21533 9.23547 8.21533V8.21533ZM9.23547 10.7846C6.16885 10.7846 0.0224609 12.2877 0.0224609 15.2809V18.4926H18.4485V15.2809C18.4485 12.2877 12.3021 10.7846 9.23547 10.7846V10.7846ZM19.7646 10.7846C19.3829 10.7846 18.9486 10.8103 18.488 10.8489C20.0147 11.928 21.0808 13.3796 21.0808 15.2809V18.4926H28.9776V15.2809C28.9776 12.2877 22.8312 10.7846 19.7646 10.7846V10.7846Z" fill="white"/>
</svg>
