<?xml version="1.0" encoding="utf-8"?>
<!-- Generator: Adobe Illustrator 19.0.0, SVG Export Plug-In . SVG Version: 6.00 Build 0)  -->
<svg version="1.1" id="Layer_1" xmlns="http://www.w3.org/2000/svg" xmlns:xlink="http://www.w3.org/1999/xlink" x="0px" y="0px"
	 viewBox="0 0 16 16" style="enable-background:new 0 0 16 16;" xml:space="preserve">
<style type="text/css">
	.st0{fill:#111111;}
</style>
<g id="XMLID_2_">
	<path id="XMLID_3_" class="st0" d="M0.8,10.4L0.8,10.4c0,1.1,0.1,2.2,0.7,3C1.9,13.9,2.6,14,3.1,14c0.2,0,0.4,0,0.6,0
		c0.2,0,0.3,0,0.5,0h0.1c0.1,0,0.3,0,0.5,0.1c0.1,0,0.3,0,0.4,0.1c0.2,0,0.3,0.2,0.5,0.4c0.1,0.1,0.2,0.2,0.3,0.3
		c0.1,0.1,0.2,0.1,0.3,0.2c0.3,0.2,0.6,0.4,0.9,0.6c0.4,0.2,0.9,0.2,1.4,0.3c0.2,0,0.4,0.1,0.7,0.1c0.1,0,0.3,0,0.4,0
		c0.4,0,0.7,0.1,1.1,0.1c0.3,0,0.5,0,0.7-0.1c0.7-0.2,1.2-0.8,1.2-1.5c0.4-0.1,0.7-0.5,0.9-0.9c0.2-0.4,0.2-0.7,0.2-1.1
		c0.7-0.5,1.1-1.3,0.9-2.1c0.3-0.2,0.5-0.6,0.6-1c0.1-0.6-0.1-1.2-0.5-1.6c-0.5-0.5-1.2-0.6-1.9-0.7c-0.1,0-0.2,0-0.3-0.1
		c-0.1,0-0.2,0-0.3-0.1c-0.8-0.2-1.4-0.4-1.4-1.1c0-0.5,0.1-0.9,0.3-1.3c0.2-0.5,0.4-1,0.3-1.7c-0.1-1.1-0.5-2.1-1.2-2.6
		C9.9,0.1,9.5,0,9.2,0C8.6,0,8.2,0.3,8.1,0.8C8,1.1,8,1.5,8,1.8C8,1.9,8,2,8,2.1C8,2.6,8,3,7.8,3.4C7.6,4.1,7,4.8,6.6,5.4L6.3,5.7
		C6,6.1,5.7,6.6,5.3,6.9C5.1,7.1,4.9,7.1,4.6,7.2c-0.1,0-0.1,0-0.2,0c0,0-0.1,0-0.1,0c-0.3,0-0.5,0-0.8,0c-0.6,0-1.4,0.1-1.9,0.6
		C0.8,8.4,0.8,9.6,0.8,10.4z M3.7,10.4l0-0.1c0-0.5,0-1.2,0.3-1.7c0.1-0.2,0.4-0.3,0.7-0.3C5.1,8.1,5.5,8,5.8,7.7c0,0,0.1,0,0.1-0.1
		c0.1-0.1,0.2-0.2,0.3-0.3c0.5-0.6,1-1.2,1.4-1.7c0.1-0.1,0.2-0.3,0.3-0.4c0.4-0.6,0.8-1.2,1-1.9C9,2.8,9,2.3,9,1.8l0-0.1
		C9,1.3,9,1,9.1,1c0,0,0,0,0,0c0.3,0,0.7,0.4,0.9,0.7c0.2,0.5,0.4,0.9,0.4,1.4c0,0.4-0.2,0.9-0.3,1.3C10,4.9,9.8,5.5,9.8,6.1
		c0.1,0.8,0.7,1.5,1.6,1.7C11.7,7.9,12,7.9,12.2,8c0.5,0.1,1,0.2,1.4,0.4c0.3,0.1,0.6,0.4,0.5,0.8c0,0.2-0.1,0.5-0.4,0.5
		c-0.2,0-0.3,0.1-0.3,0.3c-0.1,0.2,0,0.4,0.1,0.6c0.1,0.1,0.1,0.4,0.1,0.7c-0.1,0.3-0.3,0.5-0.6,0.6c-0.1,0-0.3,0.1-0.3,0.3
		c-0.1,0.2-0.1,0.4,0,0.5c0.1,0.1,0.1,0.4-0.1,0.7c-0.1,0.2-0.2,0.3-0.4,0.3c0,0,0,0-0.1,0l0,0h0c-0.2,0-0.4,0.1-0.5,0.3
		c-0.1,0.1-0.1,0.3,0,0.4c0.1,0.2,0.1,0.4,0,0.5c-0.1,0.1-0.2,0.2-0.3,0.2C11,15,10.7,15,10.5,15c-0.7-0.1-1.4-0.1-2.1-0.3l-0.3-0.1
		c-0.2,0-0.3-0.1-0.5-0.1C7.3,14.4,7,14.2,6.8,14c-0.1-0.1-0.2-0.1-0.3-0.2c-0.1,0-0.1-0.1-0.2-0.2c-0.2-0.2-0.4-0.4-0.6-0.4
		C5.4,13,5.2,13,5,13c-0.7-0.1-1-0.3-1.1-0.9C3.7,11.6,3.7,10.9,3.7,10.4z M2.2,8.5C2.4,8.3,2.7,8.2,3,8.2c-0.2,0.3-0.2,0.7-0.3,1
		c-0.1,0.8-0.1,1.6,0,2.4c0.1,0.4,0.1,0.9,0.3,1.4h0c-0.4,0-0.6,0-0.8-0.2c-0.4-0.6-0.5-1.4-0.5-2.3l0-0.2C1.8,9.7,1.8,8.9,2.2,8.5z
		"/>
</g>
</svg>
