<?xml version="1.0" encoding="utf-8"?>
<!-- Generator: Adobe Illustrator 19.0.0, SVG Export Plug-In . SVG Version: 6.00 Build 0)  -->
<svg version="1.1" id="Layer_1" xmlns="http://www.w3.org/2000/svg" xmlns:xlink="http://www.w3.org/1999/xlink" x="0px" y="0px"
	 viewBox="-218 219 75 75" style="enable-background:new -218 219 75 75;" xml:space="preserve">
<style type="text/css">
	.st0{fill-opacity:0;}
	.st1{fill:#E86C60;}
	.st2{fill:#C64B4B;}
	.st3{fill:#9BCED3;}
	.st4{fill:#76B5B5;}
	.st5{fill:#DDBE99;}
	.st6{fill:#C6A279;}
</style>
<g>
	<rect x="-218" y="226.9" class="st0" width="75" height="59"/>
	<path class="st1" d="M-216.4,226.9c-0.9,0-1.6,0.7-1.6,1.7v16.7c0,0.9,0.7,1.7,1.6,1.7h58.7c0.9,0,1.6-0.7,1.6-1.7v-16.7
		c0-0.9-0.7-1.7-1.6-1.7H-216.4z"/>
	<path class="st2" d="M-193.6,237.9h-9.8c-0.9,0-1.6-0.7-1.6-1.5s0.7-1.5,1.6-1.5h9.8c0.9,0,1.6,0.7,1.6,1.5
		S-192.7,237.9-193.6,237.9z"/>
	<path class="st2" d="M-181.8,237.9h-3.5c-1,0-1.8-0.7-1.8-1.5s0.8-1.5,1.8-1.5h3.5c1,0,1.8,0.7,1.8,1.5S-180.8,237.9-181.8,237.9z"
		/>
	<path class="st3" d="M-216.4,265.9c-0.9,0-1.6,0.7-1.6,1.7v16.7c0,0.9,0.7,1.7,1.6,1.7h58.7c0.9,0,1.6-0.7,1.6-1.7v-16.7
		c0-0.9-0.7-1.7-1.6-1.7H-216.4z"/>
	<path class="st4" d="M-193.6,277.9h-9.8c-0.9,0-1.6-0.7-1.6-1.5s0.7-1.5,1.6-1.5h9.8c0.9,0,1.6,0.7,1.6,1.5
		S-192.7,277.9-193.6,277.9z"/>
	<path class="st4" d="M-181.8,277.9h-3.5c-1,0-1.8-0.7-1.8-1.5s0.8-1.5,1.8-1.5h3.5c1,0,1.8,0.7,1.8,1.5S-180.8,277.9-181.8,277.9z"
		/>
	<path class="st5" d="M-205,248.6v16.7c0,0.9,0.7,1.7,1.6,1.7h58.7c0.9,0,1.6-0.7,1.6-1.7v-16.7c0-0.9-0.7-1.7-1.6-1.7h-58.7
		C-204.3,246.9-205,247.6-205,248.6z"/>
	<path class="st6" d="M-180.6,257.9h-9.8c-0.9,0-1.6-0.7-1.6-1.5s0.7-1.5,1.6-1.5h9.8c0.9,0,1.6,0.7,1.6,1.5
		C-179,257.2-179.7,257.9-180.6,257.9z"/>
</g>
<path class="st6" d="M-386.8,477h-3.5c-1,0-1.8-0.7-1.8-1.5s0.8-1.5,1.8-1.5h3.5c1,0,1.8,0.7,1.8,1.5S-385.8,477-386.8,477z"/>
</svg>
