<?xml version="1.0" encoding="utf-8"?>
<!-- Generator: Adobe Illustrator 19.0.0, SVG Export Plug-In . SVG Version: 6.00 Build 0)  -->
<svg version="1.1" id="Layer_1" xmlns="http://www.w3.org/2000/svg" xmlns:xlink="http://www.w3.org/1999/xlink" x="0px" y="0px"
	 viewBox="-247 249 16 16" style="enable-background:new -247 249 16 16;" xml:space="preserve">
<style type="text/css">
	.st0{opacity:0;}
	.st1{fill:#111111;}
</style>
<g>
	<g class="st0">
		<path class="st1" d="M-244.5,249c-1.4,0-2.5,1.1-2.5,2.5V249H-244.5z"/>
		<path class="st1" d="M-232,251.5v9.8c-0.3-0.2-0.6-0.3-1-0.3h-12c-0.4,0-0.7,0.1-1,0.3v-9.8c0-0.8,0.7-1.5,1.5-1.5h11
			C-232.7,250-232,250.7-232,251.5z"/>
		<path class="st1" d="M-245,265h-2v-2c0,0,0,0.1,0,0.1C-246.9,264.1-246,265-245,265z"/>
		<path class="st1" d="M-232,263c0,0.5-0.5,1-1,1h-12c-0.5,0-1-0.5-1-1s0.5-1,1-1h12C-232.5,262-232,262.5-232,263z"/>
		<path class="st1" d="M-231,263v2h-2C-232,265-231.1,264.1-231,263C-231,263.1-231,263-231,263z"/>
		<path class="st1" d="M-231,249v2.5c0-1.4-1.1-2.5-2.5-2.5H-231z"/>
	</g>
	<g>
		<path class="st1" d="M-234.5,258c-0.1,0-0.2,0-0.3-0.1l-2.2-1.8l-2.2,1.8c-0.1,0.1-0.4,0.1-0.5,0.1c-0.2-0.1-0.3-0.3-0.3-0.5v-6
			c0-0.3,0.2-0.5,0.5-0.5s0.5,0.2,0.5,0.5v5l1.7-1.4c0.2-0.1,0.4-0.1,0.6,0l1.7,1.4v-5c0-0.3,0.2-0.5,0.5-0.5s0.5,0.2,0.5,0.5v6
			c0,0.2-0.1,0.4-0.3,0.5C-234.4,258-234.4,258-234.5,258z"/>
	</g>
	<g>
		<path class="st1" d="M-233.5,249h-11c-1.4,0-2.5,1.1-2.5,2.5V263c0,0,0,0.1,0,0.1c0,1,0.9,1.9,2,1.9h12c1,0,1.9-0.9,2-1.9
			c0,0,0-0.1,0-0.1v-11.5C-231,250.1-232.1,249-233.5,249z M-233,264h-12c-0.5,0-1-0.5-1-1s0.5-1,1-1h12c0.5,0,1,0.5,1,1
			S-232.5,264-233,264z M-232,261.3c-0.3-0.2-0.6-0.3-1-0.3h-12c-0.4,0-0.7,0.1-1,0.3v-9.8c0-0.8,0.7-1.5,1.5-1.5h11
			c0.8,0,1.5,0.7,1.5,1.5V261.3z"/>
	</g>
</g>
</svg>
