<?xml version="1.0" encoding="utf-8"?>
<!-- Generator: Adobe Illustrator 19.0.0, SVG Export Plug-In . SVG Version: 6.00 Build 0)  -->
<svg version="1.1" id="Layer_1" xmlns="http://www.w3.org/2000/svg" xmlns:xlink="http://www.w3.org/1999/xlink" x="0px" y="0px"
	viewBox="-243 245 24 24" style="enable-background:new -243 245 24 24;" xml:space="preserve">
	<style type="text/css">
		.st0{opacity:0;}
		.st1{fill:#006557;}
	</style>
	<g>
		<g class="st0">
			<rect x="-241" y="249.5" width="4" height="10"/>
			<rect x="-241" y="261.5" width="4" height="4"/>
			<rect x="-235" y="249.5" width="4" height="10"/>
			<rect x="-235" y="261.5" width="4" height="4"/>
			<polygon points="-228.2,261.8 -228.2,261.8 -228.6,259.8 		"/>
			<polygon points="-222.7,258.5 -226.6,259.4 -228.8,249.7 -224.9,248.8 		"/>
			<polygon points="-221.4,264.4 -225.3,265.3 -226.2,261.4 -222.3,260.5 		"/>
		</g>
		<g>
			<polygon class="st1" points="-228.2,261.8 -228.2,261.8 -228.6,259.8 		"/>
		</g>
		<g>
			<path class="st1" d="M-220,261.6l-0.3-1.5l-0.4-2l-2.4-10.6l-0.3-1.1l-4.9,1.1l-0.7,0.2v-0.2h-14v20h14V258l0.4,1.9l0.4,1.9
				l1.1,4.7l0.3,1.2l5.2-1.2l1.7-0.4l1-0.2L-220,261.6z M-237,265.5h-4v-4h4V265.5z M-237,259.5h-4v-10h4V259.5z M-231,265.5h-4v-4h4
				V265.5z M-231,259.5h-4v-10h4V259.5z M-228.8,249.7l3.9-0.9l2.2,9.8l-3.9,0.9L-228.8,249.7z M-225.3,265.3l-0.9-3.9l3.9-0.9
				l0.9,3.9L-225.3,265.3z"/>
			</g>
		</g>
	</svg>
