<?xml version="1.0" encoding="iso-8859-1"?>
<!-- Generator: Adobe Illustrator 19.0.0, SVG Export Plug-In . SVG Version: 6.00 Build 0)  -->
<svg version="1.1" id="Capa_1" xmlns="http://www.w3.org/2000/svg" xmlns:xlink="http://www.w3.org/1999/xlink" x="0px" y="0px"
	viewBox="0 0 512 512" style="enable-background:new 0 0 512 512;" xml:space="preserve" fill="#006557">
	<g>
		<g>
			<path d="M466,482h-15v-30H61c-16.569,0-30,13.431-30,30c0,16.567,13.431,30,30,30c174.426,0,234.553,0,405,0
				c8.291,0,15-6.709,15-15C481,488.709,474.291,482,466,482z"/>
			</g>
		</g>
		<g>
			<g>
				<path d="M226.908,202.348C196.985,209.336,181,220.315,181,226s15.985,16.664,45.908,23.652C226.337,241.828,226,233.914,226,226
					S226.337,210.172,226.908,202.348z"/>
				</g>
			</g>
			<g>
				<g>
					<path d="M314.535,197.465C305.671,196.606,296.322,196,286,196c-10.322,0-19.671,0.606-28.535,1.465
						C256.606,206.329,256,215.678,256,226s0.606,19.671,1.465,28.535C266.329,255.394,275.678,256,286,256
						c10.322,0,19.671-0.606,28.535-1.465C315.394,245.671,316,236.322,316,226S315.394,206.329,314.535,197.465z"/>
					</g>
				</g>
				<g>
					<g>
						<path d="M286,286c-7.914,0-15.828-0.337-23.652-0.908C269.336,315.015,280.315,331,286,331s16.664-15.985,23.652-45.908
							C301.828,285.663,293.914,286,286,286z"/>
						</g>
					</g>
					<g>
						<g>
							<path d="M345.092,202.348C345.663,210.172,346,218.086,346,226s-0.337,15.828-0.908,23.652C375.015,242.664,391,231.685,391,226
								S375.015,209.336,345.092,202.348z"/>
							</g>
						</g>
						<g>
							<g>
								<path d="M76,0C51.147,0,31,20.147,31,45v385.344C39.86,425.177,50.023,422,61,422h30V0H76z"/>
							</g>
						</g>
						<g>
							<g>
								<path d="M329.482,130.709c5.067,11.979,8.937,25.937,11.666,41.03c14.881,2.644,28.625,6.37,40.411,11.27
									C371.102,159.875,352.55,141.285,329.482,130.709z"/>
								</g>
							</g>
							<g>
								<g>
									<path d="M190.441,183.008c11.786-4.9,25.53-8.626,40.411-11.27c2.729-15.093,6.599-29.051,11.666-41.03
										C219.45,141.284,200.898,159.875,190.441,183.008z"/>
									</g>
								</g>
								<g>
									<g>
										<path d="M340.994,280.996c-2.723,14.808-6.53,28.517-11.512,40.296c22.897-10.498,41.312-28.913,51.81-51.81
											C369.513,274.464,355.802,278.273,340.994,280.996z"/>
										</g>
									</g>
									<g>
										<g>
											<path d="M286,121c-5.739,0-16.862,16.318-23.835,46.789c15.751-1.104,31.919-1.104,47.67,0C302.862,137.318,291.739,121,286,121z"
												/>
											</g>
										</g>
										<g>
											<g>
												<path d="M466,0H121v422h345c8.284,0,15-6.716,15-15V15C481,6.716,474.284,0,466,0z M286,360.998c-74.443,0-135-60.555-135-134.998
													c0-74.865,58.638-135,135-135c74.443,0,135,60.557,135,135C421,302.545,360.72,360.998,286,360.998z"/>
												</g>
											</g>
											<g>
												<g>
													<path d="M231.006,280.994c-14.808-2.723-28.519-6.53-40.298-11.512c10.497,22.897,28.912,41.312,51.81,51.81
														C237.536,309.513,233.729,295.802,231.006,280.994z"/>
													</g>
												</g>
												<g>
												</g>
												<g>
												</g>
												<g>
												</g>
												<g>
												</g>
												<g>
												</g>
												<g>
												</g>
												<g>
												</g>
												<g>
												</g>
												<g>
												</g>
												<g>
												</g>
												<g>
												</g>
												<g>
												</g>
												<g>
												</g>
												<g>
												</g>
												<g>
												</g>
											</svg>
