<?xml version="1.0" encoding="utf-8"?>
<!-- Generator: Adobe Illustrator 19.0.0, SVG Export Plug-In . SVG Version: 6.00 Build 0)  -->
<svg version="1.1" id="Layer_1" xmlns="http://www.w3.org/2000/svg" xmlns:xlink="http://www.w3.org/1999/xlink" x="0px" y="0px"
	 viewBox="-242.5 244.5 24 24" style="enable-background:new -242.5 244.5 24 24;" xml:space="preserve">
<style type="text/css">
	.st0{fill:#006557;}
</style>
<g>
	<path class="st0" d="M-233.5,257.5v11h6v-11H-233.5z M-231.5,259.5h2v7h-2V259.5z"/>
	<path class="st0" d="M-242.5,261.5v7h6v-7H-242.5z M-240.5,263.5h2v3h-2V263.5z"/>
	<path class="st0" d="M-224.5,253.5v15h6v-15H-224.5z M-222.5,255.5h2v11h-2V255.5z"/>
	<polygon class="st0" points="-221.5,244.5 -221.5,251.5 -223.5,251.5 -223.5,247.9 -230.5,254.9 -234.5,250.9 -238.8,255.2 
		-240.2,253.8 -234.5,248.1 -230.5,252.1 -224.9,246.5 -228.5,246.5 -228.5,244.5 	"/>
</g>
</svg>
