<?xml version="1.0" encoding="utf-8"?>
<!-- Generator: Adobe Illustrator 19.0.0, SVG Export Plug-In . SVG Version: 6.00 Build 0)  -->
<svg version="1.1" id="Layer_1" xmlns="http://www.w3.org/2000/svg" xmlns:xlink="http://www.w3.org/1999/xlink" x="0px" y="0px"
	 viewBox="-247 249 16 16" style="enable-background:new -247 249 16 16;" xml:space="preserve">
<style type="text/css">
	.st0{opacity:0;}
	.st1{fill:#111111;}
</style>
<g class="st0">
	<rect x="-247" y="249" width="16" height="16"/>
</g>
<g class="st0">
	<rect x="-247" y="249" width="16" height="16"/>
</g>
<g>
	<path class="st1" d="M-235.5,255h-7c-0.3,0-0.5-0.2-0.5-0.5s0.2-0.5,0.5-0.5h7c0.3,0,0.5,0.2,0.5,0.5S-235.2,255-235.5,255z"/>
</g>
<g>
	<path class="st1" d="M-235.5,258h-7c-0.3,0-0.5-0.2-0.5-0.5s0.2-0.5,0.5-0.5h7c0.3,0,0.5,0.2,0.5,0.5S-235.2,258-235.5,258z"/>
</g>
<g>
	<path class="st1" d="M-233.5,265c-0.1,0-0.2,0-0.2-0.1l-3.8-2.1c-0.5,0.1-1,0.1-1.4,0.1c-4.4,0-8-3.1-8-7c0-3.9,3.6-7,8-7
		s8,3.1,8,7c0,1.7-0.7,3.3-2,4.6v3.9c0,0.2-0.1,0.3-0.2,0.4C-233.3,265-233.4,265-233.5,265z M-237.5,261.9c0.1,0,0.2,0,0.2,0.1
		l3.2,1.7v-3.3c0-0.1,0.1-0.3,0.2-0.4c1.2-1.1,1.8-2.5,1.8-4c0-3.3-3.1-6-7-6c-3.9,0-7,2.7-7,6s3.1,6,7,6
		C-238.5,262-238,262-237.5,261.9C-237.5,261.9-237.5,261.9-237.5,261.9z"/>
</g>
</svg>
