<?xml version="1.0" encoding="utf-8"?>
<!-- Generator: Adobe Illustrator 19.0.0, SVG Export Plug-In . SVG Version: 6.00 Build 0)  -->
<svg version="1.1" id="Layer_1" xmlns="http://www.w3.org/2000/svg" xmlns:xlink="http://www.w3.org/1999/xlink" x="0px" y="0px"
	 viewBox="-246.5 249.5 15 15" style="enable-background:new -246.5 249.5 15 15;" xml:space="preserve">
<style type="text/css">
	.st0{fill:#111111;}
</style>
<path class="st0" d="M-231.7,252.7l-0.3-0.4l-2.3-2.3l-0.4-0.3c-0.2-0.2-0.5-0.2-0.7,0l-0.4,0.3l-1.6,1.7l-8,8c0,0-0.1,0.1-0.1,0.1
	c0,0,0,0,0,0c0,0,0,0,0,0.1v0c0,0,0,0,0,0l-0.5,2.1l-0.5,1.9c-0.1,0.2,0,0.3,0.1,0.5c0.1,0.1,0.2,0.2,0.3,0.2c0,0,0.1,0,0.1,0l2-0.5
	l2-0.5h0c0,0,0,0,0.1,0c0.1,0,0.1-0.1,0.2-0.1l8-8l1.7-1.6l0.3-0.4C-231.5,253.2-231.5,252.8-231.7,252.7z M-245.3,263.3l0.6-2.3
	l1.8,1.8L-245.3,263.3z M-242,262.3l-2.3-2.3l7.3-7.3l2.3,2.3L-242,262.3z M-234,254.3l-2.3-2.3l1.3-1.3l2.3,2.3L-234,254.3z"/>
</svg>
