<?xml version="1.0" encoding="utf-8"?>
<!-- Generator: Adobe Illustrator 19.0.0, SVG Export Plug-In . SVG Version: 6.00 Build 0)  -->
<svg version="1.1" id="Layer_1" xmlns="http://www.w3.org/2000/svg" xmlns:xlink="http://www.w3.org/1999/xlink" x="0px" y="0px"
	 viewBox="-247 249 16 16" style="enable-background:new -247 249 16 16;" xml:space="preserve">
<style type="text/css">
	.st0{fill:#386FFF;}
</style>
<g>
	<path class="st0" d="M-231.5,250h-4c-0.3,0-0.5,0.2-0.5,0.5v4c0,0.3,0.2,0.5,0.5,0.5h4c0.3,0,0.5-0.2,0.5-0.5v-4
		C-231,250.2-231.2,250-231.5,250z M-232,254h-3v-3h3V254z"/>
	<path class="st0" d="M-231.5,259h-4c-0.3,0-0.5,0.2-0.5,0.5v4c0,0.3,0.2,0.5,0.5,0.5h4c0.3,0,0.5-0.2,0.5-0.5v-4
		C-231,259.2-231.2,259-231.5,259z M-232,263h-3v-3h3V263z"/>
	<path class="st0" d="M-237,261.5c0,0.3-0.2,0.5-0.5,0.5h-1v2.5c0,0.3-0.2,0.5-0.5,0.5s-0.5-0.2-0.5-0.5v-7h-1
		c-0.3,0-0.5-0.2-0.5-0.5s0.2-0.5,0.5-0.5h1v-7c0-0.3,0.2-0.5,0.5-0.5s0.5,0.2,0.5,0.5v2.5h1c0.3,0,0.5,0.2,0.5,0.5
		s-0.2,0.5-0.5,0.5h-1v8h1C-237.2,261-237,261.2-237,261.5z"/>
	<path class="st0" d="M-242.5,254.5h-4c-0.3,0-0.5,0.2-0.5,0.5v4c0,0.3,0.2,0.5,0.5,0.5h4c0.3,0,0.5-0.2,0.5-0.5v-4
		C-242,254.7-242.2,254.5-242.5,254.5z M-243,258.5h-3v-3h3V258.5z"/>
</g>
</svg>
