<?xml version="1.0" encoding="utf-8"?>
<!-- Generator: Adobe Illustrator 19.0.0, SVG Export Plug-In . SVG Version: 6.00 Build 0)  -->
<svg version="1.1" id="Layer_1" xmlns="http://www.w3.org/2000/svg" xmlns:xlink="http://www.w3.org/1999/xlink" x="0px" y="0px"
	 viewBox="-247 249 16 16" style="enable-background:new -247 249 16 16;" xml:space="preserve">
  <style type="text/css">
	.st0{fill:white;}
</style>
<g>
	<path class="st0" d="M-240.5,256h-6c-0.3,0-0.5-0.2-0.5-0.5v-6c0-0.3,0.2-0.5,0.5-0.5h6c0.3,0,0.5,0.2,0.5,0.5v6
		C-240,255.8-240.2,256-240.5,256z M-246,255h5v-5h-5V255z"/>
	<path class="st0" d="M-240.5,265h-6c-0.3,0-0.5-0.2-0.5-0.5v-6c0-0.3,0.2-0.5,0.5-0.5h6c0.3,0,0.5,0.2,0.5,0.5v6
		C-240,264.8-240.2,265-240.5,265z M-246,264h5v-5h-5V264z"/>
	<path class="st0" d="M-231.5,251h-6c-0.3,0-0.5-0.2-0.5-0.5s0.2-0.5,0.5-0.5h6c0.3,0,0.5,0.2,0.5,0.5S-231.2,251-231.5,251z"/>
	<path class="st0" d="M-231.5,255h-6c-0.3,0-0.5-0.2-0.5-0.5s0.2-0.5,0.5-0.5h6c0.3,0,0.5,0.2,0.5,0.5S-231.2,255-231.5,255z"/>
	<path class="st0" d="M-231.5,260h-6c-0.3,0-0.5-0.2-0.5-0.5s0.2-0.5,0.5-0.5h6c0.3,0,0.5,0.2,0.5,0.5S-231.2,260-231.5,260z"/>
	<path class="st0" d="M-231.5,264h-6c-0.3,0-0.5-0.2-0.5-0.5s0.2-0.5,0.5-0.5h6c0.3,0,0.5,0.2,0.5,0.5S-231.2,264-231.5,264z"/>
</g>
</svg>
