<?xml version="1.0" encoding="iso-8859-1"?>
<!-- Generator: Adobe Illustrator 19.0.0, SVG Export Plug-In . SVG Version: 6.00 Build 0)  -->
<svg version="1.1" id="Layer_1" xmlns="http://www.w3.org/2000/svg" xmlns:xlink="http://www.w3.org/1999/xlink" x="0px" y="0px"
	viewBox="0 0 512 512" style="enable-background:new 0 0 512 512;" xml:space="preserve" fill="#006557">
	<g>
		<g>
			<path d="M288,128c-25.916,0-47,21.084-47,47s21.084,47,47,47c25.916,0,47-21.084,47-47S313.916,128,288,128z"/>
		</g>
	</g>
	<g>
		<g>
			<path d="M448,448c8.284,0,15-6.716,15-15V47c0-25.916-21.084-47-47-47H96C70.084,0,49,21.084,49,47v418c0,25.916,21.084,47,47,47
				h352c8.284,0,15-6.716,15-15s-6.716-15-15-15c-9.374,0-17-7.626-17-17C431,455.626,438.626,448,448,448z M178.343,157.516
				c7.06-45.999,43.93-83.731,89.662-91.759c32.858-5.771,66.151,3.054,91.34,24.206C384.546,111.125,399,142.12,399,175
				c0,33.05-14.399,63.843-39.626,85.015l-58.01,113.797c-5.556,10.898-21.173,10.897-26.729,0l-58.011-113.8
				C187.376,235.428,172.244,197.26,178.343,157.516z M79,47c0-9.374,7.626-17,17-17h17v388H96c-5.994,0-11.724,1.14-17,3.195V47z
				M404.181,482H96c-9.374,0-17-7.626-17-17c0-9.374,7.626-17,17-17h308.181c-2.054,5.274-3.181,11.008-3.181,17
				S402.127,476.726,404.181,482z"/>
			</g>
		</g>
	</svg>
