<?xml version="1.0" encoding="utf-8"?>
<!-- Generator: Adobe Illustrator 19.0.0, SVG Export Plug-In . SVG Version: 6.00 Build 0)  -->
<svg version="1.1" id="Layer_1" xmlns="http://www.w3.org/2000/svg" xmlns:xlink="http://www.w3.org/1999/xlink" x="0px" y="0px"
	 viewBox="-214 364.8 182 64.5" style="enable-background:new -214 364.8 182 64.5;" xml:space="preserve">
<style type="text/css">
	.st0{fill:#D7272D;}
</style>
<g>
	<path class="st0" d="M-93.6,396.5c-0.1,0-2.4-0.8-3-1.8c0,0,2.1-2.4,3.2,1.8C-93.4,396.6-93.5,396.6-93.6,396.5z M-93.8,391
		c-2-0.4-3.8,2.6-3.8,2.6s-0.3-0.2-0.3-0.2c-0.1,0-1.4,1.7-1.6,2c-2.1,2.8-4.2,2.5-4.2,2.5c-3.9,0-5.2-3.4-5.3-3.6
		c-0.9-1.9-1-1.8-1.2-1.9c-0.3-0.2-1.5-0.1-3.2,1.4c-1.7,1.5-3.1,5.3-3.1,5.4c-2.1,6.8-3,6.6-3.8,6.6c-0.8,0-1.4-0.9-2-2.1
		c-0.6-1.2-1-4.3-1-5.6c0-1.3,0.1-1.8,0-1.7c-0.1,0-0.4,0.5-0.5,0.8c-0.3,1.8-0.1,4.1-0.1,4.3c0.1,2.2,1.6,6.4,3.6,6.4
		c2,0,2.8-3,3-3.4c0.4-1.1,1-3.7,2.2-6.3c1.2-2.5,3.6-2.6,3.8-2.5c0.2,0.1,2.4,5.2,6.3,5.4c3.8,0.2,5.1-2.9,5.4-3.5
		c0.3-0.6,0.6-0.7,0.7-0.8c0.1-0.1,0.3,0.1,0.3,0.1c0.6,1.2,5.1,3.7,6,2.8c0.9-0.9,1.5-2.6,1.5-3C-91,396.4-91.8,391.4-93.8,391z"/>
	<path class="st0" d="M-133.9,383.1l-0.1-0.2l1.1,0l0.5,0c0,0-0.1-0.4-0.5-0.6c-0.2-0.1-3.3-2-4-2.2c0,0-0.6,3.4-0.6,3.4
		s0.8,0,0.9,0.3c0.2,0.3,1.6,2.3,2.2,2.9c0.6,0.6,3,3,7.8,5c1.8,0.5,2.4,1.7,2.4,1.7s-2,1.7-3.7,2.8c-0.5,0.4-8.4,5.5-11.7,7
		c-0.1,0-3.3,1.5-4,0.2c-0.7-1.2-0.8-2.3,0.5-5.9c0,0,0.4-1,0.4-1l0.3-1c0,0-0.8,0.9-1.9,4.1c-0.6,1.5-1.4,5.4,0.1,6.7
		c1.4,1.3,2.8,0.9,5.4-0.3c3-1.4,13.4-7.7,14.9-9.8c0.7-0.9,0.8-2,0.8-2.4c0-0.3,0.3-2.7-0.8-3.8c-0.7-0.7-1.2-1-2.6-1.7
		c-1.5-0.7-5.3-2.7-6.8-4.5C-133.3,383.6-133.9,383.1-133.9,383.1z"/>
	<path class="st0" d="M-138,392.8l1.6-2.8l3.4,2.1l-1.6,2.9L-138,392.8z"/>
	<path class="st0" d="M-167,409.8l1.6-2.8l3.4,2.1l-1.6,2.9L-167,409.8z"/>
	<path class="st0" d="M-162,408.8l1.6-2.8l3.4,2.1l-1.6,2.9L-162,408.8z"/>
	<path class="st0" d="M-123,387.8l1.6-2.8l3.4,2.1l-1.6,2.9L-123,387.8z"/>
	<path class="st0" d="M-118,386.8l1.6-2.8l3.4,2.1l-1.6,2.9L-118,386.8z"/>
	<path class="st0" d="M-145.5,376.9l-0.1-0.3l1.6,0.1c0,0,0-0.3-0.3-0.6c-0.2-0.2-3.4-3.1-3.4-3.1l-1,3.4c0,0,0.7,0.4,0.8,0.6
		c0.1,0.2,0.7,2.1,1.1,2.7c0.3,0.6,2.3,3.9,2.6,4.5c0,0,0.4,0.5,0.4,1.4c0,0-0.1,0.2-0.1,0.2c0,0-2.2,1.4-4.6,1.6l-1.5,0l-1.4,2.7
		c0,0,1.6,0.6,1.7,0.7c0.1,0.1,2.2,0.9,3.5,1.3c1.2,0.3,3,0.7,3.3,1c0.7,0.3,0.7,0.9,0.7,0.9s-4.6,3.5-14.9,5.8
		c-0.9,0.1-14.6,2.9-26.7-1.5c-0.2-0.1-5.9-2-10-5.3c-0.4-0.4-3.6-3.2-3.6-3.2l-1.7-1.8l0.8,1.7c0,0,4.9,7.2,5.2,7.4
		c0.2,0.2,4.6,4,15.3,6.4c4.7,1.1,14,0.6,18.2-0.1c4.3-0.7,14.6-3.5,17.8-7.2c0.2-0.2,1.8-3.2,1.7-4.1c0.1-1-0.8-1.9-1.4-2
		c-0.6-0.1-3.4-0.9-3.7-1c0.1,0.1,2.8-1.5,2.8-4.5c0.1-2.4-0.5-3-0.6-3.3c-0.1-0.3-2.4-3.8-2.4-3.8L-145.5,376.9z"/>
	<path class="st0" d="M-163.1,383.1l-1.7,2.9v0.1c0,0,4.3,0,4.9,0.2c0.4,0.2,0,0.5,0,0.5s-3.6,1.5-4.7,1.9c-0.2,0.1-0.3,0.3-0.3,0.3
		s4-0.3,5-0.7c1.2-0.9,2.8-3.4,2.9-3.7c0.1-0.3,0.1-0.4,0-0.5c-0.1-0.1-0.6-1-3.1-1.1C-162.7,383-163.1,383.1-163.1,383.1z"/>
	<path class="st0" d="M-139.4,365.6c0,0-14.7,5-22.8,7.7c-8,2.7-19.8,7.6-19.8,7.6l-1.7,3c0,0,20.1-7.6,21-7.9
		c0.9-0.4,21.9-7.8,21.9-7.8L-139.4,365.6z"/>
	<path class="st0" d="M-128.2,368.6c0,0-1.3-1.2-1.5-1.3c-0.3-0.2-0.3-0.5-0.3-0.5c1.3-0.9,1.8-0.3,2,0.1
		C-127.7,367.6-128.2,368.6-128.2,368.6z M-127.5,369c1.4-3.2,0.3-3.9,0-4.1c-0.7-0.4-1.5,0.1-2.2,0.7c-0.8,0.7-1.3,1.4-1.2,2.4
		c0.1,0.9,1.7,2,1.9,2.1c0,0,0,0,0,0l0,0c-0.7,0.9-3.4,3.6-6.1,5.4c-1.7,1.2-6.4,4.5-6.4,4.5s1.1-0.4,1.2-0.5c0.7-0.3,3.7-2,6.2-3.6
		c2.5-1.5,5.5-5.5,5.5-5.5s0.1,0.1,0.2,0.1c0.5,0.2,1.1,1.4,1.1,1.4s0,0.1,0.2-0.1c0.2-0.2,0.3-1.6,0.3-1.9
		C-126.7,369.7-127.5,369-127.5,369z"/>
	<path class="st0" d="M-109.5,369.8c0,0-1.3-1.1-1.5-1.3c-0.3-0.2-0.3-0.5-0.3-0.5c1.3-0.9,1.8-0.3,2,0.1
		C-109,368.8-109.5,369.8-109.5,369.8z M-108.9,370.2c1.4-3.1,0.3-3.8,0-4c-0.7-0.4-1.5,0.1-2.3,0.7c-0.9,0.7-1.3,1.4-1.2,2.4
		c0.1,0.9,1.7,1.9,2,2.1c0,0,0,0,0,0l0,0c-0.7,0.9-3.4,3.5-6.2,5.3c-1.8,1.1-6.6,4.4-6.6,4.4s1.1-0.4,1.2-0.5c0.7-0.3,3.7-2,6.3-3.5
		c2.6-1.5,5.6-5.3,5.6-5.3s0.1,0.1,0.2,0.1c0.5,0.2,1.1,1.4,1.1,1.4s0,0.1,0.2-0.1c0.2-0.2,0.3-1.5,0.3-1.9
		S-108.9,370.2-108.9,370.2z"/>
	<path class="st0" d="M-57.2,377c0,0-1.1-0.9-1.2-1c-0.3-0.2-0.3-0.4-0.3-0.4c1-0.7,1.5-0.3,1.6,0.1C-56.8,376.2-57.2,377-57.2,377z
		 M-56.7,377.3c1.1-2.5,0.2-3.1,0-3.2c-0.5-0.3-1.2,0.1-1.8,0.6c-0.7,0.5-1,1.1-0.9,1.9c0.1,0.7,1.4,1.5,1.6,1.7c0,0,0,0,0,0l0,0
		c-0.6,0.7-2.8,2.8-5,4.2c-1.4,0.9-5.2,3.5-5.2,3.5s0.9-0.3,1-0.4c0.5-0.2,3-1.6,5.1-2.8c2.1-1.2,4.5-4.3,4.5-4.3s0.1,0.1,0.1,0.1
		c0.4,0.2,0.9,1.1,0.9,1.1s0,0.1,0.1-0.1c0.1-0.2,0.3-1.2,0.3-1.5C-56,377.9-56.7,377.3-56.7,377.3z"/>
	<path class="st0" d="M-101.6,372.8l0,0.4c0,0-0.5-0.5-1.3-0.7c0,0-0.2-0.1-0.2-0.1c0,0,0.1-1.4,0.2-1.5c0.1-0.1,0.4-0.3,0.4-0.3
		s1.6,0.6,2.3,3.7c0,0,0.3,1.4,0.3,1.4l0.1-0.8c0,0,0.3-3.3,0.4-3.6c0.1-0.4,0.4-1.2,0.9-1.2c0.5,0,1.4,0.9,1.4,0.9l-0.4,1.2
		c0,0-0.7-0.7-1-0.7c-0.6,0-0.7,1-0.8,2.7c-0.1,1.7-0.2,2.1-0.4,2.4c-0.1,0.3-0.2,0.5-0.2,0.5C-100.3,374.1-101.5,372.7-101.6,372.8
		"/>
	<path class="st0" d="M-75.6,379.8v0.4c0,0-0.5-0.5-1.3-0.7c0,0-0.2-0.1-0.2-0.1c0,0,0.1-1.4,0.2-1.5c0.1-0.1,0.4-0.3,0.4-0.3
		c0.1,0,1.6,0.7,2.3,3.7c0,0,0.3,1.4,0.3,1.4l0.1-0.8c0,0,0.3-3.3,0.4-3.6c0.1-0.4,0.4-1.2,0.9-1.2c0.5,0,1.4,0.9,1.4,0.9l-0.4,1.2
		c0,0-0.7-0.7-1-0.7c-0.6,0-0.7,1-0.8,2.7c-0.1,1.7-0.2,2.1-0.4,2.4c-0.1,0.3-0.2,0.5-0.2,0.5C-74.3,381.1-75.5,379.7-75.6,379.8"/>
	<path class="st0" d="M-100.5,385c0,0-0.3,0.1-0.5,0.3c-0.1,0.1-1.2,1.3-1.8,3.3c-0.6,2.1,0.8,2.4,0.8,2.4s0.9,0.3,1.7-1.3
		c0,0,0.3-0.5,0.3-0.8c0,0,0-0.2-0.2-0.1c-0.4,0.3-0.3,0.7-0.5,0.8c-0.3,0.3-0.3,0.2-0.4,0.2c-0.1,0-1.4,0-1-1.7
		c0.5-1.2,0.7-1.7,1.2-2.4C-100.9,385.7-100.5,385-100.5,385z"/>
	<path class="st0" d="M-154.5,390c0,0-0.3,0.1-0.5,0.3c-0.1,0.1-1.2,1.3-1.8,3.3c-0.6,2.1,0.8,2.4,0.8,2.4s0.9,0.3,1.7-1.3
		c0,0,0.3-0.5,0.3-0.8c0,0,0-0.2-0.2-0.1c-0.4,0.3-0.3,0.7-0.5,0.8c-0.3,0.3-0.3,0.2-0.4,0.2c-0.1,0-1.4,0-1-1.7
		c0.5-1.2,0.7-1.7,1.2-2.4C-154.9,390.7-154.5,390-154.5,390z"/>
	<path class="st0" d="M-90,376c0,0-7.5,2.5-10.8,3.7c-3.3,1.1-9.6,3.8-9.6,3.8l-0.6,1.6c0,0,18.3-7,19.8-7.2
		C-91.2,377.7-90,376-90,376z"/>
	<path class="st0" d="M-59.7,395.6c-2.4,0.9-6.1,1.7-6.1,1.7s-1.4-4.4-1.3-4.7c0.1-0.3,0.7-1.3,1.6-1.6c0.9-0.3,2.8-0.4,4.7,0.6
		c1.9,0.9,4.9,2.3,5.2,2.3c0.3,0.1,0.4,0.1,0.4,0.1S-59.3,395.4-59.7,395.6z M-86.3,396.9c0,0-0.1-0.2,0-0.3c0.1-0.1,0.5-1,1.6-0.8
		c0,0,1.4,0.5,1.9,1.5C-82.9,397.3-85.5,397.6-86.3,396.9z M-48.7,392.5c-1.2-0.1-5-1-9.2-3.2c-4.1-2.2-6.3-1.6-6.4-1.6
		c-4,1-4.1,5.5-4.1,6.1c0,0.6,0.8,3.3,0.8,3.3s-0.3-0.1-0.4-0.1c-3-1.2-4.9-4.5-5.2-5c-2.5-4.2-7.7-9.7-8.2-10.2
		c-0.5-0.5-5-4.8-5-4.8l2.7-1.4c8.3-3.5,16.3-5.8,20.4-6.4c2.9-0.4,2.5,1.6,2.3,1.8c-0.1,0.2-1.5,2.6-1.7,2.8
		c-0.2,0.3-1.9,3.8-2.3,4.9c-0.6,1.7-0.4,2.1-0.4,2.1s0.6-1.1,0.6-1.1c0.8-1.9,2.4-4.7,3.7-7c0.8-1.5,1.9-2.8,2-5.1
		c0.1-2.4-6.2-1-6.3-0.9c-12.7,3-21.7,7.8-21.7,7.8l-1,1.8l-0.7,2.2c0,0,2.7,3.3,2.8,3.3c3.8,4.6,8.8,12.5,8.8,12.7
		c0.1,0.4,0.3,0.7,0.1,0.9c-0.4,0.5-3.2,1.3-3.2,1.3l-0.2-0.4c-4.2-7.6-7.4-1.2-7.5-0.8c-1.3,2.5,0.1,3.6,0.1,3.7
		c1.7,2.3,6.1,0.8,6.2,1c0.1,0.2,0.4,0.9,0.4,1c-5.8,6.3-11.8,7.8-12.9,7.9c-6.1,0.4-5.7-4.7-5.5-6.4c0.2-1.6,1.4-5.4,1.4-5.4
		l-0.6,0.5c0,0-0.1,0.2-0.3,0.5c-1.4,2.6-1.7,6.1-1.7,6.6c-0.1,8.9,7,8.8,12.7,4.9c5.8-4,6.6-5.4,7.3-6.5c0.6-0.9,0.9-3.6,0.9-3.6
		l2.2-1c0,0,1.4-1.1,1.6-3.3c0.3-2.3-0.4-3.5-0.4-3.5l0-0.3c0,0,1.6,2.7,4.2,6c2.6,3.3,5.5,3,5.5,3l0.2,2.1l0.2-0.1
		c0,0,0.1,0,0.3-0.5c0.2-0.5,0.3-1.7,0.3-1.7s0.7-0.2,0.8-0.2c2.8-0.5,10-4.2,12.9-4.7c1.3-0.2,3,0,3,0l1.4-3
		C-47.7,392.6-47.9,392.6-48.7,392.5z M-47.7,392.5L-47.7,392.5C-47.6,392.6-47.7,392.5-47.7,392.5z"/>
	<path class="st0" d="M-205.7,419.6c-0.5-0.3-1.1-0.4-1.8-0.4c-0.5,0-0.9,0.1-1.4,0.3c-0.5,0.2-0.9,0.5-1.3,0.9
		c-0.4,0.4-0.7,0.9-0.9,1.5c-0.2,0.6-0.3,1.3-0.3,2.1c0,0.6,0.1,1.2,0.3,1.7c0.2,0.5,0.4,1,0.7,1.4c0.3,0.4,0.7,0.7,1.2,0.9
		c0.5,0.2,1,0.3,1.6,0.3c0.1,0,0.3,0,0.5,0s0.3,0,0.5-0.1c0.2,0,0.3,0,0.4-0.1c0.1,0,0.2-0.1,0.3-0.1c0-0.1,0-0.3,0-0.5
		c0-0.2,0-0.4,0-0.6c0-0.8,0-1.5,0-1.9c0-0.4,0-0.7-0.1-0.8c0.1,0,0.2,0,0.4,0.1c0.2,0,0.4,0,0.7,0c0.4,0,0.6,0,0.8,0
		c0.2,0,0.3,0,0.4-0.1c0,0.1,0,0.2-0.1,0.4c0,0.2,0,0.4,0,0.6c0,0.2,0,0.5,0,0.8c0,0.3,0,0.5,0,0.8v0.5c0,0.3,0,0.5,0,0.7
		c0,0.2,0,0.4,0,0.5c-0.7,0.2-1.4,0.4-2.1,0.5c-0.7,0.1-1.4,0.2-2.1,0.2c-0.9,0-1.7-0.1-2.5-0.4c-0.7-0.2-1.4-0.6-1.9-1
		c-0.5-0.4-1-1-1.3-1.6c-0.3-0.6-0.5-1.4-0.5-2.2c0-1,0.2-1.8,0.5-2.6c0.3-0.7,0.8-1.4,1.3-1.9c0.6-0.5,1.3-0.9,2-1.1
		c0.8-0.2,1.6-0.4,2.5-0.4c0.8,0,1.5,0.1,2,0.2c0.6,0.2,1.1,0.4,1.7,0.7c-0.1,0.3-0.2,0.5-0.2,0.8c-0.1,0.3-0.1,0.5-0.2,0.8h-0.2
		C-204.8,420.2-205.3,419.9-205.7,419.6z"/>
	<path class="st0" d="M-192.8,421.4c-0.2-0.5-0.4-1-0.7-1.4c-0.3-0.4-0.7-0.7-1.1-0.9c-0.4-0.2-0.9-0.3-1.4-0.3
		c-0.5,0-1,0.1-1.4,0.4c-0.4,0.3-0.8,0.6-1.1,1c-0.3,0.4-0.5,0.9-0.7,1.5c-0.2,0.6-0.2,1.2-0.2,1.9c0,0.8,0.1,1.5,0.3,2.1
		c0.2,0.6,0.4,1,0.7,1.4c0.3,0.3,0.7,0.6,1.1,0.7c0.4,0.2,0.8,0.2,1.3,0.2c0.5,0,0.9-0.1,1.4-0.3c0.4-0.2,0.8-0.5,1.1-0.9
		c0.3-0.4,0.6-0.9,0.8-1.5c0.2-0.6,0.3-1.3,0.3-2.2C-192.6,422.5-192.7,421.9-192.8,421.4z M-201.6,421.4c0.3-0.7,0.7-1.3,1.2-1.8
		c0.5-0.5,1.2-0.9,1.9-1.2c0.7-0.3,1.6-0.4,2.5-0.4c0.8,0,1.6,0.1,2.3,0.3c0.7,0.2,1.4,0.6,1.9,1c0.5,0.5,1,1,1.3,1.7
		c0.3,0.7,0.5,1.5,0.5,2.4c0,0.8-0.1,1.5-0.4,2.2c-0.3,0.7-0.7,1.3-1.2,1.8c-0.5,0.5-1.2,0.9-1.9,1.2c-0.7,0.3-1.5,0.4-2.4,0.4
		c-0.8,0-1.6-0.1-2.3-0.3c-0.7-0.2-1.4-0.5-1.9-1c-0.5-0.4-1-1-1.3-1.7c-0.3-0.7-0.5-1.5-0.5-2.5C-202,422.8-201.9,422-201.6,421.4z
		"/>
	<path class="st0" d="M-182.8,421.9c0.5-1.4,1-2.7,1.4-3.9c0.3,0.1,0.5,0.1,0.7,0.1c0.2,0,0.4,0,0.7-0.1c-0.3,0.6-0.6,1.4-0.9,2.3
		c-0.4,0.9-0.8,1.8-1.2,2.8c-0.4,1-0.8,2-1.2,3c-0.4,1-0.7,2-1,2.9c-0.2,0-0.4,0-0.7,0c-0.3,0-0.5,0-0.7,0c-0.2-0.4-0.4-0.9-0.6-1.6
		c-0.2-0.6-0.5-1.3-0.7-1.9c-0.3-0.7-0.5-1.4-0.8-2.1c-0.3-0.7-0.6-1.4-0.8-2.1c-0.3-0.7-0.5-1.3-0.7-1.9c-0.2-0.6-0.4-1.1-0.6-1.5
		c0.2,0,0.5,0,0.7,0.1c0.2,0,0.5,0,0.7,0c0.2,0,0.5,0,0.7,0c0.2,0,0.5,0,0.7-0.1c0.2,0.6,0.4,1.2,0.6,1.9c0.2,0.7,0.5,1.3,0.7,2
		c0.2,0.7,0.5,1.4,0.8,2.1c0.3,0.7,0.5,1.4,0.8,2.1C-183.8,424.7-183.3,423.3-182.8,421.9z"/>
	<path class="st0" d="M-178.9,420.1c0-0.7-0.1-1.4-0.1-2.1c0.5,0,0.9,0,1.4,0c0.5,0,0.9,0,1.4,0c0.8,0,1.4,0,2,0c0.6,0,1,0,1.2-0.1
		c0,0.2-0.1,0.4-0.1,0.7c0,0.2,0,0.3,0,0.4c0,0.1,0,0.2,0,0.3c-0.3,0-0.6,0-1-0.1c-0.4,0-0.7,0-1-0.1c-0.3,0-0.6,0-0.9,0
		c-0.3,0-0.5,0-0.6,0c0,0.6-0.1,1.2-0.1,1.7c0,0.6,0,1.2,0,1.7c0.7,0,1.3,0,1.8,0c0.5,0,1.1,0,1.7-0.1c0,0.2-0.1,0.3-0.1,0.4
		c0,0.1,0,0.2,0,0.3c0,0.1,0,0.2,0,0.3c0,0.1,0,0.2,0.1,0.4c-1.2-0.1-2.3-0.1-3.5-0.1c0,0.3,0,0.7,0,1c0,0.3,0,0.7,0,1
		c0,0.7,0,1.4,0,2c0.6,0,1.2,0,1.8,0c0.6,0,1.2-0.1,1.8-0.1c0,0.1,0,0.2,0,0.3c0,0.1,0,0.2,0,0.4c0,0.2,0,0.3,0,0.4
		c0,0.1,0,0.2,0,0.2c-0.3,0-0.6,0-1,0c-0.4,0-1,0-1.7,0c-0.6,0-1.1,0-1.5,0c-0.4,0-0.7,0-0.9,0c-0.2,0-0.4,0-0.5,0
		c-0.1,0-0.2,0-0.3,0c0-0.7,0.1-1.3,0.1-2c0-0.7,0-1.5,0-2.4v-2.2C-178.9,421.5-178.9,420.8-178.9,420.1z"/>
	<path class="st0" d="M-166.4,419.9c-0.1-0.3-0.2-0.5-0.4-0.6c-0.2-0.1-0.4-0.2-0.7-0.3c-0.3,0-0.7-0.1-1.1-0.1c0,1.5,0,2.9,0,4.4
		c0.1,0,0.1,0,0.2,0c0.1,0,0.1,0,0.2,0c0.7,0,1.2-0.2,1.5-0.6c0.4-0.4,0.5-1,0.5-1.7C-166.2,420.5-166.3,420.2-166.4,419.9z
		 M-168.6,424v0.7c0,0.9,0,1.7,0,2.4c0,0.7,0,1.4,0.1,2c-0.2,0-0.4,0-0.6,0c-0.2,0-0.4,0-0.7,0c-0.3,0-0.5,0-0.7,0
		c-0.2,0-0.4,0-0.6,0c0-0.7,0.1-1.3,0.1-2c0-0.7,0-1.5,0-2.4v-2.2c0-0.9,0-1.7,0-2.4c0-0.7,0-1.4-0.1-2.1c0.2,0,0.4,0,0.6,0.1
		c0.2,0,0.4,0,0.7,0c0.3,0,0.6,0,0.9,0c0.4,0,0.8,0,1.3,0c0.4,0,0.7,0,1,0c0.3,0,0.5,0.1,0.7,0.1c0.2,0,0.4,0.1,0.5,0.2
		c0.1,0.1,0.3,0.2,0.4,0.2c0.3,0.2,0.5,0.5,0.7,0.9c0.2,0.3,0.3,0.8,0.3,1.2c0,0.8-0.2,1.4-0.6,1.9c-0.4,0.5-1,0.8-1.8,1
		c0.5,0.9,1,1.8,1.6,2.7c0.6,0.9,1.1,1.8,1.7,2.7c-0.2,0-0.5,0-0.7,0c-0.2,0-0.5,0-0.7,0c-0.2,0-0.5,0-0.7,0c-0.2,0-0.5,0-0.7,0
		l-2.7-5H-168.6z"/>
	<path class="st0" d="M-161.7,419.3c0-0.5,0-0.9,0-1.3c0.3,0.1,0.5,0.1,0.7,0.1c0.2,0,0.4,0,0.7-0.1c1.2,1.3,2.3,2.6,3.5,3.8
		c1.1,1.2,2.3,2.5,3.5,3.8v-2.9c0-0.5,0-1,0-1.5c0-0.5,0-1,0-1.4c0-0.4,0-0.8,0-1.1c0-0.3,0-0.5-0.1-0.6c0.3,0.1,0.5,0.1,0.7,0.1
		c0.2,0,0.4,0,0.7-0.1c-0.1,1-0.1,1.8-0.1,2.6c0,0.8-0.1,1.5-0.1,2.2c0,0.7,0,1.4,0,2.1c0,0.7,0,1.4,0,2.2v1.9c-0.2,0-0.4,0-0.7,0
		c-0.2,0-0.4,0-0.6,0c-2.2-2.6-4.5-5.1-7-7.7c0,0.3,0,0.6,0,0.9c0,0.3,0,0.6,0,0.9v1.9c0,0.6,0,1.2,0,1.6c0,0.4,0,0.8,0,1.1
		c0,0.3,0,0.6,0,0.8c0,0.2,0,0.4,0,0.5c-0.1,0-0.3,0-0.4,0c-0.1,0-0.3,0-0.4,0c-0.2,0-0.5,0-0.7,0c0-0.1,0-0.4,0.1-0.9
		c0-0.5,0.1-1.2,0.1-1.9c0-0.8,0.1-1.6,0.1-2.5c0-0.9,0-1.7,0-2.5C-161.7,420.4-161.7,419.8-161.7,419.3z"/>
	<path class="st0" d="M-148.3,425.4c-0.1,1.2-0.2,2.4-0.3,3.6c-0.1,0-0.3,0-0.4,0c-0.1,0-0.2,0-0.4,0c-0.1,0-0.3,0-0.4,0
		c-0.1,0-0.2,0-0.4,0c0.3-1.8,0.6-3.7,0.9-5.5c0.3-1.8,0.5-3.7,0.7-5.5c0.1,0,0.2,0,0.3,0.1c0.1,0,0.2,0,0.3,0c0.1,0,0.2,0,0.3,0
		c0.1,0,0.2,0,0.3-0.1c0.3,0.6,0.6,1.3,0.9,2c0.3,0.7,0.6,1.3,0.9,2c0.3,0.7,0.6,1.3,0.9,1.9c0.3,0.6,0.6,1.2,0.9,1.8
		c0.6-1.2,1.3-2.4,1.9-3.8c0.6-1.3,1.2-2.6,1.8-3.9c0.3,0.1,0.5,0.1,0.7,0.1c0.2,0,0.4,0,0.7-0.1c0.1,0.9,0.2,1.9,0.3,3
		c0.1,1.1,0.2,2.1,0.4,3.1c0.1,1,0.2,2,0.3,2.8c0.1,0.9,0.2,1.6,0.3,2.1c-0.2,0-0.4,0-0.6,0c-0.2,0-0.4,0-0.6,0c-0.2,0-0.4,0-0.7,0
		c-0.2,0-0.4,0-0.7,0c-0.1-1.1-0.1-2.3-0.3-3.6c-0.1-1.3-0.2-2.6-0.4-3.8h0c-0.6,1.3-1.2,2.5-1.8,3.7c-0.6,1.2-1.2,2.4-1.7,3.7
		c-0.1,0-0.1,0-0.2,0c0,0-0.1,0-0.2,0c-0.1,0-0.1,0-0.2,0c0,0-0.1,0-0.2,0c-0.6-1.2-1.1-2.4-1.7-3.6c-0.6-1.2-1.2-2.4-1.8-3.6h0
		C-148,423-148.2,424.2-148.3,425.4z"/>
	<path class="st0" d="M-135.9,420.1c0-0.7-0.1-1.4-0.1-2.1c0.5,0,0.9,0,1.4,0c0.5,0,0.9,0,1.4,0c0.8,0,1.4,0,2,0c0.6,0,1,0,1.2-0.1
		c0,0.2-0.1,0.4-0.1,0.7c0,0.2,0,0.3,0,0.4c0,0.1,0,0.2,0,0.3c-0.3,0-0.6,0-1-0.1c-0.4,0-0.7,0-1-0.1c-0.3,0-0.6,0-0.9,0
		c-0.3,0-0.5,0-0.6,0c0,0.6-0.1,1.2-0.1,1.7c0,0.6,0,1.2,0,1.7c0.7,0,1.3,0,1.8,0c0.5,0,1.1,0,1.7-0.1c0,0.2-0.1,0.3-0.1,0.4
		c0,0.1,0,0.2,0,0.3c0,0.1,0,0.2,0,0.3c0,0.1,0,0.2,0.1,0.4c-1.2-0.1-2.3-0.1-3.5-0.1c0,0.3,0,0.7,0,1c0,0.3,0,0.7,0,1
		c0,0.7,0,1.4,0,2c0.6,0,1.2,0,1.8,0c0.6,0,1.2-0.1,1.8-0.1c0,0.1,0,0.2,0,0.3c0,0.1,0,0.2,0,0.4c0,0.2,0,0.3,0,0.4
		c0,0.1,0,0.2,0,0.2c-0.3,0-0.6,0-1,0c-0.4,0-1,0-1.7,0c-0.6,0-1.1,0-1.5,0c-0.4,0-0.7,0-0.9,0c-0.2,0-0.4,0-0.5,0
		c-0.1,0-0.2,0-0.3,0c0-0.7,0.1-1.3,0.1-2c0-0.7,0-1.5,0-2.4v-2.2C-135.9,421.5-135.9,420.8-135.9,420.1z"/>
	<path class="st0" d="M-127.7,419.3c0-0.5,0-0.9,0-1.3c0.3,0.1,0.5,0.1,0.7,0.1c0.2,0,0.4,0,0.7-0.1c1.2,1.3,2.3,2.6,3.5,3.8
		c1.1,1.2,2.3,2.5,3.5,3.8v-2.9c0-0.5,0-1,0-1.5c0-0.5,0-1,0-1.4c0-0.4,0-0.8,0-1.1c0-0.3,0-0.5-0.1-0.6c0.3,0.1,0.5,0.1,0.7,0.1
		c0.2,0,0.4,0,0.7-0.1c-0.1,1-0.1,1.8-0.1,2.6c0,0.8-0.1,1.5-0.1,2.2c0,0.7,0,1.4,0,2.1c0,0.7,0,1.4,0,2.2v1.9c-0.2,0-0.4,0-0.7,0
		c-0.2,0-0.4,0-0.6,0c-2.2-2.6-4.5-5.1-7-7.7c0,0.3,0,0.6,0,0.9c0,0.3,0,0.6,0,0.9v1.9c0,0.6,0,1.2,0,1.6c0,0.4,0,0.8,0,1.1
		c0,0.3,0,0.6,0,0.8c0,0.2,0,0.4,0,0.5c-0.1,0-0.3,0-0.4,0c-0.1,0-0.3,0-0.4,0c-0.2,0-0.5,0-0.7,0c0-0.1,0-0.4,0.1-0.9
		c0-0.5,0.1-1.2,0.1-1.9c0-0.8,0.1-1.6,0.1-2.5c0-0.9,0-1.7,0-2.5C-127.7,420.4-127.7,419.8-127.7,419.3z"/>
	<path class="st0" d="M-114.1,419.8c0-0.3,0-0.4,0-0.6c-0.2,0-0.3,0-0.6,0c-0.2,0-0.5,0-0.7,0c-0.3,0-0.5,0-0.8,0.1
		c-0.3,0-0.5,0.1-0.7,0.1c0-0.1,0-0.2,0.1-0.4c0-0.1,0-0.2,0-0.4c0-0.1,0-0.2,0-0.4c0-0.1,0-0.2-0.1-0.4c0.4,0,0.7,0,1,0
		c0.3,0,0.6,0,0.9,0c0.3,0,0.6,0,1,0c0.3,0,0.8,0,1.3,0c0.5,0,0.9,0,1.3,0c0.3,0,0.7,0,1,0c0.3,0,0.6,0,0.8,0c0.3,0,0.6,0,0.9,0
		c0,0.1,0,0.2-0.1,0.4c0,0.1,0,0.2,0,0.4c0,0.1,0,0.2,0,0.4c0,0.1,0,0.2,0.1,0.4c-0.2,0-0.4-0.1-0.7-0.1c-0.3,0-0.5,0-0.8-0.1
		c-0.3,0-0.5,0-0.7,0c-0.2,0-0.4,0-0.6,0c0,0.1,0,0.1,0,0.2c0,0.1,0,0.2,0,0.3v4.8c0,0.9,0,1.7,0,2.4c0,0.7,0.1,1.4,0.1,2
		c-0.2,0-0.4,0-0.6,0c-0.2,0-0.4,0-0.7,0c-0.3,0-0.5,0-0.7,0c-0.2,0-0.4,0-0.6,0c0-0.7,0.1-1.3,0.1-2c0-0.7,0-1.5,0-2.4v-4
		C-114.1,420.3-114.1,420-114.1,419.8z"/>
	<path class="st0" d="M-94.8,421.4c-0.2-0.5-0.4-1-0.7-1.4c-0.3-0.4-0.7-0.7-1.1-0.9c-0.4-0.2-0.9-0.3-1.4-0.3c-0.5,0-1,0.1-1.4,0.4
		c-0.4,0.3-0.8,0.6-1.1,1c-0.3,0.4-0.5,0.9-0.7,1.5c-0.2,0.6-0.2,1.2-0.2,1.9c0,0.8,0.1,1.5,0.3,2.1c0.2,0.6,0.4,1,0.7,1.4
		c0.3,0.3,0.7,0.6,1.1,0.7c0.4,0.2,0.8,0.2,1.3,0.2c0.5,0,0.9-0.1,1.4-0.3c0.4-0.2,0.8-0.5,1.1-0.9c0.3-0.4,0.6-0.9,0.8-1.5
		c0.2-0.6,0.3-1.3,0.3-2.2C-94.6,422.5-94.7,421.9-94.8,421.4z M-103.6,421.4c0.3-0.7,0.7-1.3,1.2-1.8c0.5-0.5,1.2-0.9,1.9-1.2
		c0.7-0.3,1.6-0.4,2.5-0.4c0.8,0,1.6,0.1,2.3,0.3c0.7,0.2,1.4,0.6,1.9,1c0.5,0.5,1,1,1.3,1.7c0.3,0.7,0.5,1.5,0.5,2.4
		c0,0.8-0.1,1.5-0.4,2.2c-0.3,0.7-0.7,1.3-1.2,1.8c-0.5,0.5-1.2,0.9-1.9,1.2c-0.7,0.3-1.5,0.4-2.4,0.4c-0.8,0-1.6-0.1-2.3-0.3
		c-0.7-0.2-1.4-0.5-1.9-1c-0.5-0.4-1-1-1.3-1.7c-0.3-0.7-0.5-1.5-0.5-2.5C-104,422.8-103.9,422-103.6,421.4z"/>
	<path class="st0" d="M-89.9,420.1c0-0.7,0-1.4-0.1-2.1c0.5,0,0.9,0,1.4,0c0.5,0,0.9,0,1.4,0c0.8,0,1.4,0,2,0c0.6,0,1,0,1.2-0.1
		c0,0.2-0.1,0.4-0.1,0.7c0,0.2,0,0.3,0,0.4c0,0.1,0,0.2,0,0.3c-0.3,0-0.6,0-1-0.1c-0.4,0-0.7,0-1-0.1c-0.3,0-0.6,0-0.9,0
		c-0.3,0-0.5,0-0.6,0c0,0.6-0.1,1.2-0.1,1.7c0,0.6,0,1.2,0,1.7c0.7,0,1.3,0,1.8,0c0.5,0,1.1,0,1.7-0.1c0,0.2-0.1,0.3-0.1,0.4
		c0,0.1,0,0.2,0,0.3c0,0.1,0,0.2,0,0.3c0,0.1,0,0.2,0.1,0.4c-1.2-0.1-2.3-0.1-3.5-0.1v0.8c0,0.9,0,1.7,0,2.4c0,0.7,0,1.4,0.1,2
		c-0.2,0-0.4,0-0.6,0s-0.4,0-0.7,0c-0.3,0-0.5,0-0.7,0c-0.2,0-0.4,0-0.6,0c0-0.7,0.1-1.3,0.1-2c0-0.7,0-1.5,0-2.4v-2.2
		C-89.9,421.5-89.9,420.8-89.9,420.1z"/>
	<path class="st0" d="M-75.6,425.8v1c0,0.3,0,0.6,0,0.9c0,0.3,0,0.4,0,0.5c0.2,0,0.3,0,0.6,0c0.2,0,0.5,0,0.8,0
		c1.2,0,2.1-0.4,2.8-1.2c0.7-0.8,1-2.1,1-3.7c0-0.7-0.1-1.3-0.3-1.8c-0.2-0.5-0.4-1-0.7-1.3c-0.3-0.4-0.7-0.7-1.1-0.8
		c-0.4-0.2-0.9-0.3-1.5-0.3c-0.4,0-0.7,0-0.9,0c-0.2,0-0.5,0-0.7,0.1c0,0.1,0,0.2,0,0.5c0,0.3,0,0.5,0,0.9l0,1V425.8z M-77.9,420.1
		c0-0.7-0.1-1.4-0.1-2.1c0.2,0,0.4,0,0.6,0.1c0.2,0,0.4,0,0.7,0c0.3,0,0.7,0,1.1,0c0.4,0,1,0,1.7,0c0.9,0,1.7,0.1,2.4,0.2
		c0.7,0.2,1.4,0.4,1.9,0.8c0.5,0.4,0.9,0.9,1.2,1.6c0.3,0.7,0.4,1.5,0.4,2.5c0,0.9-0.1,1.7-0.4,2.4c-0.3,0.7-0.7,1.3-1.2,1.8
		c-0.5,0.5-1.1,0.9-1.7,1.2c-0.6,0.3-1.3,0.4-2.1,0.4c-0.8,0-1.4,0-2,0c-0.5,0-1,0-1.4,0c-0.3,0-0.5,0-0.7,0c-0.2,0-0.4,0-0.6,0
		c0-0.7,0.1-1.3,0.1-2c0-0.7,0-1.5,0-2.4v-2.2C-77.9,421.5-77.9,420.8-77.9,420.1z"/>
	<path class="st0" d="M-63.3,428.8c-0.5-0.1-1-0.4-1.4-0.7c-0.4-0.3-0.7-0.8-0.9-1.3c-0.2-0.5-0.3-1.2-0.3-1.9c0-0.4,0-0.8,0-1.1
		c0-0.3,0-0.6,0-0.9c0-0.3,0-0.6,0-0.8c0-0.3,0-0.5,0-0.8c0-0.8,0-1.5,0-2.1c0-0.5,0-0.9,0-1.2c0.2,0,0.4,0,0.6,0.1
		c0.2,0,0.4,0,0.6,0c0.2,0,0.4,0,0.6,0c0.2,0,0.4,0,0.6-0.1c-0.1,1-0.2,2-0.2,2.8c0,0.9,0,1.8,0,2.7c0,1,0.1,1.7,0.2,2.3
		c0.1,0.6,0.3,1,0.6,1.4c0.2,0.3,0.6,0.5,0.9,0.6c0.4,0.1,0.8,0.2,1.3,0.2c0.6,0,1-0.2,1.4-0.5c0.3-0.3,0.6-0.7,0.8-1.3
		c0.2-0.5,0.3-1.1,0.3-1.8c0-0.7,0.1-1.4,0.1-2.1c0-0.7,0-1.4,0-2.2c0-0.7,0-1.4-0.1-2.2c0.1,0,0.3,0,0.4,0.1c0.1,0,0.2,0,0.4,0
		c0.1,0,0.2,0,0.4,0c0.1,0,0.2,0,0.4-0.1c0,0.2,0,0.5-0.1,0.9c0,0.4,0,0.8-0.1,1.3c0,0.5,0,1.1-0.1,1.7c0,0.6,0,1.3,0,1.9
		c0,1.8-0.4,3.1-1.1,3.9c-0.7,0.8-1.8,1.2-3.2,1.2C-62.2,429-62.7,428.9-63.3,428.8z"/>
	<path class="st0" d="M-49.8,424.3c-0.3-0.4-0.7-0.6-1.3-0.6c-0.1,0-0.3,0-0.3,0c-0.1,0-0.2,0-0.3,0c0,0.2,0,0.5,0,0.7
		c0,0.2,0,0.5,0,0.9c0,0.3,0,0.5,0,0.8c0,0.3,0,0.5,0,0.8c0,0.3,0,0.5,0,0.7c0,0.2,0,0.4,0,0.5c0.1,0,0.3,0,0.4,0c0.1,0,0.3,0,0.4,0
		c0.2,0,0.4,0,0.6-0.1c0.2-0.1,0.4-0.2,0.5-0.4c0.1-0.2,0.3-0.4,0.3-0.7c0.1-0.3,0.1-0.6,0.1-0.9C-49.3,425.2-49.4,424.7-49.8,424.3
		z M-49.5,420.1c-0.1-0.2-0.1-0.4-0.3-0.6c-0.1-0.2-0.3-0.3-0.5-0.4c-0.2-0.1-0.4-0.2-0.7-0.2c-0.2,0-0.4,0-0.4,0
		c-0.1,0-0.2,0-0.3,0c0,0.4,0,0.8,0,1.2c0,0.4,0,0.7,0,1c0,0.3,0,0.6,0,0.8c0,0.3,0,0.5,0,0.8h0.7c0.2,0,0.4,0,0.6-0.1
		c0.2-0.1,0.4-0.2,0.5-0.4c0.2-0.2,0.3-0.4,0.4-0.6c0.1-0.3,0.1-0.6,0.1-0.9C-49.4,420.5-49.4,420.3-49.5,420.1z M-53.9,420.1
		c0-0.7-0.1-1.4-0.1-2.1c0.2,0,0.3,0,0.5,0.1c0.2,0,0.4,0,0.7,0c0.4,0,0.9,0,1.3,0c0.5,0,0.9,0,1.3,0c0.4,0,0.8,0,1.2,0.1
		c0.4,0.1,0.7,0.2,0.9,0.4c0.3,0.2,0.5,0.5,0.6,0.8c0.1,0.3,0.2,0.7,0.2,1.1c0,0.4-0.1,0.8-0.3,1.1c-0.2,0.3-0.4,0.6-0.6,0.8
		c-0.2,0.2-0.5,0.4-0.8,0.5c-0.3,0.1-0.5,0.2-0.8,0.2v0c0.2,0,0.5,0.1,0.8,0.2c0.3,0.1,0.6,0.3,0.9,0.5c0.3,0.2,0.5,0.5,0.7,0.8
		c0.2,0.3,0.3,0.7,0.3,1.2c0,0.6-0.1,1.1-0.3,1.5c-0.2,0.4-0.4,0.7-0.8,1c-0.3,0.3-0.7,0.4-1.1,0.5c-0.4,0.1-0.8,0.2-1.3,0.2
		c-0.4,0-0.8,0-1.1,0c-0.3,0-0.7,0-1.1,0c-0.3,0-0.5,0-0.8,0c-0.3,0-0.5,0-0.7,0c0-0.7,0.1-1.3,0.1-2c0-0.7,0-1.5,0-2.4v-2.2
		C-53.9,421.5-53.9,420.8-53.9,420.1z"/>
	<path class="st0" d="M-41.5,421.1c-0.3,0.6-0.5,1.3-0.8,1.9c-0.2,0.6-0.5,1.3-0.7,1.9h2.9c-0.2-0.6-0.5-1.3-0.7-1.9
		C-41.1,422.3-41.3,421.7-41.5,421.1z M-36,429c-0.2,0-0.5,0-0.7,0c-0.2,0-0.4,0-0.7,0c-0.2,0-0.4,0-0.7,0c-0.2,0-0.4,0-0.7,0
		c-0.2-0.5-0.3-1.1-0.5-1.6c-0.2-0.5-0.4-1.1-0.6-1.6c-0.3,0-0.7,0-1,0c-0.3,0-0.7,0-1,0c-0.3,0-0.5,0-0.8,0c-0.3,0-0.5,0-0.8,0
		c-0.2,0.5-0.4,1.1-0.6,1.6c-0.2,0.5-0.3,1.1-0.5,1.6c-0.1,0-0.2,0-0.4,0c-0.1,0-0.2,0-0.4,0c-0.1,0-0.3,0-0.4,0s-0.3,0-0.4,0
		c0.1-0.3,0.3-0.7,0.5-1.1c0.2-0.5,0.4-1,0.7-1.7c0.3-0.6,0.5-1.3,0.8-2c0.3-0.7,0.6-1.4,0.9-2.1c0.3-0.7,0.6-1.4,0.8-2.1
		c0.3-0.7,0.5-1.4,0.8-2c0.1,0,0.2,0,0.3,0.1c0.1,0,0.2,0,0.3,0c0.1,0,0.2,0,0.3,0c0.1,0,0.2,0,0.3-0.1c0.3,0.9,0.7,1.9,1.1,2.9
		c0.4,1,0.8,2,1.1,3c0.4,1,0.8,1.9,1.1,2.8C-36.6,427.6-36.3,428.4-36,429z"/>
	<path class="st0" d="M-34.9,420.1c0-0.7-0.1-1.4-0.1-2.1c0.2,0,0.4,0,0.7,0.1c0.2,0,0.5,0,0.8,0s0.6,0,0.8,0c0.2,0,0.5,0,0.7-0.1
		c0,0.7-0.1,1.4-0.1,2.1c0,0.7,0,1.5,0,2.4v2.2c0,0.9,0,1.7,0,2.4c0,0.7,0.1,1.4,0.1,2c-0.2,0-0.4,0-0.7,0s-0.5,0-0.8,0
		s-0.6,0-0.8,0c-0.2,0-0.5,0-0.7,0c0-0.7,0.1-1.3,0.1-2c0-0.7,0-1.5,0-2.4v-2.2C-34.9,421.5-34.9,420.8-34.9,420.1z"/>
</g>
</svg>
