<?xml version="1.0" encoding="utf-8"?>
<!-- Generator: Adobe Illustrator 19.0.0, SVG Export Plug-In . SVG Version: 6.00 Build 0)  -->
<svg version="1.1" id="Layer_1" xmlns="http://www.w3.org/2000/svg" xmlns:xlink="http://www.w3.org/1999/xlink" x="0px" y="0px"
	 viewBox="-182.6 367.4 243.2 58" style="enable-background:new -182.6 367.4 243.2 58;" xml:space="preserve">
<style type="text/css">
	.st0{fill:#006656;}
	.st1{fill:#B71C1C;}
</style>
<g>
	<path d="M-18.4,389.2c-1,0-1.8,0.2-2.5,0.6c-0.7,0.4-1.3,1-1.7,1.6c-0.4,0.7-0.6,1.5-0.6,2.3c0,0.6,0.2,1.2,0.4,1.8
		c0.3,0.6,0.7,1.1,1.1,1.4H-43v-7.4h-2.9v7.4h-12.8v-2.1c0-1.8-0.4-3.2-1.3-4.2c-0.9-0.9-2.1-1.4-3.8-1.4c-1.1,0-1.9,0.2-2.7,0.6
		c-0.7,0.5-1.5,1.1-2,1.9v-2.1h-2.8v7.4h-13v-12.5h-2.9v15h73.3c0,0,0-4.4,0.1-5.5C-13.8,390.8-15.3,389.2-18.4,389.2z M-61.5,397.1
		h-7v-0.9c0-1.3,0.4-2.5,1.1-3.2c0.7-0.7,1.8-1.2,3.2-1.2c1,0,1.6,0.3,2,0.9c0.4,0.6,0.6,1.5,0.6,2.8V397.1z M-16.7,394.1v3h-1.1
		c-0.8,0-1.5-0.2-1.9-0.7c-0.5-0.6-0.7-1.2-0.7-2.1c0-0.8,0.2-1.4,0.5-1.8c0.3-0.4,0.8-0.7,1.5-0.7c0.7,0,1.1,0.3,1.5,0.6
		C-16.8,392.7-16.6,393.3-16.7,394.1L-16.7,394.1z M-132.7,385.5v2.3h2.5v-2.3H-132.7z M-153.2,390.5c-0.1-0.5-0.2-0.8-0.6-1.1
		l-2.6,1c0.3,0.5,0.5,1.2,0.5,2v4.8h-8.5c-1.3,0-2-0.3-2.5-1.3c-1-2-2.6-3-4.7-3h-1.3v2.6c0.2-0.1,0.3-0.1,0.5-0.1c1,0,2,0.7,2,1.9
		c0,2-2.2,3.5-4.5,3.5c-2.9,0-4.6-1.9-4.6-4.8v-2.3h-2.9v2.5c0,4.2,3.3,7.3,7.6,7.3c3.4,0,6.4-2,7.1-4.8c0.8,0.8,2.1,1,3.8,1h11.1
		v-7.5C-153,391.5-153.1,390.9-153.2,390.5z M-155.7,401.3v2.4h2.5v-2.4H-155.7z M-142.8,390.9c-0.9-1.1-2.3-1.6-4.1-1.6
		c-1.1,0-2.1,0.2-3,0.5l0.6,2.5c0.8-0.3,1.5-0.4,2.1-0.4c1,0,1.7,0.3,2.2,0.9c0.5,0.7,0.7,1.6,0.7,2.9v1.3h-6.8v2.5h9.6v-4.2
		C-141.4,393.5-141.8,392-142.8,390.9z M-129.1,385.5v2.3h2.5v-2.3H-129.1z M-103.8,401.3v2.3h2.4v-2.3H-103.8z M-107.4,401.3v2.3
		h2.5v-2.3H-107.4z M-101.4,390.5c-0.2-0.4-0.3-0.8-0.6-1.1l-2.6,1c0.3,0.5,0.5,1.2,0.5,2v4.8H-125v-2.8c0-1.6-0.4-2.9-1.1-3.7
		c-0.7-0.8-2-1.2-3.5-1.2c-1.5,0-2.6,0.4-3.5,1.3c-0.9,0.9-1.3,2.1-1.3,3.5c0,1.7,0.6,3.1,1.6,4c1.1,0.9,2.6,1.4,4.7,1.4h26.9v-7.5
		C-101.3,391.5-101.4,390.9-101.4,390.5z M-127.8,397.1h-0.9c-2,0-2.9-1-2.9-2.9c0-0.8,0.2-1.4,0.5-1.8c0.3-0.4,0.8-0.7,1.5-0.7
		c0.5,0,0.9,0.1,1.1,0.3c0.2,0.2,0.5,0.5,0.6,0.9c0.1,0.4,0.2,1.1,0.2,1.9V397.1z M-91.1,390.9c-0.9-1.1-2.3-1.6-4.1-1.6
		c-1.1,0-2.1,0.2-3,0.5l0.6,2.5c0.8-0.3,1.5-0.4,2.1-0.4c1,0,1.7,0.3,2.2,0.9c0.5,0.7,0.7,1.6,0.7,2.9v1.3h-6.8v2.5h9.6v-4.2
		C-89.6,393.5-90.1,392-91.1,390.9z M-43.9,385.5v2.3h2.4v-2.3H-43.9z M-47.6,385.5v2.3h2.5v-2.3H-47.6z M-17.9,385.5v2.3h2.5v-2.3
		H-17.9z M-21.6,385.5v2.3h2.5v-2.3H-21.6z M-11.1,384.6v15h2.9v-15H-11.1z M-178,405.4v2.5h2.6v-2.5H-178z M-174,405.4v2.5h2.6
		v-2.5H-174z"/>
	<path d="M-177,409.8h-5.6v15.1h5.1c1.2,0,2.3-0.2,3.3-0.5c1-0.3,1.8-0.8,2.4-1.5c0.7-0.7,1.2-1.4,1.5-2.4c0.4-0.9,0.6-2.1,0.6-3.3
		c0-2.5-0.7-4.4-2-5.6C-172.9,410.5-174.7,409.8-177,409.8z M-175.3,422c-0.7,0.2-1.3,0.3-2.1,0.3v0.1h-2v-9.8h2.4
		c0.7,0,1.4,0.1,1.9,0.3c0.5,0.2,0.9,0.6,1.2,1c0.3,0.4,0.6,0.9,0.7,1.5c0.2,0.6,0.2,1.2,0.2,2c0,0.7-0.1,1.5-0.2,2.1
		c-0.2,0.6-0.5,1.2-0.8,1.6C-174.2,421.4-174.7,421.7-175.3,422z"/>
	<path d="M-167.4,409.8h3.1v9c0,1.3,0.2,2.2,0.7,2.9c0.5,0.7,1.2,0.9,2.3,0.9c1.1,0,1.8-0.3,2.2-0.9c0.4-0.7,0.7-1.6,0.7-2.9v-9h3.1
		v9c0,1.2-0.2,2.1-0.4,3c-0.2,0.8-0.7,1.5-1.2,2.1c-0.5,0.5-1.1,0.9-1.9,1.2c-0.7,0.2-1.6,0.4-2.5,0.4c-1,0-1.8-0.2-2.5-0.4
		c-0.7-0.2-1.4-0.7-1.9-1.2c-0.5-0.6-0.9-1.2-1.1-2.1c-0.2-0.8-0.4-1.8-0.4-3V409.8z"/>
	<path d="M-141.2,419.4c-0.1-0.3-0.2-0.6-0.3-0.9c0,0,0,0,0-0.1c0,0,0-0.1-0.1-0.1c-0.1-0.2-0.3-0.5-0.6-0.7
		c-0.3-0.2-0.7-0.5-1.1-0.7c0.7-0.3,1.2-0.8,1.5-1.3c0.2-0.5,0.4-1.1,0.4-1.6c0-0.6-0.1-1.1-0.3-1.6c-0.2-0.5-0.5-1-0.9-1.3
		c-0.4-0.4-1-0.7-1.7-0.9c-0.7-0.2-1.6-0.3-2.8-0.3h-5.5v15.1h5.8c1.1,0,2-0.1,2.7-0.3c0.6-0.2,1.3-0.6,1.7-1c0.5-0.4,0.8-0.9,1-1.5
		c0.2-0.6,0.2-1.2,0.2-1.8C-141.1,420.1-141.1,419.7-141.2,419.4z M-149.4,412.3h2.3c1,0,1.6,0.2,2,0.4c0.4,0.3,0.6,0.7,0.6,1.3
		c0,0.6-0.2,1-0.5,1.3c-0.3,0.3-0.9,0.5-1.7,0.5h-2.7V412.3z M-144.3,421.3c-0.1,0.2-0.2,0.5-0.4,0.7c-0.2,0.2-0.5,0.3-0.8,0.4
		c-0.3,0.1-0.8,0.2-1.3,0.2h-2.6v-4.1h2.9c0.9,0,1.5,0.2,1.9,0.5c0.3,0.3,0.5,0.8,0.5,1.5C-144.1,420.7-144.2,421-144.3,421.3z"/>
	<path d="M-131.7,409.8h-3l-5.7,15.1h3.3l1.2-3.5h5.3l1.2,3.5h3.3L-131.7,409.8z M-133.3,413.4l1.8,5.4h-3.6L-133.3,413.4z"/>
	<path d="M-123.9,409.8h3.1v15.1h-3.1V409.8z"/>
	<path d="M-113,409.8h10.3v2.7h-7.1v3.3h6.7v2.7h-6.7v3.7h7.5l-0.3,2.7H-113V409.8z"/>
	<path d="M-87.4,419.7c-0.1,0.8-0.2,1.6-0.6,2.2c-0.3,0.7-0.7,1.3-1.2,1.8s-1.1,0.9-2,1.2c-0.7,0.2-1.6,0.4-2.7,0.4
		c-1.1,0-2.1-0.2-3-0.6c-0.9-0.4-1.5-0.9-2.2-1.6c-0.6-0.7-1.1-1.6-1.3-2.5c-0.3-1-0.4-2.1-0.4-3.3s0.2-2.3,0.5-3.3
		c0.3-1,0.8-1.8,1.4-2.5c0.6-0.7,1.3-1.2,2.2-1.6c0.9-0.3,1.8-0.6,2.9-0.6c1,0,1.8,0.1,2.5,0.3c0.7,0.2,1.3,0.6,1.8,1.1
		c0.5,0.5,0.9,1,1.1,1.6c0.3,0.7,0.5,1.3,0.7,2.1l-3.1,0.4c-0.2-0.9-0.5-1.6-0.9-2.1c-0.4-0.5-1.1-0.7-2.1-0.7
		c-1.2,0-2.1,0.5-2.8,1.4c-0.7,0.9-0.9,2.2-0.9,3.9c0,1.6,0.3,3,1,3.9c0.7,0.9,1.5,1.4,2.7,1.4c1,0,1.7-0.2,2.1-0.7
		c0.5-0.5,0.7-1.2,0.8-2.1H-87.4z"/>
	<path d="M-81.6,424.7c0.9,0.4,1.9,0.6,3,0.6c1.1,0,2.2-0.2,3.1-0.6c0.8-0.3,1.6-0.9,2.2-1.6c0.6-0.7,1.1-1.5,1.4-2.5
		c0.3-1,0.5-2.1,0.5-3.3s-0.2-2.3-0.5-3.3c-0.3-0.9-0.8-1.8-1.4-2.5c-0.6-0.7-1.3-1.2-2.2-1.6c-0.9-0.4-1.9-0.6-3-0.6
		c-1.1,0-2.1,0.2-3,0.6c-0.9,0.3-1.6,0.9-2.3,1.6c-0.7,0.7-1.1,1.5-1.5,2.5c-0.3,1-0.5,2.1-0.5,3.3s0.2,2.3,0.5,3.3
		c0.3,0.9,0.7,1.8,1.4,2.5C-83.3,423.8-82.5,424.4-81.6,424.7z M-75.7,421.2c-0.7,0.9-1.6,1.4-2.9,1.4c-1.3,0-2.3-0.4-2.9-1.4
		c-0.7-0.9-1-2.2-1-3.9c0-1.6,0.3-3,1-3.9c0.7-0.9,1.6-1.4,2.9-1.4c1.3,0,2.3,0.5,2.9,1.4c0.7,0.9,1,2.2,1,3.9
		C-74.7,419-75,420.3-75.7,421.2z"/>
	<path d="M-69,409.8h2.9l6.2,9.9v-9.9h3v15.1h-2.8l-6.2-9.9v9.9h-3L-69,409.8L-69,409.8z"/>
	<path d="M-50.3,424.7c0.9,0.4,1.9,0.6,3,0.6s2.1-0.2,3.1-0.6c0.8-0.3,1.6-0.9,2.2-1.6c0.6-0.7,1.1-1.5,1.4-2.5
		c0.3-1,0.5-2.1,0.5-3.3s-0.2-2.3-0.5-3.3c-0.3-0.9-0.8-1.8-1.4-2.5c-0.6-0.7-1.3-1.2-2.2-1.6c-0.9-0.4-1.9-0.6-3-0.6
		c-1.1,0-2.1,0.2-3,0.6c-0.9,0.3-1.6,0.9-2.3,1.6c-0.7,0.7-1.1,1.5-1.5,2.5c-0.3,1-0.5,2.1-0.5,3.3s0.2,2.3,0.5,3.3
		c0.3,0.9,0.7,1.8,1.4,2.5C-51.9,423.8-51.2,424.4-50.3,424.7z M-44.3,421.2c-0.7,0.9-1.6,1.4-2.9,1.4s-2.3-0.4-2.9-1.4
		c-0.7-0.9-1-2.2-1-3.9c0-1.6,0.3-3,1-3.9c0.7-0.9,1.6-1.4,2.9-1.4s2.3,0.5,2.9,1.4c0.7,0.9,1,2.2,1,3.9
		C-43.3,419-43.7,420.3-44.3,421.2z"/>
	<path d="M-37.6,409.8h3.7l3.7,11.3l3.8-11.3h3.7v15.1h-2.9v-10l-3.4,10.1h-2.4l-3.4-10.1V425h-2.9V409.8z"/>
	<path d="M-15.6,418.8l-5.2-9h3.5l3.3,6.2l3.3-6.2h3.3l-5.1,9v6.2h-3.1L-15.6,418.8L-15.6,418.8z"/>
	<path class="st0" d="M60.6,367.4v57.5H28.5c0.5-3.3,2.4-12.1,10.4-20.3c7.5-7.8,14.4-10.9,14.4-18c0-9.4-11.4-9.4-11.9-12.9
		c-0.5-3.7,8.8-3.5,8.8-6.2L60.6,367.4L60.6,367.4z"/>
	<path class="st1" d="M42.7,367.4H4.1v44.5c1.8-2.3,6.3-8.3,16.5-14.8c10-6.3,18.4-9,18.1-14.7c-0.2-4.6-6.9-4.7-6.9-8.3
		C31.9,369.4,42.3,369.5,42.7,367.4z"/>
</g>
</svg>
