<?xml version="1.0" encoding="utf-8"?>
<!-- Generator: Adobe Illustrator 19.0.0, SVG Export Plug-In . SVG Version: 6.00 Build 0)  -->
<svg version="1.1" id="Layer_1" xmlns="http://www.w3.org/2000/svg" xmlns:xlink="http://www.w3.org/1999/xlink" x="0px" y="0px"
	 viewBox="-297 389 16 16" style="enable-background:new -297 389 16 16;" xml:space="preserve">
<style type="text/css">
	.st0{fill:#111111;}
</style>
<g>
	<path class="st0" d="M-282.5,391h-2.5v-1.5c0-0.3-0.2-0.5-0.5-0.5s-0.5,0.2-0.5,0.5v1.5h-6v-1.5c0-0.3-0.2-0.5-0.5-0.5
		s-0.5,0.2-0.5,0.5v1.5h-2.5c-0.8,0-1.5,0.7-1.5,1.5v11c0,0.8,0.7,1.5,1.5,1.5h5c0.3,0,0.5-0.2,0.5-0.5s-0.2-0.5-0.5-0.5h-5
		c-0.3,0-0.5-0.2-0.5-0.5V395h14.5c0.3,0,0.5-0.2,0.5-0.5v-2C-281,391.7-281.7,391-282.5,391z M-296,392.5c0-0.3,0.2-0.5,0.5-0.5h13
		c0.3,0,0.5,0.2,0.5,0.5v1.5h-14V392.5z"/>
	<path class="st0" d="M-285.5,396c-2.5,0-4.5,2-4.5,4.5s2,4.5,4.5,4.5s4.5-2,4.5-4.5S-283,396-285.5,396z M-285.5,404
		c-1.9,0-3.5-1.6-3.5-3.5s1.6-3.5,3.5-3.5s3.5,1.6,3.5,3.5S-283.6,404-285.5,404z"/>
	<path class="st0" d="M-283.5,400h-1.5v-1.5c0-0.3-0.2-0.5-0.5-0.5s-0.5,0.2-0.5,0.5v2c0,0.3,0.2,0.5,0.5,0.5h2
		c0.3,0,0.5-0.2,0.5-0.5S-283.2,400-283.5,400z"/>
</g>
</svg>
