<?xml version="1.0" encoding="utf-8"?>
<!-- Generator: Adobe Illustrator 19.0.0, SVG Export Plug-In . SVG Version: 6.00 Build 0)  -->
<svg version="1.1" id="Layer_1" xmlns="http://www.w3.org/2000/svg" xmlns:xlink="http://www.w3.org/1999/xlink" x="0px" y="0px"
	 viewBox="-243 245 24 24" style="enable-background:new -243 245 24 24;" xml:space="preserve">
<style type="text/css">
	.st0{fill:#006557;}
</style>
<path class="st0" d="M-231,245c-6.6,0-12,5.4-12,12s5.4,12,12,12s12-5.4,12-12S-224.4,245-231,245z M-225,265c-1.7,1.3-3.8,2-6,2
	s-4.3-0.8-6-2v-0.3c0-0.7,0.4-1.4,1-1.7l2.7-1.5c0.7,0.3,1.5,0.5,2.3,0.5s1.6-0.2,2.3-0.5l2.7,1.5c0.6,0.4,1,1,1,1.7V265z M-234,257
	v-2c0-1.7,1.3-3,3-3s3,1.3,3,3v2c0,1.7-1.3,3-3,3S-234,258.7-234,257z M-223.3,263.3c-0.3-0.9-0.9-1.6-1.8-2.1l-2.1-1.2
	c0.7-0.8,1.1-1.9,1.1-3.1v-2c0-2.8-2.2-5-5-5s-5,2.2-5,5v2c0,1.2,0.4,2.2,1.1,3.1l-2,1.2c-0.8,0.5-1.4,1.2-1.8,2.1
	c-1.4-1.7-2.3-3.9-2.3-6.3c0-5.5,4.5-10,10-10s10,4.5,10,10C-221,259.4-221.8,261.6-223.3,263.3z"/>
</svg>
