<?xml version="1.0" encoding="utf-8"?>
<!-- Generator: Adobe Illustrator 19.0.0, SVG Export Plug-In . SVG Version: 6.00 Build 0)  -->
<svg version="1.1" id="Layer_1" xmlns="http://www.w3.org/2000/svg" xmlns:xlink="http://www.w3.org/1999/xlink" x="0px" y="0px"
	 viewBox="0 1 15 15" style="enable-background:new 0 1 15 15;" xml:space="preserve">
<style type="text/css">
	.st0{fill:#FFFFFF;}
</style>
<path class="st0" d="M15,15c0-0.2-0.1-0.5-0.2-0.5l-3-3c0.9-1.1,1.4-2.5,1.4-4c0-3.6-2.9-6.6-6.6-6.6S0,3.9,0,7.6
	c0,3.6,2.9,6.6,6.6,6.6c1.5,0,2.9-0.5,4-1.4l3,3c0.1,0.1,0.3,0.3,0.6,0.3c0.3,0,0.5-0.1,0.6-0.2c0,0,0.1-0.1,0-0.1
	C14.9,15.5,15,15.2,15,15z M6.6,12.3c-2.6,0-4.8-2.2-4.8-4.8S4,2.6,6.6,2.6s4.8,2.2,4.8,4.8c0,1.3-0.5,2.5-1.4,3.4
	C9.1,11.8,7.9,12.3,6.6,12.3z"/>
</svg>
