<?xml version="1.0" encoding="utf-8"?>
<!-- Generator: Adobe Illustrator 19.0.0, SVG Export Plug-In . SVG Version: 6.00 Build 0)  -->
<svg version="1.1" id="Layer_1" xmlns="http://www.w3.org/2000/svg" xmlns:xlink="http://www.w3.org/1999/xlink" x="0px" y="0px"
	 viewBox="-248 249 15 15" style="enable-background:new -248 249 15 15;" xml:space="preserve">
<style type="text/css">
	.st0{fill:#111111;}
</style>
<path class="st0" d="M-233.2,263.2l-3.4-3.4c1-1.1,1.6-2.6,1.6-4.2c0-3.6-2.9-6.5-6.5-6.5s-6.5,2.9-6.5,6.5s2.9,6.5,6.5,6.5
	c1.6,0,3.1-0.6,4.2-1.6l3.4,3.4c0.1,0.1,0.2,0.2,0.3,0.2s0.3,0,0.3-0.2C-233,263.7-233,263.3-233.2,263.2z M-237.6,259.4
	c-1,1-2.4,1.6-3.9,1.6c-3,0-5.5-2.5-5.5-5.5s2.5-5.5,5.5-5.5s5.5,2.5,5.5,5.5C-236,257-236.6,258.4-237.6,259.4z"/>
</svg>
