<?xml version="1.0" encoding="utf-8"?>
<!-- Generator: Adobe Illustrator 19.0.0, SVG Export Plug-In . SVG Version: 6.00 Build 0)  -->
<svg version="1.1" id="Layer_1" xmlns="http://www.w3.org/2000/svg" xmlns:xlink="http://www.w3.org/1999/xlink" x="0px" y="0px"
	 viewBox="0 0 16 16" style="enable-background:new 0 0 16 16;" xml:space="preserve">
<path id="XMLID_4_" d="M14.6,13.2l-1.1-1.8c-0.5-0.8-0.7-1.7-0.7-2.7V7c0-2-1.3-3.9-3.2-4.5v-1C9.5,0.7,8.9,0,8,0S6.5,0.7,6.5,1.5
	l0,1C4.5,3.2,3.2,5,3.2,7v1.6c0,0.9-0.3,1.9-0.7,2.7l-1.1,1.8c-0.1,0.2-0.1,0.4,0,0.6c0.1,0.2,0.3,0.3,0.5,0.3l3.9,0h0.3
	c0,0,0,0.1,0,0.1C6.1,15.2,7,16,8,16c1,0,1.9-0.8,1.9-1.9l-0.1-0.1c0,0,0,0,0,0h4.3c0.2,0,0.4-0.1,0.5-0.3
	C14.7,13.6,14.7,13.4,14.6,13.2z M8,14.8c-0.4,0-0.7-0.3-0.7-0.7c0,0,0,0,0-0.1l1.4,0c0,0,0,0.1,0,0.1C8.7,14.5,8.4,14.8,8,14.8z
	 M7.6,2.3V1.5c0-0.2,0.2-0.4,0.4-0.4c0.2,0,0.4,0.2,0.4,0.4l0,0.7v0.1c-0.1,0-0.3,0-0.4,0C7.9,2.3,7.7,2.3,7.6,2.3
	C7.6,2.3,7.6,2.3,7.6,2.3z M2.9,13l0.6-1c0.6-1,0.9-2.1,0.9-3.3V7C4.4,5,6,3.4,8,3.4c2,0,3.6,1.6,3.6,3.6v1.6c0,1.2,0.3,2.3,0.9,3.3
	l0.4,0.6l0.2,0.3l-6.8,0H2.9z"/>
</svg>
