<?xml version="1.0" encoding="utf-8"?>
<!-- Generator: Adobe Illustrator 19.0.0, SVG Export Plug-In . SVG Version: 6.00 Build 0)  -->
<svg version="1.1" id="Layer_1" xmlns="http://www.w3.org/2000/svg" xmlns:xlink="http://www.w3.org/1999/xlink" x="0px" y="0px"
	 viewBox="-247.1 248.9 16.2 16.2" style="enable-background:new -247.1 248.9 16.2 16.2;" xml:space="preserve">
<style type="text/css">
	.st0{fill-opacity:0;}
	.st1{fill:#111111;}
</style>
<rect x="-247" y="249" class="st0" width="16" height="16"/>
<path class="st1" d="M-231.4,249.2c-0.3-0.3-0.7-0.4-1-0.2l-14,5c-0.4,0.1-0.6,0.5-0.7,0.9c0,0.4,0.2,0.8,0.6,1l4.6,2.3l5.9-4.2
	l-4.2,5.9l2.3,4.6c0.2,0.3,0.5,0.6,0.9,0.6c0,0,0,0,0.1,0c0.4,0,0.7-0.3,0.9-0.7l5-14C-230.9,249.9-231.1,249.5-231.4,249.2z"/>
</svg>
