<?xml version="1.0" encoding="utf-8"?>
<!-- Generator: Adobe Illustrator 19.0.0, SVG Export Plug-In . SVG Version: 6.00 Build 0)  -->
<svg version="1.1" id="Layer_1" xmlns="http://www.w3.org/2000/svg" xmlns:xlink="http://www.w3.org/1999/xlink" x="0px" y="0px"
	 viewBox="-297 389 16 16" style="enable-background:new -297 389 16 16;" xml:space="preserve">
<style type="text/css">
	.st0{fill:#006557;}
</style>
<path class="st0" d="M-281.9,395.8c-1.3-0.3-1.9-1.8-1.2-3c0.3-0.5,0.2-1-0.1-1.3l-0.3-0.3c-0.3-0.3-0.8-0.4-1.3-0.1
	c-1.2,0.7-2.7,0.1-3-1.2c-0.2-0.6-0.5-0.9-1-0.9h-0.4c-0.5,0-0.8,0.3-1,0.9c-0.3,1.3-1.8,1.9-3,1.2c-0.5-0.3-1-0.2-1.3,0.1l-0.3,0.3
	c-0.3,0.3-0.4,0.8-0.1,1.3c0.7,1.1,0.1,2.6-1.2,3c-0.6,0.1-0.9,0.5-0.9,1v0.4c0,0.5,0.3,0.8,0.9,1c1.3,0.3,1.9,1.8,1.2,3
	c-0.3,0.5-0.2,1,0.1,1.3l0.3,0.3c0.3,0.3,0.8,0.4,1.3,0.1c1.1-0.7,2.6-0.1,3,1.2c0.1,0.6,0.5,0.9,1,0.9h0.4c0.5,0,0.8-0.3,1-0.9
	c0.3-1.3,1.8-1.9,3-1.2c0.5,0.3,1,0.2,1.3-0.1l0.3-0.3c0.3-0.3,0.4-0.8,0.1-1.3c-0.7-1.2-0.1-2.7,1.2-3c0.6-0.2,0.9-0.5,0.9-1v-0.4
	C-281,396.3-281.3,395.9-281.9,395.8z M-289,400c-1.7,0-3-1.3-3-3s1.3-3,3-3s3,1.3,3,3S-287.3,400-289,400z"/>
</svg>
