<?xml version="1.0" encoding="utf-8"?>
<!-- Generator: Adobe Illustrator 19.0.0, SVG Export Plug-In . SVG Version: 6.00 Build 0)  -->
<svg version="1.1" id="Layer_1" xmlns="http://www.w3.org/2000/svg" xmlns:xlink="http://www.w3.org/1999/xlink" x="0px" y="0px"
	 viewBox="0 0 301.2 301.2" style="enable-background:new 0 0 301.2 301.2;" xml:space="preserve">
<g id="XMLID_46_">
	<path id="XMLID_50_" d="M298.3,214.4l-7.1-7.1c-1.9-1.9-4.4-2.9-7.1-2.9s-5.2,1.1-7.1,2.9l-34.3,34.4V16.2c0-5.5-4.5-10-10-10h-10
		c-5.5,0-10,4.5-10,10v225.5l-34.4-34.4c-1.9-1.9-4.4-2.9-7.1-2.9s-5.2,1.1-7.1,2.9l-7.1,7.1c-3.9,3.9-3.9,10.2,0,14.1l63.5,63.5
		c1.9,1.9,4.4,2.9,7.1,2.9s5.2-1.1,7.1-2.9l63.5-63.5C302.2,224.6,302.2,218.3,298.3,214.4z"/>
	<path id="XMLID_49_" d="M2.9,86.8l7.1,7.1c1.9,1.9,4.4,2.9,7.1,2.9s5.2-1.1,7.1-2.9l34.3-34.4V285c0,5.5,4.5,10,10,10h10
		c5.5,0,10-4.5,10-10V59.5l34.4,34.4c1.9,1.9,4.4,2.9,7.1,2.9s5.2-1.1,7.1-2.9l7.1-7.1c3.9-3.9,3.9-10.2,0-14.1L80.7,9.1
		c-1.9-1.9-4.4-2.9-7.1-2.9s-5.2,1.1-7.1,2.9L3,72.6C-1,76.6-1,82.9,2.9,86.8z"/>
</g>
</svg>
