<?xml version="1.0" encoding="utf-8"?>
<!-- Generator: Adobe Illustrator 19.0.0, SVG Export Plug-In . SVG Version: 6.00 Build 0)  -->
<svg version="1.1" id="Capa_1" xmlns="http://www.w3.org/2000/svg" xmlns:xlink="http://www.w3.org/1999/xlink" x="0px" y="0px"
	 viewBox="-154 246.8 301.2 301.2" style="enable-background:new -154 246.8 301.2 301.2;" xml:space="preserve">
<g>
	<path d="M-4.6,509.5H-144c-5.5,0-10,4.5-10,10v10c0,5.5,4.5,10,10,10H-4.6c5.5,0,10-4.5,10-10v-10C5.4,514,0.9,509.5-4.6,509.5z"/>
	<path d="M-144,476.5h120.6c5.5,0,10-4.5,10-10v-10c0-5.5-4.5-10-10-10H-144c-5.5,0-10,4.5-10,10v10C-154,472-149.5,476.5-144,476.5
		z"/>
	<path d="M-144,413.5h101.8c5.5,0,10-4.5,10-10v-10c0-5.5-4.5-10-10-10H-144c-5.5,0-10,4.5-10,10v10C-154,409-149.5,413.5-144,413.5
		z"/>
	<path d="M-144,343.5h83c5.5,0,10-4.5,10-10v-10c0-5.5-4.5-10-10-10h-83c-5.5,0-10,4.5-10,10v10C-154,339-149.5,343.5-144,343.5z"/>
	<path d="M-144,280.5h64.2c5.5,0,10-4.5,10-10v-10c0-5.5-4.5-10-10-10H-144c-5.5,0-10,4.5-10,10v10C-154,276-149.5,280.5-144,280.5z
		"/>
	<path d="M144.3,463.7l-7.1-7.1c-1.9-1.9-4.4-2.9-7.1-2.9s-5.2,1.1-7.1,2.9L88.7,491V265.5c0-5.5-4.5-10-10-10h-10
		c-5.5,0-10,4.5-10,10V491l-34.4-34.4c-1.9-1.9-4.4-2.9-7.1-2.9s-5.2,1.1-7.1,2.9l-7.1,7.1c-3.9,3.9-3.9,10.2,0,14.1l63.5,63.5
		c1.9,1.9,4.4,2.9,7.1,2.9s5.2-1.1,7.1-2.9l63.5-63.5C148.2,473.9,148.2,467.6,144.3,463.7z"/>
</g>
</svg>
