<?xml version="1.0" encoding="utf-8"?>
<!-- Generator: Adobe Illustrator 19.0.0, SVG Export Plug-In . SVG Version: 6.00 Build 0)  -->
<svg version="1.1" id="Capa_1" xmlns="http://www.w3.org/2000/svg" xmlns:xlink="http://www.w3.org/1999/xlink" x="0px" y="0px"
	 viewBox="-154 246.8 301.2 301.2" style="enable-background:new -154 246.8 301.2 301.2;" xml:space="preserve">
<g>
	<path d="M5.4,270.5v-10c0-5.5-4.5-10-10-10H-144c-5.5,0-10,4.5-10,10v10c0,5.5,4.5,10,10,10H-4.6C0.9,280.5,5.4,276,5.4,270.5z"/>
	<path d="M-23.4,313.5H-144c-5.5,0-10,4.5-10,10v10c0,5.5,4.5,10,10,10h120.6c5.5,0,10-4.5,10-10v-10
		C-13.4,318-17.9,313.5-23.4,313.5z"/>
	<path d="M-42.2,376.5H-144c-5.5,0-10,4.5-10,10v10c0,5.5,4.5,10,10,10h101.8c5.5,0,10-4.5,10-10v-10
		C-32.2,381-36.7,376.5-42.2,376.5z"/>
	<path d="M-61,446.5h-83c-5.5,0-10,4.5-10,10v10c0,5.5,4.5,10,10,10h83c5.5,0,10-4.5,10-10v-10C-51,451-55.5,446.5-61,446.5z"/>
	<path d="M-79.8,509.5H-144c-5.5,0-10,4.5-10,10v10c0,5.5,4.5,10,10,10h64.2c5.5,0,10-4.5,10-10v-10
		C-69.8,514-74.2,509.5-79.8,509.5z"/>
	<path d="M144.3,463.7l-7.1-7.1c-1.9-1.9-4.4-2.9-7.1-2.9s-5.2,1.1-7.1,2.9L88.7,491V265.5c0-5.5-4.5-10-10-10h-10
		c-5.5,0-10,4.5-10,10V491l-34.4-34.4c-1.9-1.9-4.4-2.9-7.1-2.9s-5.2,1.1-7.1,2.9l-7.1,7.1c-3.9,3.9-3.9,10.2,0,14.1l63.5,63.5
		c2,2,4.5,2.9,7.1,2.9s5.1-1,7.1-2.9l63.5-63.5C148.2,473.9,148.2,467.6,144.3,463.7z"/>
</g>
</svg>
