<svg height="1017pt" viewBox="-152 1 1017 1017.759" width="1017pt" xmlns="http://www.w3.org/2000/svg"><path d="m17.382812 50.898438v916.203124c0 18.738282 15.191407 33.929688 33.933594 33.929688h610.800782c18.738281 0 33.933593-15.191406 33.933593-33.929688v-916.203124c0-18.738282-15.195312-33.929688-33.933593-33.929688h-610.800782c-18.742187 0-33.933594 15.191406-33.933594 33.929688zm373.265626 67.867187c0-18.738281 15.191406-33.929687 33.933593-33.929687h169.667969c18.738281 0 33.933594 15.191406 33.933594 33.929687v305.402344c0 18.738281-15.195313 33.933593-33.933594 33.933593h-169.667969c-18.742187 0-33.933593-15.195312-33.933593-33.933593zm0 475.066406c0-18.738281 15.191406-33.929687 33.933593-33.929687h169.667969c18.738281 0 33.933594 15.191406 33.933594 33.929687v305.402344c0 18.738281-15.195313 33.933594-33.933594 33.933594h-169.667969c-18.742187 0-33.933593-15.195313-33.933593-33.933594zm-305.398438-475.066406c0-18.738281 15.191406-33.929687 33.933594-33.929687h169.664062c18.742188 0 33.933594 15.191406 33.933594 33.929687v305.402344c0 18.738281-15.191406 33.933593-33.933594 33.933593h-169.664062c-18.742188 0-33.933594-15.195312-33.933594-33.933593zm0 475.066406c0-18.738281 15.191406-33.929687 33.933594-33.929687h169.664062c18.742188 0 33.933594 15.191406 33.933594 33.929687v305.402344c0 18.738281-15.191406 33.933594-33.933594 33.933594h-169.664062c-18.742188 0-33.933594-15.195313-33.933594-33.933594zm0 0" fill="#a0815c"/><path d="m119.183594 458.101562h169.664062c18.742188 0 33.933594-15.195312 33.933594-33.933593v-305.402344c0-18.738281-15.191406-33.929687-33.933594-33.929687h-169.664062c-18.742188 0-33.933594 15.191406-33.933594 33.929687v305.402344c0 18.738281 15.191406 33.933593 33.933594 33.933593zm16.964844-101.800781v50.898438zm0 0" fill="#ffeb99"/><path d="m424.582031 458.101562h169.667969c18.738281 0 33.933594-15.195312 33.933594-33.933593v-305.402344c0-18.738281-15.195313-33.929687-33.933594-33.929687h-169.667969c-18.742187 0-33.933593 15.191406-33.933593 33.929687v305.402344c0 18.738281 15.191406 33.933593 33.933593 33.933593zm16.96875-101.800781v50.898438zm0 0" fill="#ffeb99"/><path d="m424.582031 933.167969h169.667969c18.738281 0 33.933594-15.195313 33.933594-33.933594v-305.402344c0-18.738281-15.195313-33.929687-33.933594-33.929687h-169.667969c-18.742187 0-33.933593 15.191406-33.933593 33.929687v305.402344c0 18.738281 15.191406 33.933594 33.933593 33.933594zm16.96875-101.800781v50.898437zm0 0" fill="#ffeb99"/><path d="m119.183594 933.167969h169.664062c18.742188 0 33.933594-15.195313 33.933594-33.933594v-305.402344c0-18.738281-15.191406-33.929687-33.933594-33.929687h-169.664062c-18.742188 0-33.933594 15.191406-33.933594 33.929687v305.402344c0 18.738281 15.191406 33.933594 33.933594 33.933594zm16.964844-101.800781v50.898437zm0 0" fill="#ffeb99"/><g fill="#231f20"><path d="m577.28125 492.035156h67.867188v33.929688h-67.867188zm0 0"/><path d="m662.117188 0h-610.800782c-28.113281 0-50.902344 22.789062-50.902344 50.898438v916.203124c0 28.109376 22.789063 50.898438 50.902344 50.898438h610.800782c28.109374 0 50.898437-22.789062 50.898437-50.898438v-916.203124c0-28.109376-22.789063-50.898438-50.898437-50.898438zm16.964843 967.101562c0 9.367188-7.59375 16.964844-16.964843 16.964844h-610.800782c-9.371094 0-16.96875-7.59375-16.96875-16.964844v-916.203124c0-9.367188 7.597656-16.964844 16.96875-16.964844h610.800782c9.371093 0 16.964843 7.59375 16.964843 16.964844zm0 0"/><path d="m288.847656 67.867188h-169.664062c-28.113282 0-50.902344 22.789062-50.902344 50.898437v305.402344c0 28.109375 22.789062 50.898437 50.902344 50.898437h169.664062c28.113282 0 50.902344-22.789062 50.902344-50.898437v-305.402344c0-28.109375-22.789062-50.898437-50.902344-50.898437zm16.96875 356.300781c0 9.367187-7.597656 16.964843-16.96875 16.964843h-169.664062c-9.371094 0-16.96875-7.59375-16.96875-16.964843v-305.402344c0-9.367187 7.597656-16.964844 16.96875-16.964844h169.664062c9.371094 0 16.96875 7.59375 16.96875 16.964844zm0 0"/><path d="m153.117188 356.300781h-33.933594v50.898438c0 9.371093 7.59375 16.96875 16.964844 16.96875h33.933593v-33.933594h-16.964843zm0 0"/><path d="m594.25 67.867188h-169.667969c-28.113281 0-50.898437 22.789062-50.898437 50.898437v305.402344c0 28.109375 22.785156 50.898437 50.898437 50.898437h169.667969c28.109375 0 50.898438-22.789062 50.898438-50.898437v-305.402344c0-28.109375-22.789063-50.898437-50.898438-50.898437zm16.964844 356.300781c0 9.367187-7.59375 16.964843-16.964844 16.964843h-169.667969c-9.371093 0-16.96875-7.59375-16.96875-16.964843v-305.402344c0-9.367187 7.597657-16.964844 16.96875-16.964844h169.667969c9.371094 0 16.964844 7.59375 16.964844 16.964844zm0 0"/><path d="m594.25 542.933594h-169.667969c-28.113281 0-50.898437 22.789062-50.898437 50.898437v305.402344c0 28.109375 22.785156 50.898437 50.898437 50.898437h169.667969c28.109375 0 50.898438-22.789062 50.898438-50.898437v-305.402344c0-28.109375-22.789063-50.898437-50.898438-50.898437zm16.964844 356.300781c0 9.371094-7.59375 16.964844-16.964844 16.964844h-169.667969c-9.371093 0-16.96875-7.59375-16.96875-16.964844v-305.402344c0-9.367187 7.597657-16.964843 16.96875-16.964843h169.667969c9.371094 0 16.964844 7.59375 16.964844 16.964843zm0 0"/><path d="m288.847656 542.933594h-169.664062c-28.113282 0-50.902344 22.789062-50.902344 50.898437v305.402344c0 28.109375 22.789062 50.898437 50.902344 50.898437h169.664062c28.113282 0 50.902344-22.789062 50.902344-50.898437v-305.402344c0-28.109375-22.789062-50.898437-50.902344-50.898437zm16.96875 356.300781c0 9.371094-7.597656 16.964844-16.96875 16.964844h-169.664062c-9.371094 0-16.96875-7.59375-16.96875-16.964844v-305.402344c0-9.367187 7.597656-16.964843 16.96875-16.964843h169.664062c9.371094 0 16.96875 7.59375 16.96875 16.964843zm0 0"/><path d="m153.117188 831.367188h-33.933594v50.898437c0 9.371094 7.59375 16.96875 16.964844 16.96875h33.933593v-33.933594h-16.964843zm0 0"/><path d="m458.515625 356.300781h-33.933594v50.898438c0 9.371093 7.597657 16.96875 16.96875 16.96875h33.929688v-33.933594h-16.964844zm0 0"/><path d="m458.515625 831.367188h-33.933594v50.898437c0 9.371094 7.597657 16.96875 16.96875 16.96875h33.929688v-33.933594h-16.964844zm0 0"/></g></svg>