<?xml version="1.0" encoding="iso-8859-1"?>
<!-- Generator: Adobe Illustrator 19.0.0, SVG Export Plug-In . SVG Version: 6.00 Build 0)  -->
<svg version="1.1" id="Capa_1" xmlns="http://www.w3.org/2000/svg" xmlns:xlink="http://www.w3.org/1999/xlink" x="0px" y="0px"
	 viewBox="0 0 399.151 399.151" style="enable-background:new 0 0 399.151 399.151;" xml:space="preserve">
<g>
	<path style="fill:#3A2C51;" d="M138.449,0H15.673C6.792,0,0,6.792,0,15.673v122.253c0,8.882,6.792,15.673,15.673,15.673
		s15.673-6.792,15.673-15.673V31.347h107.102c8.882,0,15.673-6.792,15.673-15.673S147.331,0,138.449,0z"/>
	<path style="fill:#3A2C51;" d="M137.927,367.282H31.347v-106.58c0-8.882-6.792-15.673-15.673-15.673S0,251.82,0,260.702v122.253
		c0,8.882,6.792,15.673,15.673,15.673h122.253c8.882,0,15.673-6.792,15.673-15.673C153.6,374.073,146.808,367.282,137.927,367.282z"
		/>
	<path style="fill:#3A2C51;" d="M382.955,245.029c-8.882,0-15.673,6.792-15.673,15.673v107.102h-106.58
		c-8.882,0-15.673,6.792-15.673,15.673c0,8.882,6.792,15.673,15.673,15.673h122.253c8.882,0,15.673-6.792,15.673-15.673V260.702
		C398.629,251.82,391.837,245.029,382.955,245.029z"/>
	<path style="fill:#3A2C51;" d="M383.478,0H260.702c-8.882,0-15.673,6.792-15.673,15.673s6.792,15.673,15.673,15.673h107.102
		v107.102c0,8.882,6.792,15.673,15.673,15.673s15.673-6.792,15.673-15.673V15.673C399.151,6.792,392.359,0,383.478,0z"/>
</g>
<g>
</g>
<g>
</g>
<g>
</g>
<g>
</g>
<g>
</g>
<g>
</g>
<g>
</g>
<g>
</g>
<g>
</g>
<g>
</g>
<g>
</g>
<g>
</g>
<g>
</g>
<g>
</g>
<g>
</g>
</svg>
