<svg width="75" height="91" viewBox="0 0 75 91" fill="none" xmlns="http://www.w3.org/2000/svg">
<rect width="75" height="91" fill="black" fill-opacity="0"/>
<path d="M71.0526 4H3.94737C1.76645 4 0 5.76966 0 7.95455V87.0455C0 89.2303 1.76645 91 3.94737 91H71.0526C73.2336 91 75 89.2303 75 87.0455V7.95455C75 5.76966 73.2336 4 71.0526 4Z" fill="#A67C52"/>
<path d="M63.0357 81H11.9643C10.88 81 10 80.1172 10 79.0294V15.9706C10 14.8828 10.88 14 11.9643 14H63.0357C64.12 14 65 14.8828 65 15.9706V79.0294C65 80.1172 64.12 81 63.0357 81Z" fill="white"/>
<path d="M46 8C46 3.582 42.418 0 38 0C33.582 0 30 3.582 30 8H24C22.896 8 22 8.896 22 10V18C22 19.104 22.896 20 24 20H52C53.104 20 54 19.104 54 18V10C54 8.896 53.104 8 52 8H46Z" fill="#EFD358"/>
<path d="M38 10C39.1046 10 40 9.10457 40 8C40 6.89543 39.1046 6 38 6C36.8954 6 36 6.89543 36 8C36 9.10457 36.8954 10 38 10Z" fill="#B29930"/>
<path d="M34.0001 60C33.4882 60 32.9762 59.804 32.5862 59.414L24.5865 51.4142C23.8045 50.6322 23.8045 49.3683 24.5865 48.5863C25.3685 47.8043 26.6324 47.8043 27.4144 48.5863L34.0001 55.1721L48.5856 40.5865C49.3676 39.8045 50.6315 39.8045 51.4135 40.5865C52.1955 41.3685 52.1955 42.6324 51.4135 43.4144L35.4141 59.414C35.0241 59.804 34.5121 60 34.0001 60Z" fill="#72C472"/>
</svg>
