<?xml version="1.0" encoding="utf-8"?>
<!-- Generator: Adobe Illustrator 19.0.0, SVG Export Plug-In . SVG Version: 6.00 Build 0)  -->
<svg version="1.1" id="Layer_1" xmlns="http://www.w3.org/2000/svg" xmlns:xlink="http://www.w3.org/1999/xlink" x="0px" y="0px"
	 viewBox="-247 248.5 16 16" style="enable-background:new -247 248.5 16 16;" xml:space="preserve">
<style type="text/css">
	.st0{fill:#111111;}
</style>
<path class="st0" d="M-231,256.5c0,0.1,0,0.1,0,0.2v0c0,0.1-0.1,0.1-0.1,0.1l-0.1,0.1l-4.9,4.9c-0.1,0.1-0.2,0.2-0.3,0.2
	s-0.3,0-0.3-0.2c-0.2-0.2-0.2-0.5,0-0.7l4.1-4.2h-13.8c-0.3,0-0.5-0.2-0.5-0.5s0.2-0.5,0.5-0.5h13.8l-4.1-4.2
	c-0.2-0.2-0.2-0.5,0-0.7c0.2-0.2,0.5-0.2,0.7,0l4.9,4.9l0.1,0.1c0.1,0,0.1,0.1,0.1,0.1v0C-231,256.4-231,256.4-231,256.5z"/>
</svg>
